<?xml version="1.0" encoding="UTF-8"?><svg id="_圖層_2" xmlns="http://www.w3.org/2000/svg" viewBox="0 0 35 35"><defs><style>.cls-1{fill:none;}.cls-2{fill:#9684bb;}</style></defs><g id="_x31_2學院"><path class="cls-2" d="M34.52,26.33s-1.24-1.36-1.24-3.09,1.23-3.08,1.24-3.09c.43-.43.08-1.23-.52-1.21h-10.04c-.4,0-.72.32-.72.72s.32.72.72.72h8.67c-.4.72-.78,1.72-.78,2.87s.39,2.15.78,2.87H4.6c-1.58,0-2.87-1.29-2.87-2.87s1.29-2.87,2.87-2.87h6.45c.4,0,.72-.32.72-.72s-.32-.72-.72-.72h-6.45c-2.37,0-4.3,1.93-4.3,4.3,0,1.5.77,2.81,1.93,3.59-1.16.77-1.93,2.09-1.93,3.59,0,2.37,1.93,4.3,4.3,4.3h29.4c.61.02.95-.78.52-1.21-.01-.01-1.24-1.36-1.24-3.09s1.23-3.08,1.24-3.09c.14-.2.28-.59,0-.98ZM32.62,33.27H4.6c-1.58,0-2.87-1.29-2.87-2.87s1.29-2.87,2.87-2.87h28.03c-.4.72-.78,1.72-.78,2.87s.39,2.15.78,2.87ZM13.6,15c.64.36,1.03,1.1,1.03,1.92v.86c0,1.47,1.05,2.58,2.44,2.58h.86c1.35,0,2.44-1.09,2.44-2.44v-1.04c0-.81.39-1.53,1.02-1.89,2.47-1.4,4-4.01,4-6.83,0-2.39-1.07-4.62-2.92-6.13C20.61.54,18.18-.03,15.79.47c-3.03.64-5.45,3.12-6.03,6.17-.64,3.38.87,6.66,3.84,8.35h0ZM18.94,17.93c0,.55-.45,1-1,1h-.86c-.58,0-1-.48-1-1.15v-.86c0-.3-.04-.58-.11-.86h3.08c-.06.27-.1.54-.1.83v1.04h0ZM11.17,6.91c.54-2.98,3.31-5.24,6.32-5.18,3.47-.08,6.54,2.97,6.47,6.45,0,2.3-1.25,4.44-3.28,5.58-.39.22-.7.53-.97.88-.02,0-.04-.01-.06-.01h-1.43v-5.12c1.23-.32,2.15-1.43,2.15-2.77,0-.4-.32-.72-.72-.72s-.72.32-.72.72c0,.79-.64,1.43-1.43,1.43s-1.43-.64-1.43-1.43c0-.4-.32-.72-.72-.72s-.72.32-.72.72c0,1.33.92,2.44,2.15,2.77v5.12h-1.43s-.04.01-.07.01c-.27-.35-.59-.67-.98-.89-2.43-1.38-3.67-4.07-3.14-6.84Z"/><rect class="cls-1" width="35" height="35"/></g></svg>