<?xml version="1.0" encoding="UTF-8"?><svg id="_圖層_2" xmlns="http://www.w3.org/2000/svg" viewBox="0 0 35 35"><defs><style>.cls-1{fill:none;}.cls-2{fill:#9684bb;}</style></defs><g id="_x31_2學院"><path class="cls-2" d="M18.88,9.15c-3.83,0-6.95,3.12-6.95,6.95s3.12,6.95,6.95,6.95c1.67,0,3.18-.61,4.37-1.59l6.26,6.26.98-.98-6.26-6.26c.98-1.2,1.59-2.71,1.59-4.37,0-3.83-3.12-6.95-6.95-6.95h0ZM18.88,21.67c-3.07,0-5.56-2.49-5.56-5.56s2.49-5.56,5.56-5.56,5.56,2.49,5.56,5.56-2.49,5.56-5.56,5.56ZM31.96,24.27l-1.02-1.02c1.58-2.75,2.19-6.08,1.66-9.45h0c-.89-5.65-5.05-10.07-10.59-11.27-5.44-1.17-10.86.84-14.15,5.23-1.38,1.71-2.81,5.15-4.2,8.48-.49,1.18-.98,2.37-1.48,3.48v.55h3.08l1.33,6.66c.19.97,1.06,1.68,2.05,1.68h4.67v4.17h15.29v-2.04l1.39,1.39v2.04H11.93v-4.17h-3.28c-1.65,0-3.09-1.18-3.41-2.8l-1.1-5.54H.81l.06-2.37c.51-1.14,1.02-2.37,1.52-3.59,1.49-3.58,2.89-6.96,4.39-8.8C10.39,2.1,16.34-.1,22.32,1.17c6.11,1.32,10.69,6.19,11.67,12.41h0c.6,3.82-.14,7.6-2.02,10.69h0Z"/><rect class="cls-1" width="35" height="35"/></g></svg>