<?xml version="1.0" encoding="UTF-8"?><svg id="_圖層_2" xmlns="http://www.w3.org/2000/svg" viewBox="0 0 35 35"><defs><style>.cls-1{fill:none;}.cls-2{fill:#9684bb;}</style></defs><g id="_x31_2學院"><path class="cls-2" d="M34,33.03l-9.07-9.07c2.21-2.44,3.57-5.67,3.57-9.21C28.5,7.17,22.33,1,14.75,1S1,7.17,1,14.75s6.17,13.75,13.75,13.75c3.54,0,6.77-1.36,9.21-3.57l9.07,9.07.97-.97h0ZM2.37,14.75C2.37,7.92,7.92,2.37,14.75,2.37s12.38,5.55,12.38,12.38-5.55,12.38-12.38,12.38S2.37,21.57,2.37,14.75ZM20.25,11.31v.69h-1.38v-.69c0-1.14-.93-2.06-2.06-2.06h-4.13c-1.14,0-2.06.93-2.06,2.06,0,1.2.86,2.22,2.05,2.41l4.36.7c1.86.3,3.21,1.88,3.21,3.77s-1.54,3.44-3.44,3.44h-1.38v2.75h-1.38v-2.75h-1.38c-1.9,0-3.44-1.54-3.44-3.44v-.69h1.38v.69c0,1.14.93,2.06,2.06,2.06h4.13c1.14,0,2.06-.93,2.06-2.06,0-1.2-.86-2.22-2.05-2.41l-4.36-.7c-1.86-.3-3.21-1.88-3.21-3.77s1.54-3.44,3.44-3.44h1.38v-2.75h1.38v2.75h1.38c1.9,0,3.44,1.54,3.44,3.44Z"/><rect class="cls-1" width="35" height="35"/></g></svg>