<?xml version="1.0" encoding="UTF-8"?><svg id="_圖層_2" xmlns="http://www.w3.org/2000/svg" viewBox="0 0 25 25"><defs><style>.cls-1{fill:none;}.cls-2{fill:#fff;}</style></defs><g id="_x30_1精選文章"><rect class="cls-1" width="25" height="25"/><path class="cls-2" d="M14.15,7.86v2.84c0,.5-.33.94-.81,1.07l-2.07.59v-4.81c0-.21.14-.39.34-.45,0,0,1.32-.36,1.42-.36.24,0,.47.08.67.23.28.21.44.54.44.89h0ZM9.28,7.1s-1.32-.36-1.42-.36c-.24,0-.47.08-.67.23-.28.21-.44.54-.44.89v2.84c0,.5.33.94.81,1.07l2.07.59v-4.81c0-.21-.14-.39-.34-.45h0ZM18.26,6.74v5.76c0,2.27-1.85,4.11-4.11,4.11h-5.51l-3.26,2.17c-.3.2-.64.3-.98.3-.29,0-.57-.07-.84-.21-.58-.31-.93-.91-.93-1.56V6.74c0-2.27,1.84-4.11,4.11-4.11h7.4c2.27,0,4.11,1.84,4.11,4.11M15.79,7.86c0-.88-.4-1.68-1.1-2.21-.7-.53-1.58-.69-2.42-.45l-1.12.32c-.26.07-.5.2-.71.36-.21-.16-.45-.29-.71-.36l-1.11-.32c-.84-.24-1.73-.08-2.42.45-.7.53-1.1,1.33-1.1,2.21v2.84c0,1.23.82,2.32,2,2.66l2.23.64c.36.1.74.16,1.11.16s.75-.05,1.11-.16l2.23-.64c1.18-.34,2-1.43,2-2.66v-2.84h0ZM19.9,6.28v6.22c0,3.17-2.58,5.76-5.76,5.76h-5.01l-.47.31c.75.81,1.82,1.33,3.01,1.33h4.69l3.26,2.18c.29.2.64.3.98.3.29,0,.57-.07.83-.21.57-.31.93-.91.93-1.56v-10.58c0-1.68-1.02-3.11-2.47-3.75"/></g></svg>