<?xml version="1.0" encoding="UTF-8"?><svg id="_圖層_2" xmlns="http://www.w3.org/2000/svg" viewBox="0 0 35 35"><defs><style>.cls-1{fill:none;}.cls-2{fill:#9684bb;}</style></defs><g id="_x31_2學院"><path class="cls-2" d="M34.95,26.23h-8.83c2.67-1.78,4.47-5.02,4.47-8.73,0-4.95-3.19-9.08-7.39-9.99.37-.23.72-.48,1.04-.8,2.23-2.23,1.99-5.84,1.98-5.99l-.05-.63-.63-.05c-.15,0-3.76-.25-5.99,1.98-.82.82-1.31,1.84-1.61,2.8-.44-2.3-1.3-4.03-1.62-4.63l-1.28.7c.39.72,1.63,3.26,1.71,6.43h-3.19c-5.05,0-9.16,4.57-9.16,10.19,0,3.71,1.8,6.95,4.47,8.73h-4.47C1.99,26.23.03,28.19.03,30.6s1.96,4.36,4.36,4.36h30.55v-1.18c.22.21-1.45-1.44-1.45-3.18s1.44-3.17,1.45-3.18v-1.19ZM20.57,3.05c1.25-1.25,3.17-1.51,4.18-1.55-.05,1.01-.3,2.93-1.55,4.18-1.25,1.25-3.2,1.54-4.23,1.6.06-1.03.35-2.98,1.6-4.23h0ZM5.85,17.51c0-4.82,3.46-8.73,7.7-8.73h7.87c4.25,0,7.7,3.92,7.7,8.73s-3.46,8.73-7.7,8.73c-1.26,0-2.46-.33-3.57-.98l-.37-.21-.37.21c-1.11.65-2.31.98-3.57.98-4.25,0-7.7-3.91-7.7-8.73h0ZM32.87,33.51H4.4c-1.6,0-2.91-1.31-2.91-2.91s1.31-2.91,2.91-2.91h28.48c-.42.7-.84,1.7-.84,2.91s.42,2.21.84,2.91Z"/><rect class="cls-1" width="35" height="35"/></g></svg>