<?xml version="1.0" encoding="UTF-8"?><svg id="_圖層_2" xmlns="http://www.w3.org/2000/svg" viewBox="0 0 58.71 70.54"><defs><style>.cls-1{fill:#9684bb;}</style></defs><g id="_x31_2學院"><path class="cls-1" d="M34.28,1.1c-2.97-1.47-6.96-1.47-9.93,0L0,13.22l11.68,5.81v7.42c0,9.73,7.91,17.64,17.64,17.64s17.64-7.91,17.64-17.64v-7.42l8.82-4.39v20.62h2.94V13.22L34.28,1.1ZM44.02,26.45c0,8.1-6.59,14.7-14.7,14.7s-14.7-6.59-14.7-14.7v-5.96l9.74,4.84c1.48.74,3.22,1.11,4.96,1.11s3.48-.37,4.97-1.11l9.74-4.84v5.96h0ZM32.97,22.7c-2.15,1.07-5.15,1.07-7.31,0L6.6,13.22,25.66,3.74c2.15-1.07,5.16-1.07,7.31,0l19.06,9.49-19.06,9.48h0ZM52.83,61.72v8.82h-2.94v-8.82c0-4.86-3.96-8.82-8.82-8.82h-1.23l-10.49,12.58-10.49-12.58h-1.31c-4.86,0-8.82,3.96-8.82,8.82v8.82h-2.94v-8.82c0-6.48,5.27-11.76,11.76-11.76h2.69l9.11,10.93,9.11-10.93h2.6c6.48,0,11.76,5.27,11.76,11.76h0Z"/></g></svg>