<?xml version="1.0" encoding="UTF-8"?><svg id="_圖層_2" xmlns="http://www.w3.org/2000/svg" viewBox="0 0 77.61 67.87"><defs><style>.cls-1{fill:#c68640;}</style></defs><g id="_x31_1成為領導者"><path class="cls-1" d="M76.63,57.33L44.84,3.49c-1.26-2.17-3.52-3.49-6.05-3.49s-4.75,1.29-6.01,3.49L.97,57.33h0c-1.29,2.23-1.29,4.85,0,7.05,1.26,2.2,3.52,3.49,6.05,3.49h63.6c2.52,0,4.79-1.33,6.05-3.49,1.26-2.2,1.26-4.85,0-7.05h-.03ZM73.85,62.79c-.68,1.16-1.88,1.88-3.23,1.88H6.98c-1.36,0-2.55-.71-3.23-1.88-.68-1.2-.68-2.62,0-3.82L35.57,5.11c1.36-2.36,5.11-2.36,6.47,0l31.82,53.83c.68,1.2.68,2.62,0,3.82v.03ZM40.42,42.03h-3.23v-19.4h3.23v19.4ZM42.03,51.73c0,1.78-1.45,3.23-3.23,3.23s-3.23-1.45-3.23-3.23,1.45-3.23,3.23-3.23,3.23,1.45,3.23,3.23Z"/></g></svg>