<?xml version="1.0" encoding="UTF-8"?><svg id="_圖層_2" xmlns="http://www.w3.org/2000/svg" viewBox="0 0 25.41 31.17"><g id="_x31_5使用者註冊"><path d="M18.71,0h.22c.18,2.2-.66,3.84-1.68,5.03-1,1.18-2.37,2.33-4.59,2.15-.15-2.17.69-3.69,1.71-4.87.94-1.11,2.68-2.09,4.34-2.31Z"/><path d="M25.41,22.88v.06c-.62,1.89-1.51,3.5-2.6,5-.99,1.36-2.2,3.19-4.37,3.19-1.87,0-3.11-1.2-5.03-1.24-2.03-.03-3.14,1.01-5,1.27h-.63c-1.36-.2-2.46-1.28-3.26-2.25C2.16,26.05.34,22.34,0,17.6v-1.39c.14-3.4,1.79-6.16,3.99-7.5,1.16-.71,2.75-1.32,4.52-1.05.76.12,1.54.38,2.22.64.64.25,1.45.69,2.21.66.52-.02,1.03-.28,1.55-.48,1.53-.55,3.03-1.18,5-.89,2.37.36,4.06,1.41,5.1,3.04-2.01,1.28-3.59,3.2-3.32,6.49.24,2.99,1.98,4.73,4.14,5.76Z"/></g></svg>