<?xml version="1.0" encoding="UTF-8"?><svg id="_圖層_2" xmlns="http://www.w3.org/2000/svg" viewBox="0 0 11.43 19.15"><defs><style>.cls-1{fill:none;stroke:#fff;stroke-miterlimit:10;}</style></defs><g id="_x30_1精選文章"><path class="cls-1" d="M1.84.5c.4,0,.71.13.95.38,2.57,2.57,5.15,5.14,7.72,7.73.56.57.54,1.33-.03,1.9-2.56,2.57-5.13,5.14-7.7,7.7-.57.57-1.38.59-1.91.06-.53-.53-.51-1.34.06-1.91,2.19-2.2,4.39-4.39,6.59-6.57.21-.2.22-.3,0-.51C5.35,7.12,3.18,4.94,1.01,2.77c-.37-.37-.52-.8-.38-1.31.13-.49.46-.8.96-.93.1-.02.2-.03.25-.04Z"/></g></svg>