<?xml version="1.0" encoding="UTF-8"?><svg id="_圖層_2" xmlns="http://www.w3.org/2000/svg" viewBox="0 0 10.43 18.15"><defs><style>.cls-1{fill:#fff;}</style></defs><g id="_x30_1精選文章"><path class="cls-1" d="M1.34,0c.4,0,.71.13.95.38,2.58,2.57,5.15,5.14,7.72,7.73.56.56.54,1.33-.03,1.9-2.56,2.57-5.13,5.14-7.7,7.7-.57.57-1.38.59-1.91.06-.53-.53-.51-1.34.06-1.91,2.19-2.19,4.39-4.39,6.59-6.57.21-.2.22-.3,0-.52C4.85,6.61,2.68,4.44.51,2.27.14,1.9,0,1.47.13.96.26.47.59.16,1.09.04c.1-.02.2-.03.25-.04"/></g></svg>