<?xml version="1.0" encoding="UTF-8"?><svg id="_圖層_2" xmlns="http://www.w3.org/2000/svg" viewBox="0 0 15.19 8.73"><defs><style>.cls-1{fill:#9684bb;}</style></defs><g id="_x30_3熱門交易者"><path class="cls-1" d="M15.19,1.12c0,.34-.11.59-.32.8-2.15,2.16-4.31,4.31-6.47,6.46-.47.47-1.12.45-1.59-.02C4.66,6.21,2.52,4.07.37,1.92-.11,1.44-.12.76.32.32c.44-.44,1.12-.43,1.6.05,1.84,1.83,3.67,3.67,5.5,5.51.17.17.26.18.43,0,1.81-1.82,3.63-3.64,5.45-5.46.31-.31.67-.43,1.09-.32.41.11.67.39.78.8.02.08.03.17.03.21Z"/></g></svg>