<?xml version="1.0" encoding="UTF-8"?><svg id="_圖層_2" xmlns="http://www.w3.org/2000/svg" viewBox="0 0 7.43 12.94"><defs><style>.cls-1{fill:#fff;}</style></defs><g id="_x30_3熱門交易者"><path class="cls-1" d="M6.48,12.94c-.29,0-.5-.09-.68-.27-1.84-1.83-3.67-3.67-5.5-5.51-.4-.4-.39-.95.02-1.36C2.14,3.97,3.97,2.14,5.8.31c.4-.4.98-.42,1.36-.04.37.37.36.96-.04,1.36-1.56,1.56-3.13,3.13-4.7,4.68-.15.15-.15.22,0,.37,1.55,1.54,3.1,3.09,4.65,4.64.26.26.37.57.27.93-.1.35-.33.57-.68.66-.07.02-.14.02-.18.03Z"/></g></svg>