<?xml version="1.0" encoding="UTF-8"?><svg id="_圖層_2" xmlns="http://www.w3.org/2000/svg" viewBox="0 0 22 22"><defs><style>.cls-1{fill:none;}.cls-2{fill:#9684bb;}</style></defs><g id="_x30_1精選文章"><path class="cls-2" d="M19.29,5.29h0s-.02-.07-.03-.09c0,0,0-.01-.01-.02-.02-.03-.04-.06-.06-.08L15.11,1.03s-.05-.04-.08-.06c0,0-.01,0-.02-.01-.03-.01-.06-.03-.09-.03-.02,0-.05,0-.07,0H3.08c-.21,0-.38.17-.38.38v19.41c0,.21.17.38.38.38h15.85c.21,0,.38-.17.38-.38V5.37s0-.05,0-.07M15.23,2.2l2.78,2.78h-2.78v-2.78ZM18.54,20.33H3.46V1.67h11.02v3.69c0,.21.17.38.38.38h3.69v14.58Z"/><path class="cls-2" d="M11.38,6.37v-.6c0-.21-.17-.38-.38-.38s-.38.17-.38.38v.6c-2.27.19-4.06,1.98-4.25,4.25h-.6c-.21,0-.38.17-.38.38s.17.38.38.38h.6c.19,2.26,1.98,4.06,4.25,4.25v.6c0,.21.17.38.38.38s.38-.17.38-.38v-.6c2.26-.19,4.06-1.98,4.25-4.25h.6c.21,0,.38-.17.38-.38s-.17-.38-.38-.38h-.6c-.19-2.26-1.99-4.06-4.25-4.25M14.31,11.38h.56c-.19,1.85-1.65,3.31-3.5,3.5v-.56c0-.21-.17-.38-.38-.38s-.38.17-.38.38v.56c-1.85-.18-3.31-1.65-3.5-3.5h.56c.21,0,.38-.17.38-.38s-.17-.38-.38-.38h-.56c.18-1.85,1.65-3.31,3.5-3.5v.56c0,.21.17.38.38.38s.38-.17.38-.38v-.56c1.85.18,3.31,1.65,3.5,3.5h-.56c-.21,0-.38.17-.38.38s.17.38.38.38"/><path class="cls-2" d="M11,9.35c-.91,0-1.65.74-1.65,1.64s.74,1.65,1.65,1.65,1.65-.74,1.65-1.65c0-.91-.74-1.64-1.65-1.64M11,11.89c-.49,0-.89-.4-.89-.89s.4-.89.89-.89.89.4.89.89c0,.49-.4.89-.89.89"/><rect class="cls-1" width="22" height="22"/></g></svg>