<?xml version="1.0" encoding="UTF-8"?><svg id="_圖層_2" xmlns="http://www.w3.org/2000/svg" viewBox="0 0 56 56"><defs><style>.cls-1{fill:#fff;fill-rule:evenodd;}.cls-2{fill:#f0aa3f;}</style></defs><g id="_x30_2發現市場"><circle class="cls-2" cx="28" cy="28" r="28"/><path class="cls-1" d="M24.93,42.14c-.9-.28-1.71-.53-2.57-.8-.64,2.05-1.27,4.08-1.92,6.14-1.29-.4-2.53-.79-3.82-1.19.64-2.04,1.27-4.06,1.93-6.18-2.48-.77-4.9-1.53-7.36-2.3.43-1.37.82-2.64,1.26-4.03.77.24,1.56.49,2.35.73,1.54.48,2.12.18,2.61-1.38,1.71-5.47,3.42-10.95,5.13-16.42.39-1.24.14-1.76-1.1-2.2-.99-.35-2-.63-3.06-.96.42-1.33.81-2.61,1.24-3.96,2.53.79,5.02,1.57,7.59,2.37.64-2.04,1.25-4.02,1.88-6.04,1.29.4,2.51.78,3.79,1.18-.62,1.99-1.24,3.96-1.87,5.99.87.27,1.67.52,2.55.8.62-1.97,1.23-3.95,1.87-5.98,1.28.4,2.5.78,3.8,1.19-.34,1.07-.67,2.14-1,3.2-.23.75-.44,1.51-.71,2.25-.17.48-.09.69.41.91,2.02.89,3.84,2.07,5.34,3.74,2.95,3.3,1.31,8.14-2.07,9.84-.49.25-1.01.42-1.51.63.58.57,1.24,1.07,1.73,1.71,2.05,2.69,1.94,5.54.42,8.4-1.97,3.72-5.17,5.17-9.56,4.36-1.2-.22-2.37-.55-3.62-.84-.63,2.01-1.26,4.03-1.91,6.11-1.25-.39-2.45-.76-3.73-1.17.63-2.01,1.27-4.05,1.91-6.13ZM23.65,36.84c1.49.46,2.9.91,4.31,1.34.36.11.73.23,1.1.3,1.5.27,2.98.35,4.37-.47,1.92-1.13,2.62-3.79,1.37-5.4-.31-.41-.72-.77-1.15-1.07-2.24-1.57-4.95-1.89-7.47-2.85-.86,2.75-1.69,5.4-2.54,8.14ZM27.41,24.78c1.7.53,3.32,1.11,4.99,1.52.65.16,1.44.05,2.09-.17,1.54-.52,2.36-1.73,2.61-3.29.24-1.49-.58-2.48-1.73-3.27-1.7-1.18-3.71-1.53-5.64-2.21-.78,2.51-1.54,4.93-2.32,7.44Z"/></g></svg>