<?xml version="1.0" encoding="UTF-8"?><svg id="_圖層_2" xmlns="http://www.w3.org/2000/svg" viewBox="0 0 18.68 22.77"><defs><style>.cls-1{fill:#fff;fill-rule:evenodd;}</style></defs><g id="_x30_2發現市場"><path class="cls-1" d="M8.98,22.77c-.44-.15-.91-.24-1.31-.45-.94-.49-1.51-1.3-1.75-2.35h6.85c-.06.42-.23.8-.45,1.14-.58.91-1.41,1.45-2.49,1.61-.04,0-.07.02-.1.04h-.74Z"/><path class="cls-1" d="M18.66,17.11c-.08-.48-.38-.8-.72-1.12-1.14-1.04-1.83-2.32-1.99-3.86-.08-.8-.04-1.62-.06-2.43-.01-.56.01-1.13-.05-1.68-.32-2.73-2.22-4.9-4.87-5.6-.22-.06-.54-.04-.64-.19-.12-.16-.05-.64-.04-.88.04-.58-.18-1.37-.74-1.37h-.39c-.56,0-.79.76-.75,1.34.02.26,0,.61,0,.86-.05.02-.07.07-.09.08-3.29.59-5.51,3.26-5.51,6.6,0,.87,0,1.75,0,2.62,0,.8-.18,1.58-.49,2.32-.39.92-.97,1.69-1.72,2.35-.57.5-.73,1.19-.46,1.85.27.66.86,1,1.66,1h15.13c.1,0,.21.02.31,0,.97-.12,1.59-.93,1.44-1.89ZM12.14,13.63c-.19.38-.36.69-.66.91-.3.22-1.21.39-1.21.51v.95h-1v-.91c-1-.06-1.1-.19-1.47-.4-.5-.28-1.04-.65-1.47-1.12l1.11-1.17c.73.78,1.42,1.17,2.11,1.17.35,0,.64-.12.89-.36s.37-.53.37-.86c0-.28-.08-.52-.24-.73-.16-.21-.48-.42-.95-.64-.95-.44-1.6-.79-1.93-1.05-.34-.26-.59-.55-.75-.87-.17-.32-.25-.67-.25-1.03,0-.6.35-1.12.79-1.55.44-.43.8-.66,1.8-.69v-.8h1v.88c0,.09.65.22.92.37.27.16.56.42.92.79l-1.18,1.13c-.53-.54-1.06-.82-1.58-.82-.3,0-.56.08-.75.24-.19.16-.29.35-.29.56,0,.18.08.36.25.53.16.18.5.37,1,.58.89.37,1.5.68,1.82.94.33.26.58.57.76.94.18.36.26.77.26,1.22s-.09.87-.28,1.25Z"/></g></svg>