<?xml version="1.0" encoding="UTF-8"?><svg id="_圖層_2" xmlns="http://www.w3.org/2000/svg" viewBox="0 0 21.59 21.59"><defs><style>.cls-1{fill:#9684bb;}</style></defs><g id="_x31_2學院"><path class="cls-1" d="M18.21,0H3.37C1.51,0,0,1.51,0,3.37v10.79c0,1.86,1.51,3.37,3.37,3.37h13.21l3.84,3.85c.13.13.3.2.48.2.37,0,.67-.3.67-.67V3.37c0-1.86-1.51-3.37-3.37-3.37ZM20.24,19.28l-2.89-2.9c-.13-.13-.3-.2-.48-.2H3.37c-1.12,0-2.02-.91-2.02-2.02V3.37c0-1.12.91-2.02,2.02-2.02h14.84c1.12,0,2.02.91,2.02,2.02v15.91Z"/><circle class="cls-1" cx="10.79" cy="8.77" r="1.35"/><circle class="cls-1" cx="15.51" cy="8.77" r="1.35"/><circle class="cls-1" cx="6.07" cy="8.77" r="1.35"/></g></svg>