<?xml version="1.0" encoding="UTF-8"?><svg id="_圖層_2" xmlns="http://www.w3.org/2000/svg" viewBox="0 0 32.84 30.1"><defs><style>.cls-1{fill:#50b958;}</style></defs><g id="_x31_3加入會員"><path class="cls-1" d="M22.73,9.77l.96.97-7.93,7.81c-.38.38-.9.6-1.45.6s-1.06-.21-1.45-.6l-3.81-3.7.95-.98,3.82,3.7c.27.27.72.27.97,0l7.93-7.81h0ZM32.41,16.78l-6.08,11.44c-.62,1.16-1.82,1.88-3.13,1.88h-13.53c-1.31,0-2.51-.72-3.12-1.88L.44,16.79c-.58-1.08-.58-2.38,0-3.47L6.55,1.88c.62-1.16,1.82-1.88,3.12-1.88h13.53c1.31,0,2.51.72,3.13,1.88l6.08,11.44c.57,1.08.57,2.37,0,3.45h0ZM31.2,13.96l-6.08-11.44c-.38-.71-1.12-1.16-1.92-1.16h-13.53c-.8,0-1.54.44-1.92,1.15L1.64,13.97c-.36.68-.36,1.5,0,2.18l6.11,11.43c.38.71,1.12,1.15,1.92,1.15h13.53c.8,0,1.54-.44,1.92-1.16l6.08-11.44c.36-.68.36-1.49,0-2.17h0Z"/></g></svg>