<?xml version="1.0" encoding="UTF-8"?><svg id="_圖層_2" xmlns="http://www.w3.org/2000/svg" viewBox="0 0 20.92 20.92"><defs><style>.cls-1{fill:#cfcedd;}</style></defs><g id="_x31_4趨勢資產_xFF3F_投資"><path class="cls-1" d="M19.77,4.98l-3.83-3.83c-.74-.74-1.72-1.15-2.77-1.15h-5.41c-1.05,0-2.03.41-2.77,1.15l-3.83,3.83c-.74.74-1.15,1.73-1.15,2.77v5.41c0,1.05.41,2.03,1.15,2.77l3.83,3.83c.74.74,1.73,1.15,2.77,1.15h5.41c1.05,0,2.03-.41,2.77-1.15l3.83-3.83c.74-.74,1.15-1.73,1.15-2.77v-5.41c0-1.05-.41-2.03-1.15-2.77h0ZM20.04,13.17c0,.81-.32,1.58-.89,2.16l-3.83,3.83c-.58.58-1.34.89-2.16.89h-5.41c-.81,0-1.58-.32-2.16-.89l-3.83-3.83c-.58-.58-.89-1.34-.89-2.16v-5.41c0-.81.32-1.58.89-2.16l3.83-3.83c.58-.58,1.34-.89,2.16-.89h5.41c.81,0,1.58.32,2.16.89l3.83,3.83c.58.58.89,1.34.89,2.16v5.41h0ZM14.67,6.86l-3.61,3.61,3.61,3.61c.17.17.17.45,0,.62-.09.09-.2.13-.31.13s-.22-.04-.31-.13l-3.61-3.61-3.61,3.61c-.09.09-.2.13-.31.13s-.22-.04-.31-.13c-.17-.17-.17-.45,0-.62l3.61-3.61-3.61-3.61c-.17-.17-.17-.45,0-.62.17-.17.45-.17.62,0l3.61,3.61,3.61-3.61c.17-.17.45-.17.62,0s.17.45,0,.62h0Z"/></g></svg>