<?xml version="1.0" encoding="UTF-8"?><svg id="_圖層_2" xmlns="http://www.w3.org/2000/svg" viewBox="0 0 24.23 24.23"><defs><style>.cls-1{fill:#c3bcce;opacity:.75;}</style></defs><g id="_x31_3加入會員"><path class="cls-1" d="M22.9,5.77l-4.44-4.44c-.86-.86-2-1.33-3.21-1.33h-6.27c-1.21,0-2.36.47-3.21,1.33L1.33,5.77c-.86.86-1.33,2-1.33,3.21v6.27c0,1.21.47,2.36,1.33,3.21l4.44,4.44c.86.86,2,1.33,3.21,1.33h6.27c1.21,0,2.35-.47,3.21-1.33l4.44-4.44c.86-.86,1.33-2,1.33-3.21v-6.27c0-1.21-.47-2.35-1.33-3.21h0ZM23.22,15.25c0,.94-.37,1.83-1.03,2.5l-4.44,4.44c-.67.67-1.55,1.03-2.5,1.03h-6.27c-.94,0-1.83-.37-2.5-1.03l-4.44-4.44c-.67-.67-1.03-1.55-1.03-2.5v-6.27c0-.94.37-1.83,1.03-2.5L6.48,2.05c.67-.67,1.55-1.03,2.5-1.03h6.27c.94,0,1.83.37,2.5,1.03l4.44,4.44c.67.67,1.03,1.56,1.03,2.5v6.27h0ZM17,7.95l-4.19,4.19,4.19,4.19c.2.2.2.52,0,.71-.1.1-.23.15-.36.15s-.26-.05-.36-.15l-4.19-4.19-4.19,4.19c-.1.1-.23.15-.36.15s-.26-.05-.36-.15c-.2-.2-.2-.52,0-.71l4.19-4.19-4.19-4.19c-.2-.2-.2-.52,0-.71s.52-.2.71,0l4.19,4.19,4.19-4.19c.2-.2.52-.2.71,0s.2.52,0,.71h0Z"/></g></svg>