<?xml version="1.0" encoding="UTF-8"?><svg id="_圖層_2" xmlns="http://www.w3.org/2000/svg" viewBox="0 0 25 25"><defs><style>.cls-1{fill:none;}.cls-2{fill:#fff;}</style></defs><g id="_x30_1精選文章"><rect class="cls-1" width="25" height="25"/><path class="cls-2" d="M15.43,16.29c6.24-.03,8.45-3.33,8.45-6.16,0-1.59-1.13-2.92-2.62-3.25.13-.37.24-.7.32-.96.34-1.13.12-2.33-.59-3.28-.73-.97-1.84-1.53-3.05-1.53H7.06c-1.21,0-2.32.56-3.05,1.53-.71.95-.93,2.15-.59,3.28.08.25.19.59.32.96-1.5.32-2.62,1.65-2.62,3.24,0,2.83,2.22,6.13,8.45,6.17.05.29.09.58.09.88v2.92c0,1.73-1.46,1.89-1.9,1.9h-.95c-.52,0-.95.42-.95.95s.42.95.95.95h11.39c.52,0,.95-.42.95-.95s-.42-.95-.95-.95h-.94c-.45,0-1.91-.17-1.91-1.9v-2.92c0-.3.03-.59.09-.88h0ZM20.52,8.69s.03,0,.05,0c.78,0,1.42.64,1.42,1.42,0,1.93-1.53,3.98-5.73,4.24.21-.29.45-.55.72-.78,1.65-1.4,2.78-3.28,3.54-4.9M3.01,10.13c0-.79.64-1.42,1.42-1.42.02,0,.03,0,.05,0,.75,1.62,1.89,3.49,3.54,4.9.27.23.51.49.72.78-4.2-.26-5.73-2.31-5.73-4.24M10.4,10.38c-.25-.17-.35-.49-.26-.78l.49-1.52-1.3-.95c-.31-.23-.38-.66-.15-.97.13-.18.34-.28.56-.28h1.59l.49-1.51c.12-.37.52-.56.88-.44.21.07.37.23.44.44l.48,1.51h1.59c.39,0,.7.31.7.7,0,.22-.11.43-.29.56l-1.3.95.49,1.53c.12.37-.08.76-.45.88-.21.07-.44.03-.62-.1l-1.27-.94-1.28.94c-.24.18-.57.18-.82,0"/></g></svg>