<?xml version="1.0" encoding="UTF-8"?><svg id="_圖層_2" xmlns="http://www.w3.org/2000/svg" viewBox="0 0 24.57 26.68"><defs><style>.cls-1{fill:#66c0ee;}.cls-2{fill:#96fff6;}.cls-3{fill:#fff;}.cls-4{fill:#76e2f8;}.cls-5{fill:#b3e5e5;}.cls-6{fill:#3aaaff;}</style></defs><g id="_x30_3熱門交易者"><path class="cls-3" d="M21.45,5.11l-6.62-3.82c-1.58-.91-3.52-.91-5.09,0l-6.62,3.82c-1.58.91-2.55,2.59-2.55,4.41v7.64c0,1.82.97,3.5,2.55,4.41l6.62,3.82c1.58.91,3.52.91,5.09,0l6.62-3.82c1.58-.91,2.55-2.59,2.55-4.41v-7.64c0-1.82-.97-3.5-2.55-4.41Z"/><path class="cls-5" d="M12.29,26.68c-.94,0-1.89-.24-2.73-.73l-6.83-3.94c-1.68-.97-2.73-2.78-2.73-4.72v-7.89c0-1.94,1.04-3.75,2.73-4.72L9.56.73c1.68-.97,3.77-.97,5.45,0l6.83,3.94c1.68.97,2.73,2.78,2.73,4.72v7.89c0,1.94-1.04,3.75-2.73,4.72l-6.83,3.94c-.84.49-1.78.73-2.73.73ZM12.29,1.15c-.74,0-1.49.19-2.15.57l-6.83,3.94c-1.33.77-2.15,2.19-2.15,3.73v7.89c0,1.53.82,2.96,2.15,3.73l6.83,3.94c1.33.77,2.97.77,4.3,0l6.83-3.94c1.33-.77,2.15-2.19,2.15-3.73v-7.89c0-1.53-.82-2.96-2.15-3.73l-6.83-3.94c-.66-.38-1.41-.57-2.15-.57Z"/><path class="cls-1" d="M12.29,22.99L3.3,12.23l3.01-1.53,1.54,1.53,3.75,2.97.69,7.79Z"/><path class="cls-6" d="M21.27,12.23l-8.98,10.76,1.14-7.6,3.29-3.16,1.89-1.38,2.66,1.38Z"/><path class="cls-2" d="M7.85,6l1.39,2.43-1.39,3.81H3.3l4.55-6.23Z"/><path class="cls-4" d="M21.27,12.23h-4.55l-1.27-3.75,1.27-2.49,4.55,6.23Z"/><path class="cls-2" d="M7.85,12.23l2.66,1.77,1.77-1.77,1.64-1.83-1.64-4.4-3.22,2.14-1.21,4.1Z"/><path class="cls-4" d="M12.29,6v6.23l1.64,1.47,2.79-1.47-.85-3.76-3.58-2.48Z"/><path class="cls-1" d="M16.72,6v6.23l-4.43-6.23h4.43Z"/><path class="cls-4" d="M12.29,6l-4.43,6.23v-6.23h4.43Z"/><path class="cls-4" d="M7.85,12.23l4.43,10.76,1.81-7.14-1.81-3.62h-4.43Z"/><path class="cls-1" d="M12.29,12.23v10.76l4.43-10.76h-4.43Z"/></g></svg>