<?xml version="1.0" encoding="UTF-8"?><svg id="_圖層_2" xmlns="http://www.w3.org/2000/svg" viewBox="0 0 61.28 66.54"><defs><style>.cls-1{fill:#a67130;}.cls-2{fill:#fff;}.cls-3{fill:#d8a65b;}.cls-4{fill:#e0bc7f;}.cls-5{fill:#efc68b;}.cls-6{fill:#e8cca3;}.cls-7{fill:#c69758;}</style></defs><g id="_x30_8使用者_x5F_VIP等級"><path class="cls-2" d="M53.49,12.74L36.99,3.22c-3.93-2.27-8.77-2.27-12.7,0L7.79,12.74c-3.93,2.27-6.35,6.46-6.35,11v19.05c0,4.54,2.42,8.73,6.35,11l16.5,9.52c3.93,2.27,8.77,2.27,12.7,0l16.5-9.52c3.93-2.27,6.35-6.46,6.35-11v-19.05c0-4.54-2.42-8.73-6.35-11Z"/><path class="cls-6" d="M30.64,66.54c-2.35,0-4.7-.61-6.8-1.82l-17.04-9.84c-4.19-2.42-6.8-6.93-6.8-11.78v-19.67c0-4.84,2.61-9.36,6.8-11.78L23.84,1.82c4.19-2.42,9.41-2.42,13.6,0l17.04,9.84c4.19,2.42,6.8,6.93,6.8,11.78v19.67c0,4.84-2.61,9.36-6.8,11.78l-17.04,9.84c-2.1,1.21-4.45,1.82-6.8,1.82ZM30.64,2.87c-1.86,0-3.71.48-5.36,1.43L8.24,14.14c-3.31,1.91-5.36,5.47-5.36,9.29v19.67c0,3.82,2.06,7.38,5.36,9.29l17.04,9.84c3.31,1.91,7.42,1.91,10.73,0l17.04-9.84c3.31-1.91,5.36-5.47,5.36-9.29v-19.67c0-3.82-2.06-7.38-5.36-9.29l-17.04-9.84c-1.65-.95-3.51-1.43-5.36-1.43Z"/><path class="cls-5" d="M17.3,33.6l13.34-13.34,13.34,13.34-13.34,13.34-13.34-13.34Z"/><path class="cls-3" d="M43.98,33.6l-13.34-13.34v26.68l13.34-13.34Z"/><g id="Gem"><path class="cls-1" d="M52.64,33.6c0,.34-.13.67-.39.9l-20.71,20.71c-.23.26-.57.39-.9.39l-2.58-7.18,2.58-5.13,9.69-9.69,4.75-2.58,7.55,2.58Z"/><path class="cls-4" d="M30.64,11.6l2.58,7.18-2.58,5.13-9.69,9.69-5.97,2.58-6.34-2.58c0-.34.13-.67.39-.9L29.74,11.98c.23-.26.57-.39.9-.39h0Z"/></g><path class="cls-7" d="M30.64,43.29v12.31c-.34,0-.67-.13-.9-.39l-20.71-20.71c-.26-.23-.39-.57-.39-.9h12.31l9.69,9.69Z"/><path class="cls-7" d="M52.64,33.6h-12.31l-9.69-9.69v-12.31c.34,0,.67.13.9.39l20.71,20.71c.26.23.39.57.39.9Z"/></g></svg>