<?xml version="1.0" encoding="UTF-8"?><svg id="_圖層_2" xmlns="http://www.w3.org/2000/svg" viewBox="0 0 61.28 66.54"><defs><style>.cls-1{fill:#ffe98f;}.cls-2{fill:#fff;}.cls-3{fill:#f93;}.cls-4{fill:#ffc34d;}.cls-5{fill:#ffe666;}.cls-6{fill:#ff6;}</style></defs><g id="_x30_8使用者_x5F_VIP等級"><path class="cls-2" d="M53.49,12.74L36.99,3.22c-3.93-2.27-8.77-2.27-12.7,0L7.79,12.74c-3.93,2.27-6.35,6.46-6.35,11v19.05c0,4.54,2.42,8.73,6.35,11l16.5,9.52c3.93,2.27,8.77,2.27,12.7,0l16.5-9.52c3.93-2.27,6.35-6.46,6.35-11v-19.05c0-4.54-2.42-8.73-6.35-11Z"/><path class="cls-1" d="M30.64,66.54c-2.35,0-4.7-.61-6.8-1.82l-17.04-9.84c-4.19-2.42-6.8-6.93-6.8-11.78v-19.67c0-4.84,2.61-9.36,6.8-11.78L23.84,1.82c4.19-2.42,9.41-2.42,13.6,0l17.04,9.84c4.19,2.42,6.8,6.93,6.8,11.78v19.67c0,4.84-2.61,9.36-6.8,11.78l-17.04,9.84c-2.1,1.21-4.45,1.82-6.8,1.82ZM30.64,2.87c-1.86,0-3.71.48-5.36,1.43L8.24,14.14c-3.31,1.91-5.36,5.47-5.36,9.29v19.67c0,3.82,2.06,7.38,5.36,9.29l17.04,9.84c3.31,1.91,7.42,1.91,10.73,0l17.04-9.84c3.31-1.91,5.36-5.47,5.36-9.29v-19.67c0-3.82-2.06-7.38-5.36-9.29l-17.04-9.84c-1.65-.95-3.51-1.43-5.36-1.43Z"/><path class="cls-6" d="M30.64,26.37l3.65,6.51-3.65,12.26-5.5-3.05-.1-6.66-5.6-4.01.36-5.05,6.26-2.84,4.58,2.84Z"/><path class="cls-5" d="M41.48,26.37v5.05l-5.23,4.01.27,5.47-5.88,4.24v-18.77l5.61-3.43,5.23,3.43Z"/><path class="cls-5" d="M30.64,17.25l3.65,4.29-3.65,4.83h-10.84l-3.61.22-4.07-4.66c.1-.18.26-.33.46-.43,5.58-2.78,11.83-4.25,18.06-4.25h0Z"/><path class="cls-5" d="M30.64,45.14l2.77,3.44-2.77,5.42c-.21,0-.42-.06-.6-.18-5.02-3.33-9.28-7.79-12.37-12.92l2.13-6.38,5.23.91,5.61,9.71Z"/><path class="cls-4" d="M43.61,40.9c-3.09,5.14-7.35,9.6-12.37,12.92-.18.12-.39.18-.6.18v-8.86l5.61-9.71,5.23-.37,2.13,5.84Z"/><path class="cls-4" d="M25.03,35.43l-7.36,5.47c-3.33-5.54-5.3-11.9-5.69-18.35-.01-.22.04-.43.15-.61l7.68,4.43,5.23,9.06Z"/><path class="cls-4" d="M49.16,21.93l-3.57,5.02-4.1-.58h-10.84v-9.11c6.23,0,12.48,1.47,18.06,4.25.2.1.35.25.46.43Z"/><path class="cls-3" d="M49.3,22.55c-.4,6.45-2.37,12.81-5.69,18.35l-7.36-5.47,5.23-9.06,7.68-4.43c.11.18.16.39.15.61h0Z"/></g></svg>