<?xml version="1.0" encoding="UTF-8"?><svg id="_圖層_2" xmlns="http://www.w3.org/2000/svg" viewBox="0 0 61.28 66.54"><defs><style>.cls-1{fill:#d8d5db;}.cls-2{fill:#d2d2d7;}.cls-3{fill:#e1e1e6;}.cls-4{fill:#b9b9be;}.cls-5{fill:#fff;}.cls-6{fill:#ededf0;}.cls-7{fill:#a0a0a5;}</style></defs><g id="_x30_8使用者_x5F_VIP等級"><path class="cls-5" d="M53.49,12.74L36.99,3.22c-3.93-2.27-8.77-2.27-12.7,0L7.79,12.74c-3.93,2.27-6.35,6.46-6.35,11v19.05c0,4.54,2.42,8.73,6.35,11l16.5,9.52c3.93,2.27,8.77,2.27,12.7,0l16.5-9.52c3.93-2.27,6.35-6.46,6.35-11v-19.05c0-4.54-2.42-8.73-6.35-11Z"/><path class="cls-1" d="M30.64,66.54c-2.35,0-4.7-.61-6.8-1.82l-17.04-9.84c-4.19-2.42-6.8-6.93-6.8-11.78v-19.67c0-4.84,2.61-9.36,6.8-11.78L23.84,1.82c4.19-2.42,9.41-2.42,13.6,0l17.04,9.84c4.19,2.42,6.8,6.93,6.8,11.78v19.67c0,4.84-2.61,9.36-6.8,11.78l-17.04,9.84c-2.1,1.21-4.45,1.82-6.8,1.82ZM30.64,2.87c-1.86,0-3.71.48-5.36,1.43L8.24,14.14c-3.31,1.91-5.36,5.47-5.36,9.29v19.67c0,3.82,2.06,7.38,5.36,9.29l17.04,9.84c3.31,1.91,7.42,1.91,10.73,0l17.04-9.84c3.31-1.91,5.36-5.47,5.36-9.29v-19.67c0-3.82-2.06-7.38-5.36-9.29l-17.04-9.84c-1.65-.95-3.51-1.43-5.36-1.43Z"/><path class="cls-6" d="M17.66,33.49l13.18-13.18,13.18,13.18-13.18,13.18-13.18-13.18Z"/><path class="cls-2" d="M44.02,33.49l-13.18-13.18v26.36l13.18-13.18Z"/><g id="Gem"><path class="cls-7" d="M52.57,33.49c0,.33-.13.66-.38.89l-20.46,20.46c-.23.25-.56.38-.89.38l-2.55-7.09,2.55-5.07,9.58-9.58,4.7-2.55,7.46,2.55Z"/><path class="cls-3" d="M30.84,11.75l2.55,7.09-2.55,5.07-9.58,9.58-5.89,2.55-6.26-2.55c0-.33.13-.66.38-.89L29.95,12.14c.23-.25.56-.38.89-.38h0Z"/></g><path class="cls-4" d="M30.84,43.07v12.16c-.33,0-.66-.13-.89-.38l-20.46-20.46c-.25-.23-.38-.56-.38-.89h12.16l9.58,9.58Z"/><path class="cls-4" d="M52.57,33.49h-12.16l-9.58-9.58v-12.16c.33,0,.66.13.89.38l20.46,20.46c.25.23.38.56.38.89Z"/></g></svg>