<?xml version="1.0" encoding="UTF-8"?><svg id="_圖層_2" xmlns="http://www.w3.org/2000/svg" viewBox="0 0 25.06 27.21"><defs><style>.cls-1{fill:#dde3e8;}.cls-2{fill:#e6ffff;}.cls-3{fill:#fff;}.cls-4{fill:#bacef8;}.cls-5{fill:#cdf;}</style></defs><g id="_x30_3熱門交易者"><path class="cls-3" d="M21.88,5.21l-6.75-3.9c-1.61-.93-3.59-.93-5.2,0l-6.75,3.9c-1.61.93-2.6,2.64-2.6,4.5v7.79c0,1.86.99,3.57,2.6,4.5l6.75,3.9c1.61.93,3.59.93,5.2,0l6.75-3.9c1.61-.93,2.6-2.64,2.6-4.5v-7.79c0-1.86-.99-3.57-2.6-4.5Z"/><path class="cls-1" d="M12.53,27.21c-.96,0-1.92-.25-2.78-.74l-6.97-4.02c-1.72-.99-2.78-2.84-2.78-4.82v-8.05c0-1.98,1.07-3.83,2.78-4.82L9.75.74c1.72-.99,3.85-.99,5.56,0l6.97,4.02c1.72.99,2.78,2.84,2.78,4.82v8.05c0,1.98-1.07,3.83-2.78,4.82l-6.97,4.02c-.86.5-1.82.74-2.78.74ZM12.53,1.17c-.76,0-1.52.2-2.19.59L3.37,5.78c-1.35.78-2.19,2.24-2.19,3.8v8.05c0,1.56.84,3.02,2.19,3.8l6.97,4.02c1.35.78,3.03.78,4.39,0l6.97-4.02c1.35-.78,2.19-2.24,2.19-3.8v-8.05c0-1.56-.84-3.02-2.19-3.8L14.73,1.76c-.68-.39-1.44-.59-2.19-.59Z"/><g id="_圖層_3"><path class="cls-2" d="M12.53,2.8l-6.56,10.76,6.56,10.37,6.56-10.37L12.53,2.8Z"/><path class="cls-4" d="M12.53,2.8l-6.56,10.76h3.28l3.28-10.76Z"/><path class="cls-5" d="M5.97,13.56l6.56,10.37-3.28-10.37h-3.28Z"/><path class="cls-4" d="M19.09,13.56L12.53,2.8l3.28,10.76h3.28Z"/><path class="cls-4" d="M9.25,13.56l3.28,10.37,3.28-10.37h-6.56Z"/></g></g></svg>