<?xml version="1.0" encoding="UTF-8"?><svg id="_圖層_2" xmlns="http://www.w3.org/2000/svg" viewBox="0 0 61.28 66.54"><defs><style>.cls-1{fill:#bfbde0;}.cls-2{fill:#bab2e8;}.cls-3{fill:#4d23b5;}.cls-4{fill:#6941bf;}.cls-5{fill:#fff;}.cls-6{fill:#a35cca;}.cls-7{fill:#fefefe;}.cls-8{fill:#e5cfff;}</style></defs><g id="_x30_8使用者_x5F_VIP等級"><path class="cls-5" d="M53.49,12.74L36.99,3.22c-3.93-2.27-8.77-2.27-12.7,0L7.79,12.74c-3.93,2.27-6.35,6.46-6.35,11v19.05c0,4.54,2.42,8.73,6.35,11l16.5,9.52c3.93,2.27,8.77,2.27,12.7,0l16.5-9.52c3.93-2.27,6.35-6.46,6.35-11v-19.05c0-4.54-2.42-8.73-6.35-11Z"/><path class="cls-1" d="M30.64,66.54c-2.35,0-4.7-.61-6.8-1.82l-17.04-9.84c-4.19-2.42-6.8-6.93-6.8-11.78v-19.67c0-4.84,2.61-9.36,6.8-11.78L23.84,1.82c4.19-2.42,9.41-2.42,13.6,0l17.04,9.84c4.19,2.42,6.8,6.93,6.8,11.78v19.67c0,4.84-2.61,9.36-6.8,11.78l-17.04,9.84c-2.1,1.21-4.45,1.82-6.8,1.82ZM30.64,2.87c-1.86,0-3.71.48-5.36,1.43L8.24,14.14c-3.31,1.91-5.36,5.47-5.36,9.29v19.67c0,3.82,2.06,7.38,5.36,9.29l17.04,9.84c3.31,1.91,7.42,1.91,10.73,0l17.04-9.84c3.31-1.91,5.36-5.47,5.36-9.29v-19.67c0-3.82-2.06-7.38-5.36-9.29l-17.04-9.84c-1.65-.95-3.51-1.43-5.36-1.43Z"/><path class="cls-3" d="M51.71,21.11l-21.07-12.19-21.07,12.19v24.31l21.07,12.19,21.07-12.19v-24.31Z"/><path class="cls-4" d="M30.64,57.61l10.52-6.09L20.12,15.02l-10.55,6.09v24.31l21.07,12.19Z"/><path class="cls-8" d="M37.67,45.42l14.04-24.31h-28.11l14.07,24.31Z"/><path class="cls-2" d="M30.64,33.27l-7.03-12.15-7,12.15h14.04Z"/><path class="cls-6" d="M37.67,45.42h-14.07l7.03,12.19,7.03-12.19Z"/><path class="cls-6" d="M23.6,45.42l-7-12.15-7.03,12.15h14.04Z"/><path class="cls-2" d="M44.68,33.27l-7,12.15h14.04l-7.03-12.15Z"/><path class="cls-6" d="M37.67,21.11l-7.03-12.19-7.03,12.19h14.07Z"/><path class="cls-6" d="M23.6,21.11h-14.04l7.03,12.15,7-12.15Z"/><path class="cls-7" d="M37.67,21.11l-1.76,3.01-5.28,9.14h14.04l-7-12.15Z"/><path class="cls-2" d="M30.64,33.27l-7.03,12.15h14.07l-7.03-12.15Z"/></g></svg>