<?xml version="1.0" encoding="UTF-8"?><svg id="_圖層_2" xmlns="http://www.w3.org/2000/svg" viewBox="0 0 14.19 26.39"><defs><style>.cls-1{fill:#fff;}</style></defs><g id="_x30_5管理資金_xFF3F_資金"><path class="cls-1" d="M13.4,4.25l-2.67,2.6c-1.22-1.25-2.42-1.88-3.61-1.88-.7,0-1.27.19-1.71.56-.44.37-.66.8-.66,1.29,0,.41.19.83.58,1.23.38.41,1.14.86,2.3,1.33,2.05.85,3.45,1.57,4.21,2.17.76.6,1.34,1.32,1.74,2.16.41.84.61,1.78.61,2.82s-.22,2.01-.65,2.89c-.43.89-.99,1.59-1.67,2.1-.68.52-1.66.91-2.95,1.18v3.69h-2.6v-3.61c-1.21-.14-2.24-.44-3.08-.91-1.16-.65-2.24-1.5-3.24-2.57l2.63-2.7c1.69,1.8,3.32,2.7,4.9,2.7.8,0,1.49-.28,2.07-.84.58-.56.86-1.21.86-1.97,0-.64-.18-1.19-.55-1.67-.38-.48-1.11-.97-2.19-1.47-2.2-1.01-3.68-1.82-4.45-2.41-.77-.6-1.35-1.26-1.74-2.01-.38-.74-.57-1.53-.57-2.37,0-1.39.51-2.58,1.52-3.58,1.01-.99,2.3-1.52,3.85-1.6V0h2.6v1.56c.89.21,1.65.5,2.28.86.62.36,1.36.97,2.21,1.83Z"/></g></svg>