<?xml version="1.0" encoding="UTF-8"?><svg id="_圖層_2" xmlns="http://www.w3.org/2000/svg" viewBox="0 0 23.13 24.09"><defs><style>.cls-1{fill:#caaeff;}.cls-2{fill:#f6f3ff;}.cls-3{fill:#e6d9ff;}.cls-4{fill:#fefefe;}</style></defs><g id="_x30_3熱門交易者"><path class="cls-4" d="M7.18,12.05c-.05.06-.1.12-.16.17-1.76,1.76-3.53,3.53-5.29,5.29-.44.44-.44.89,0,1.33.6.6,1.2,1.2,1.8,1.8.51.51.94.51,1.45,0,2.62-2.62,5.24-5.24,7.85-7.85.06-.06.12-.12.18-.19.29-.33.31-.8,0-1.11-.86-.88-1.74-1.74-2.61-2.61-.02-.08-.09-.12-.15-.18-.37-.37-.75-.74-1.12-1.11-1.41-1.41-2.81-2.82-4.22-4.22-.43-.43-.89-.43-1.31,0-.63.63-1.26,1.26-1.89,1.89-.11.11-.2.22-.25.36-.14.4.02.71.3.99,1.81,1.81,3.62,3.62,5.43,5.44ZM15.67,12.05c-.06.06-.11.13-.17.19-1.76,1.76-3.51,3.51-5.27,5.27-.44.44-.45.89,0,1.33.62.62,1.24,1.24,1.86,1.86.44.43.9.43,1.33,0,.54-.54,1.09-1.09,1.63-1.63,2.12-2.12,4.23-4.23,6.35-6.35.42-.42.45-.89.06-1.28-.86-.87-1.73-1.73-2.6-2.59-.05-.05-.09-.11-.14-.16-1.76-1.76-3.53-3.52-5.29-5.29-.47-.47-.92-.47-1.39,0-.59.59-1.17,1.18-1.76,1.76-.54.54-.54.95,0,1.49,1.79,1.8,3.59,3.59,5.38,5.39ZM23.13,23.55s0,0,0,0c0-.07,0-.14,0-.21-.02-.2-.13-.34-.35-.34-.22,0-.33.13-.35.33-.01.12-.01.23,0,.35.01.25.16.41.36.4.2,0,.33-.16.35-.4,0-.05,0-.09,0-.14ZM21.04,23.54c0-.05,0-.11,0-.16-.01-.23-.13-.37-.34-.37-.2,0-.34.12-.37.35-.01.11,0,.22,0,.33,0,.25.15.41.35.41.21,0,.34-.16.35-.41,0-.05,0-.09,0-.14ZM18.25,23.54c0,.05,0,.11,0,.16.01.24.15.39.35.39.2,0,.34-.15.35-.39,0-.1,0-.2,0-.3,0-.24-.14-.39-.34-.39-.22,0-.35.14-.36.4,0,.05,0,.09,0,.14Z"/><path class="cls-1" d="M.51,0c.29.24.24.55.18.86-.03.16-.17.24-.34.24-.16,0-.29-.08-.31-.23C-.01.55-.06.24.23,0h.28Z"/><path class="cls-1" d="M2.58,0c.22.19.31.63.19.89-.07.15-.2.22-.36.19-.16-.02-.27-.11-.29-.26-.03-.29-.09-.6.18-.82h.28Z"/><path class="cls-1" d="M4.65,0c.22.18.33.63.2.89-.06.13-.17.2-.32.2-.15,0-.25-.07-.32-.2-.13-.26-.03-.71.2-.89h.24Z"/><path class="cls-3" d="M18.87,8.85c.87.86,1.74,1.72,2.6,2.59.39.4.36.86-.06,1.28-2.12,2.12-4.23,4.24-6.35,6.35-.54.54-1.09,1.09-1.63,1.63-.44.44-.9.44-1.33,0-.62-.62-1.24-1.24-1.86-1.86-.44-.44-.43-.89,0-1.33,1.76-1.76,3.51-3.51,5.27-5.27.06-.06.11-.13.17-.19.88-.87,1.75-1.74,2.62-2.61.19-.19.38-.39.57-.59Z"/><path class="cls-2" d="M10.4,8.89c.87.87,1.75,1.73,2.61,2.61.31.31.29.78,0,1.11-.06.06-.12.12-.18.19-2.62,2.62-5.23,5.24-7.85,7.85-.51.51-.94.51-1.45,0-.6-.6-1.2-1.2-1.8-1.8-.44-.44-.44-.89,0-1.33,1.76-1.76,3.53-3.53,5.29-5.29.06-.06.11-.11.16-.17.07-.06.15-.12.21-.18.92-.91,1.83-1.83,2.75-2.74.08-.08.17-.16.26-.24Z"/><path class="cls-3" d="M10.4,8.89c-.09.08-.18.15-.26.24-.92.91-1.83,1.83-2.75,2.74-.07.07-.14.12-.21.18-1.81-1.81-3.62-3.63-5.43-5.44-.28-.28-.44-.59-.3-.99.05-.14.15-.26.25-.36.63-.63,1.26-1.27,1.89-1.89.43-.42.88-.42,1.31,0,1.41,1.41,2.81,2.81,4.22,4.22.37.37.75.74,1.12,1.11.05.05.12.1.15.18Z"/><path class="cls-2" d="M18.87,8.85c-.19.2-.38.4-.57.59-.87.87-1.75,1.74-2.62,2.61-1.79-1.8-3.59-3.59-5.38-5.39-.54-.54-.54-.95,0-1.49.59-.59,1.17-1.18,1.76-1.76.47-.47.92-.47,1.39,0,1.76,1.76,3.53,3.52,5.29,5.29.05.05.09.1.14.16Z"/><path class="cls-3" d="M23.13,23.55s0,.09,0,.14c-.02.24-.15.39-.35.4-.21,0-.35-.15-.36-.4,0-.12,0-.24,0-.35.02-.21.14-.33.35-.33.22,0,.32.14.35.34,0,.07,0,.14,0,.21,0,0,0,0,0,0Z"/><path class="cls-3" d="M21.04,23.54s0,.09,0,.14c0,.25-.15.41-.35.41-.21,0-.34-.16-.35-.41,0-.11,0-.22,0-.33.02-.22.16-.35.37-.35.2,0,.32.14.34.37,0,.05,0,.11,0,.16Z"/><path class="cls-3" d="M18.25,23.54s0-.09,0-.14c0-.25.14-.4.36-.4.21,0,.33.15.34.39,0,.1,0,.2,0,.3-.01.24-.15.39-.35.39-.2,0-.34-.15-.35-.39,0-.05,0-.11,0-.16Z"/></g></svg>