<?xml version="1.0" encoding="UTF-8"?><svg id="_圖層_2" xmlns="http://www.w3.org/2000/svg" viewBox="0 0 17.25 17.25"><defs><style>.cls-1{fill:#7c8199;}</style></defs><g id="_x30_8使用者_x5F_VIP等級"><path class="cls-1" d="M16.8,2.59L14.66.44c-.28-.28-.67-.44-1.07-.44s-.79.16-1.07.44L1.58,11.38c-.09.09-.12.22-.15.3L.02,16.6c-.05.18,0,.37.13.5.1.1.23.15.36.15.05,0,.09,0,.14-.02l4.92-1.4s.23-.08.31-.15l10.94-10.94c.29-.29.44-.67.44-1.07s-.16-.79-.44-1.07M1.24,16l.95-3.3,2.36,2.36-3.3.94ZM5.51,14.6l-2.86-2.86L11.44,2.95l2.86,2.86L5.51,14.6ZM16.09,4.02l-1.07,1.07-2.86-2.86,1.07-1.07c.09-.1.22-.15.36-.15s.26.05.36.15l2.15,2.15c.2.2.2.52,0,.71"/></g></svg>