<?xml version="1.0" encoding="UTF-8"?><svg id="_圖層_2" xmlns="http://www.w3.org/2000/svg" viewBox="0 0 25 25"><defs><style>.cls-1{fill:none;}.cls-2{fill:#fff;}</style></defs><g id="_x30_1精選文章"><rect class="cls-1" width="25" height="25"/><path class="cls-2" d="M22.7,6.99l-7.18,7.18c-1.67,1.66-4.37,1.66-6.03,0L2.3,6.99c-.01.13-.04.26-.04.39v10.24c0,2.36,1.91,4.26,4.27,4.27h11.94c2.36,0,4.26-1.91,4.27-4.27V7.38c0-.13-.03-.26-.04-.39"/><path class="cls-2" d="M14.31,12.97l7.79-7.8c-.77-1.27-2.15-2.05-3.63-2.06H6.53c-1.49,0-2.86.79-3.63,2.06l7.79,7.8c1,1,2.62,1,3.62,0"/></g></svg>