<?xml version="1.0" encoding="UTF-8"?><svg id="_圖層_2" xmlns="http://www.w3.org/2000/svg" xmlns:xlink="http://www.w3.org/1999/xlink" viewBox="0 0 98.05 46.87"><defs><style>.cls-1,.cls-2{fill:none;}.cls-3{fill:#fde05a;}.cls-3,.cls-4,.cls-5,.cls-6,.cls-7{fill-rule:evenodd;}.cls-4{fill:#fee05a;}.cls-5{fill:#41479a;}.cls-6{fill:#f4f4f4;}.cls-2{stroke:#898989;stroke-miterlimit:10;}.cls-7{fill:#fe4b55;}.cls-8{clip-path:url(#clippath);}</style><clipPath id="clippath"><rect class="cls-1" x=".79" y="5.33" width="93.16" height="36.11" rx="8" ry="8"/></clipPath></defs><g id="_x30_4趨勢資產"><g class="cls-8"><path class="cls-6" d="M98.05,4.95v37.59c-.18.61-.65.82-1.23.88-.29.03-.58.02-.87.02h-55.21c-.29,0-.58,0-.87-.02-.58-.06-1.05-.27-1.23-.88V4.95c.18-.61.65-.82,1.23-.88.29-.03.58-.02.87-.02,18.4,0,36.8,0,55.21,0,.29,0,.58,0,.87.02.58.06,1.05.26,1.23.88Z"/><path class="cls-7" d="M68.37,12.49c6.21.01,11.24,5.06,11.23,11.27,0,6.23-5.08,11.28-11.31,11.25-6.21-.03-11.23-5.09-11.21-11.3.02-6.21,5.07-11.23,11.28-11.22Z"/><path class="cls-5" d="M23.48,46.87c-7.67,0-15.34,0-23.02,0-.29,0-.38-.03-.38-.36.01-15.36.01-30.72,0-46.08C.08.14.16.08.43.08c15.36,0,30.72,0,46.08,0,.34,0,.36.11.36.39,0,15.34,0,30.69,0,46.03,0,.32-.07.37-.38.37-7.67-.01-15.34,0-23.02,0Z"/><path class="cls-3" d="M36,18.6c-.02.22-.13.26-.31.14-.23-.15-.46-.3-.67-.48-.2-.17-.35-.17-.55,0-.21.18-.44.32-.67.48-.06.04-.13.09-.21.05-.1-.05-.1-.15-.08-.24.06-.23.11-.48.21-.7.16-.33.06-.54-.24-.71-.17-.1-.32-.23-.48-.35-.09-.07-.23-.14-.17-.28.05-.13.2-.14.32-.12.83.16,1.28-.17,1.38-1.01.01-.12.07-.26.22-.26.15,0,.2.15.21.26.09.85.57,1.15,1.38,1,.11-.02.26-.01.31.13.05.13-.06.21-.15.25-.79.37-.99.92-.55,1.69.02.04.02.09.03.13Z"/><path class="cls-4" d="M14.24,18.53c.02.12.01.19-.05.24-.09.07-.17.02-.25-.03-.22-.16-.46-.3-.66-.48-.2-.17-.35-.16-.55,0-.19.17-.41.31-.63.45-.08.06-.18.14-.28.05-.07-.07-.06-.17-.04-.26.07-.25.13-.5.23-.74.11-.26.04-.42-.19-.57-.22-.14-.42-.3-.62-.46-.07-.05-.15-.12-.12-.22.03-.1.13-.12.22-.12.26-.01.52-.03.77,0,.3.03.44-.1.51-.38.05-.22.14-.43.21-.65.03-.1.07-.22.19-.23.16-.01.18.14.22.24.08.2.16.4.2.6.06.34.25.44.57.41.23-.02.46,0,.68,0,.11,0,.22.01.25.15.02.1-.05.17-.13.22-.19.15-.38.31-.59.43-.29.16-.3.36-.19.64.1.24.16.49.23.7Z"/><path class="cls-4" d="M36.24,21.68c.12.03.18.12.2.23.1.87.57,1.22,1.43,1.04.11-.02.23,0,.28.11.07.14-.06.24-.16.29-.77.37-.97.9-.54,1.66.05.1.09.25-.04.33-.11.07-.2-.02-.29-.08-.01,0-.03-.02-.04-.03-.57-.64-1.13-.59-1.7,0-.08.08-.19.18-.32.09-.12-.09-.08-.23-.02-.33.44-.76.2-1.28-.55-1.65-.09-.05-.19-.12-.16-.25.03-.15.17-.17.29-.15.87.18,1.32-.19,1.43-1.05.01-.1.07-.2.2-.22Z"/><path class="cls-4" d="M31.19,14.2c-.19-.13-.43-.26-.63-.44-.29-.27-.52-.23-.82,0-.23.17-.49.57-.74.38-.25-.18.03-.56.14-.82.18-.42,0-.62-.32-.84-.21-.14-.62-.26-.54-.53.1-.32.52-.18.77-.14.54.08.66-.23.79-.64.07-.23.04-.62.34-.62.26,0,.27.38.31.59.1.54.37.74.9.65.13-.02.27,0,.41,0,.11,0,.22,0,.27.12.04.12-.04.21-.13.26-.83.37-.95.96-.55,1.73.1.19.01.29-.18.3Z"/><path class="cls-4" d="M32.07,33.74c-.03.16-.17.21-.28.29q-.74.56-.47,1.43c.02.07.04.14.07.22.03.09.04.18-.05.25-.09.07-.18.02-.25-.03-.2-.14-.41-.26-.59-.42-.25-.23-.46-.21-.7,0-.17.15-.36.27-.55.4-.08.06-.18.14-.28.03-.08-.08-.05-.16-.03-.25.08-.25.13-.5.23-.74.12-.27.03-.42-.19-.56-.22-.14-.42-.3-.62-.46-.07-.06-.14-.13-.11-.23.04-.1.13-.12.22-.13.02,0,.03,0,.05,0,.85.17,1.34-.16,1.44-1.03.01-.11.06-.22.19-.23.13-.01.19.1.2.21.11.89.6,1.23,1.47,1.06.12-.02.25.02.25.19Z"/><path class="cls-4" d="M10.06,25.36c-.17,0-.25-.12-.18-.24.45-.82.29-1.43-.58-1.83-.09-.04-.12-.14-.07-.24.04-.09.14-.11.23-.11.27,0,.55-.02.82,0,.22.01.33-.07.39-.28.07-.26.17-.52.26-.78.03-.1.07-.22.2-.21.11,0,.17.1.18.18.1.92.62,1.25,1.5,1.08.09-.02.19.03.23.12.05.12-.04.21-.14.25-.82.37-.98.96-.56,1.73.05.09.06.22-.06.28-.09.05-.19,0-.25-.06-.6-.64-1.2-.67-1.81,0-.04.04-.1.06-.15.09Z"/><path class="cls-4" d="M16.69,34.66c0-.14-.1-.18-.19-.24-.19-.15-.39-.29-.58-.44-.1-.08-.27-.14-.22-.31.06-.19.24-.14.39-.14.21,0,.43-.02.64,0,.26.03.39-.08.45-.32.06-.25.15-.49.24-.73.03-.1.07-.22.21-.2.1,0,.16.1.17.19.11.87.57,1.26,1.46,1.08.11-.02.22.01.27.12.05.12-.05.21-.14.25-.79.36-.99.92-.56,1.69.05.09.07.21-.02.3-.13.11-.24.01-.32-.07-.58-.62-1.16-.61-1.74,0-.08.08-.19.18-.32.07-.11-.1-.05-.22-.01-.34.1-.3.19-.61.29-.91Z"/><path class="cls-4" d="M17.61,10.52c.12.02.17.12.19.22.1.87.56,1.23,1.43,1.05.11-.02.23,0,.28.11.07.15-.05.24-.16.29-.76.37-.98.9-.55,1.66.05.1.09.25-.04.33-.13.08-.25-.02-.32-.1-.58-.64-1.13-.58-1.7.01-.08.08-.2.17-.32.08-.12-.09-.08-.23-.02-.33.4-.72.27-1.27-.51-1.62-.1-.05-.23-.13-.2-.27.04-.18.21-.17.34-.14.84.18,1.25-.19,1.36-1.01.03-.2.13-.26.22-.26Z"/><path class="cls-4" d="M11.81,30.94c.54-.71.15-1.23-.61-1.63-.08-.04-.15-.12-.12-.23.03-.1.13-.14.22-.12.88.16,1.4-.16,1.51-1.08,0-.08.06-.18.17-.19.14-.01.19.1.21.2.11.88.58,1.26,1.47,1.07.1-.02.22,0,.25.13.02.1-.04.19-.12.23-.83.38-1,.97-.56,1.76.04.08.04.19-.05.25-.09.06-.19.03-.25-.03-.62-.66-1.23-.66-1.85,0-.07.07-.17.09-.25.04-.08-.06-.07-.16-.02-.38Z"/><path class="cls-4" d="M36,31.17c-.03.24-.18.21-.32.12-.23-.15-.46-.3-.67-.48-.18-.15-.33-.15-.52,0-.21.17-.44.32-.67.48-.08.06-.17.09-.25.03-.08-.06-.08-.18-.04-.25.44-.8.24-1.38-.58-1.76-.08-.04-.15-.12-.11-.23.03-.1.13-.14.22-.12.88.16,1.41-.16,1.51-1.08,0-.08.06-.18.17-.19.14-.01.19.1.21.2.11.88.58,1.26,1.47,1.07.1-.02.23,0,.26.13.03.13-.06.21-.16.25-.8.37-.97.93-.53,1.69.02.04.02.09.03.14Z"/><path class="cls-4" d="M22.63,12.8c-.19-.01-.23-.11-.19-.25.07-.25.13-.5.23-.74.12-.27.08-.45-.18-.6-.21-.12-.4-.28-.59-.43-.08-.06-.18-.13-.13-.26.04-.11.14-.12.23-.1.9.17,1.39-.19,1.5-1.1,0-.09.07-.17.18-.17.11,0,.15.08.18.17.01.04.04.08.05.13.1.82.55,1.13,1.36.97.11-.02.26-.05.31.11.05.14-.06.24-.17.29-.79.36-.93.92-.52,1.66.05.09.09.21-.01.29-.12.1-.24.03-.32-.06-.58-.62-1.16-.63-1.74,0-.05.05-.13.08-.18.11Z"/><path class="cls-4" d="M22.63,37.91c-.22-.02-.23-.14-.18-.29.08-.26.14-.53.25-.78.09-.23.03-.36-.17-.49-.23-.15-.44-.32-.66-.48-.07-.06-.14-.13-.11-.23.03-.11.14-.13.22-.11.89.16,1.4-.18,1.51-1.1.01-.09.07-.17.18-.18.11,0,.16.08.19.17.02.06.04.11.06.17q.32.89,1.29.93c.13,0,.3-.06.36.11.06.17-.09.26-.21.31-.76.35-.88.88-.5,1.59.06.1.12.24,0,.34-.12.11-.24.02-.32-.06-.58-.62-1.15-.64-1.74,0-.05.05-.13.08-.18.11Z"/><line class="cls-2" x1="47.37" y1="5.33" x2="47.37" y2="41.44"/></g></g></svg>