<?xml version="1.0" encoding="UTF-8"?><svg id="_圖層_2" xmlns="http://www.w3.org/2000/svg" viewBox="0 0 33.56 19.96"><defs><style>.cls-1{fill:#d9d6e5;}</style></defs><g id="_x31_5使用者註冊"><path class="cls-1" d="M33.46,9.63c-1.66-2.88-4.05-5.29-6.92-6.97-2.95-1.74-6.33-2.66-9.77-2.66s-6.82.92-9.77,2.66C4.15,4.34,1.76,6.76.09,9.63c-.13.22-.13.48,0,.7,1.66,2.88,4.05,5.29,6.92,6.97,2.95,1.74,6.33,2.66,9.77,2.66s6.82-.92,9.77-2.66c2.86-1.69,5.25-4.1,6.92-6.97.13-.22.13-.48,0-.7ZM25.83,16.1c-2.73,1.61-5.87,2.46-9.06,2.46s-6.32-.85-9.06-2.46c-2.54-1.5-4.68-3.61-6.21-6.12,1.53-2.51,3.67-4.62,6.21-6.12,2.73-1.61,5.87-2.46,9.06-2.46s6.32.85,9.06,2.46c2.54,1.5,4.68,3.61,6.21,6.12-1.53,2.51-3.67,4.62-6.21,6.12Z"/><path class="cls-1" d="M16.78,3.7c-3.46,0-6.28,2.82-6.28,6.28s2.82,6.28,6.28,6.28,6.28-2.82,6.28-6.28-2.82-6.28-6.28-6.28ZM16.78,14.86c-2.69,0-4.88-2.19-4.88-4.88s2.19-4.88,4.88-4.88,4.88,2.19,4.88,4.88c0,2.69-2.19,4.88-4.88,4.88Z"/></g></svg>