<?xml version="1.0" encoding="UTF-8"?><svg id="_圖層_2" xmlns="http://www.w3.org/2000/svg" viewBox="0 0 31.52 31.52"><defs><style>.cls-1{fill:#1877f2;}.cls-2{fill:#fff;}</style></defs><g id="_x31_5使用者註冊"><path class="cls-1" d="M31.52,15.76c0,7.87-5.76,14.39-13.3,15.57v-11.01h3.67l.7-4.56h-4.37v-2.96c0-1.25.61-2.46,2.57-2.46h1.99v-3.88s-1.8-.31-3.53-.31c-3.6,0-5.95,2.18-5.95,6.13v3.47h-4v4.56h4v11.01C5.76,30.15,0,23.63,0,15.76,0,7.06,7.06,0,15.76,0s15.76,7.06,15.76,15.76Z"/><path class="cls-2" d="M21.9,20.32l.7-4.56h-4.37v-2.96c0-1.25.61-2.46,2.57-2.46h1.99v-3.88s-1.8-.31-3.53-.31c-3.6,0-5.95,2.18-5.95,6.13v3.47h-4v4.56h4v11.01c.8.13,1.62.19,2.46.19s1.66-.07,2.46-.19v-11.01h3.67Z"/></g></svg>