<?xml version="1.0" encoding="UTF-8"?><svg id="_圖層_2" xmlns="http://www.w3.org/2000/svg" viewBox="0 0 20 20"><defs><style>.cls-1{fill:none;}.cls-2{fill:#542b87;fill-rule:evenodd;}</style></defs><g id="_x30_1精選文章"><path class="cls-2" d="M7.97,10.85h-2.97v-3.43h2.95c0-.73-.02-1.42,0-2.11.03-.66.04-1.34.2-1.98.42-1.67,1.67-2.71,3.4-2.93,1.14-.15,2.28-.03,3.44.07v3.08c-.32,0-.62,0-.91,0-.35,0-.71,0-1.06.02-1.12.07-1.5.47-1.52,1.58,0,.74,0,1.48,0,2.27h3.4c-.15,1.17-.3,2.29-.44,3.43h-2.94v8.82h-3.55v-8.82Z"/><rect class="cls-1" width="20" height="20"/></g></svg>