<?xml version="1.0" encoding="UTF-8"?><svg id="_圖層_2" xmlns="http://www.w3.org/2000/svg" viewBox="0 0 15.01 15.1"><defs><style>.cls-1{fill:#fff;fill-rule:evenodd;}</style></defs><g id="_x30_1精選文章"><path class="cls-1" d="M4.01,10.25c-.15-.14-.29-.28-.43-.41-.99-.99-1.98-1.98-2.97-2.97-.34-.34-.34-.67.02-.99.54-.49,1.2-.72,1.91-.81.87-.11,1.74-.04,2.59.13.11.02.18,0,.25-.08.53-.54,1.06-1.07,1.6-1.6.03-.04.07-.07.13-.15-.13-.12-.26-.23-.38-.35-.32-.32-.32-.64,0-.96.6-.6,1.21-1.21,1.81-1.81.34-.34.65-.34,1,0,1.73,1.73,3.47,3.47,5.21,5.2.3.29.31.63.19.99-.02.05-.06.09-.1.13-.6.61-1.21,1.21-1.81,1.81-.31.3-.63.3-.94,0-.12-.12-.24-.25-.36-.38-.05.05-.09.08-.13.11-.54.54-1.08,1.08-1.62,1.62-.06.06-.08.12-.07.21.15.77.23,1.55.17,2.34-.07.84-.29,1.62-.89,2.25-.22.23-.48.27-.75.11-.08-.05-.15-.11-.22-.18-1.07-1.07-2.15-2.15-3.22-3.22-.04-.04-.07-.1-.11-.16-.08.07-.12.11-.16.15-1.21,1.21-2.43,2.42-3.64,3.64-.19.2-.42.25-.68.18-.22-.06-.35-.23-.4-.46-.05-.23.05-.41.21-.57.51-.51,1.02-1.02,1.52-1.52.71-.71,1.42-1.42,2.14-2.14.03-.04.07-.07.13-.13Z"/></g></svg>