<?xml version="1.0" encoding="UTF-8"?><svg id="_圖層_2" xmlns="http://www.w3.org/2000/svg" viewBox="0 0 32.4 37.24"><defs><style>.cls-1{fill:#fff;fill-rule:evenodd;}.cls-2{fill:#592d90;}</style></defs><g id="_x30_2發現市場"><polygon class="cls-2" points="0 9.31 16.2 0 32.4 9.31 32.4 27.93 16.2 37.24 0 27.93 0 9.31"/><path class="cls-1" d="M11.42,21.42c.06-.37.09-.74.17-1.11.32-1.46.99-2.72,2.21-3.65.56-.42,1.18-.69,1.9-.79v.18c0,.87,0,1.74,0,2.6,0,1.01.16,1.99.4,2.97.28,1.15.27,2.31.09,3.48-.14.89-.26,1.79-.39,2.69,0,.05-.02.1-.03.16-.53-.05-1.01-.22-1.46-.47-1.02-.57-1.72-1.44-2.22-2.48-.37-.77-.57-1.59-.64-2.44,0-.05-.02-.1-.03-.14v-1Z"/><path class="cls-1" d="M28.4,21.65c-.05.28-.08.57-.15.85-.46,1.9-1.56,3.35-3.18,4.4-1.13.74-2.37,1.12-3.73,1.05-.57-.03-1.11-.16-1.65-.41.04-.04.07-.08.1-.11.46-.45.83-.96,1.16-1.51.07-.12.16-.23.27-.31,1.07-.79,2.01-1.7,2.69-2.85.59-.99,1.31-1.87,2.14-2.66.46-.44.91-.9,1.36-1.36.04-.04.06-.1.11-.17.35.45.57.9.7,1.39.07.28.12.57.17.86v.83Z"/><path class="cls-1" d="M16.71,15.85c.27.07.54.13.79.22,1.04.37,1.81,1.08,2.39,1.99.89,1.38,1.19,2.9,1.06,4.51-.1,1.2-.46,2.32-1.14,3.31-.68.98-1.55,1.7-2.74,1.99-.09.02-.17.04-.28.06.04-.31.09-.59.13-.88.13-.94.28-1.88.37-2.83.11-1.13-.04-2.24-.33-3.33-.17-.67-.25-1.35-.26-2.03,0-.95,0-1.89,0-2.84,0-.04,0-.09.01-.17Z"/><path class="cls-1" d="M21.03,18c1.91-1.15,4.32-1.26,5.82-.1-.04.04-.08.09-.12.13-.61.61-1.22,1.22-1.83,1.83-.63.63-1.18,1.32-1.63,2.08-.38.65-.83,1.24-1.36,1.77-.04.04-.08.07-.14.13.42-2.05.22-3.99-.74-5.84Z"/><path class="cls-1" d="M11.48,9.9c.35.04.7.08,1.05.14.97.16,1.89.46,2.69,1.03.23.17.45.36.64.58.73.83.7,1.85-.05,2.66-.56.6-1.27.95-2.03,1.2-1.51.49-3.06.54-4.62.28-.94-.16-1.84-.45-2.64-1-.52-.36-.93-.79-1.1-1.42-.02-.06-.03-.11-.05-.17v-.46c.17-.8.69-1.34,1.35-1.76.79-.5,1.67-.77,2.58-.93.34-.06.68-.09,1.01-.13h1.16Z"/><path class="cls-1" d="M5.38,15.14c1.25,1.11,2.77,1.55,4.39,1.73.83.09,1.66.08,2.53-.03-.12.13-.21.23-.3.34-.42.48-.76,1.01-1.02,1.6-.05.11-.1.15-.22.14-1.29-.03-2.55-.25-3.71-.84-.5-.26-.95-.59-1.29-1.04-.19-.26-.3-.56-.38-.87v-1.03Z"/><path class="cls-1" d="M5.38,21.11c.5.44,1.05.8,1.67,1.05,1.03.43,2.11.65,3.22.71.32.02.33.01.41.32.16.54.38,1.06.67,1.54.02.04.04.07.07.13-.14,0-.27.02-.39.02-1.32,0-2.61-.19-3.81-.76-.56-.27-1.07-.61-1.45-1.12-.2-.26-.3-.56-.38-.87v-1.03Z"/><path class="cls-1" d="M5.38,18.12c.52.47,1.11.83,1.76,1.09.99.4,2.02.6,3.07.67.1,0,.2.01.3.02.02,0,.04,0,.08.02-.14.64-.22,1.28-.15,1.97-.29-.03-.57-.04-.85-.08-1.01-.13-1.98-.39-2.86-.93-.41-.24-.78-.53-1.03-.94-.14-.24-.23-.52-.33-.78v-1.03Z"/></g></svg>