<?xml version="1.0" encoding="UTF-8"?><svg id="_圖層_2" xmlns="http://www.w3.org/2000/svg" viewBox="0 0 25 25"><defs><style>.cls-1{fill:none;}.cls-2{fill:#fff;}</style></defs><g id="_x30_1精選文章"><rect class="cls-1" width="25" height="25"/><path class="cls-2" d="M12.5,24.45c-.51,0-.97-.31-1.15-.78l-2.01-8-8-2.01c-.47-.19-.78-.65-.78-1.16s.31-.97.78-1.15l8-2.01,2.01-8c.19-.47.65-.78,1.15-.78s.97.31,1.16.78l2.01,8,8,2.01c.47.19.78.65.78,1.15s-.31.97-.78,1.16l-8,2.01-2.01,8c-.19.47-.65.78-1.16.78h0ZM5.76,8.18l1.93-.49.49-1.92-1.83-1.13c-.49-.21-1.06-.1-1.43.28-.38.37-.49.94-.28,1.43l1.12,1.83h0ZM17.31,7.69l1.89.48,1.16-1.82c.21-.49.1-1.06-.28-1.43s-.94-.48-1.43-.28l-1.83,1.1.49,1.95h0ZM7.69,17.31l-1.94-.49-1.11,1.84c-.21.49-.1,1.05.28,1.43.38.38.94.48,1.43.28l1.82-1.15-.48-1.91h0ZM19.22,16.83l-1.91.48-.49,1.91,1.83,1.14c.17.07.34.1.51.1.34,0,.67-.13.92-.38.38-.37.49-.94.28-1.43l-1.14-1.83h0Z"/></g></svg>