<?xml version="1.0" encoding="UTF-8"?><svg id="_圖層_2" xmlns="http://www.w3.org/2000/svg" viewBox="0 0 32.4 37.24"><defs><style>.cls-1{fill:none;stroke:#fff;stroke-miterlimit:10;}.cls-2,.cls-3{fill:#fff;}.cls-4{fill:#592d90;}.cls-3{font-family:CenturyGothic-Bold, 'Century Gothic';font-size:6.3px;font-weight:700;letter-spacing:-.04em;}</style></defs><g id="_x30_2發現市場"><polygon class="cls-4" points="0 9.31 16.2 0 32.4 9.31 32.4 27.93 16.2 37.24 0 27.93 0 9.31"/><rect class="cls-1" x="4.05" y="11.27" width="24.3" height="16.2"/><path class="cls-1" d="M7.27,10.92c0,1.95-1.58,3.52-3.52,3.52"/><path class="cls-1" d="M3.75,24.04c1.94,0,3.52,1.58,3.52,3.52"/><path class="cls-1" d="M24.88,27.56c0-1.94,1.58-3.52,3.52-3.52"/><path class="cls-1" d="M28.4,14.44c-1.94,0-3.52-1.58-3.52-3.52"/><path class="cls-1" d="M20.6,17.1c0-2.43-1.97-4.4-4.4-4.4s-4.4,1.97-4.4,4.4,1.97,4.4,4.4,4.4,4.4-1.97,4.4-4.4Z"/><text class="cls-3" transform="translate(14.42 19.37)"><tspan x="0" y="0">$</tspan></text><rect class="cls-2" x="9" y="23.42" width="14.4" height="1.8"/></g></svg>