<?xml version="1.0" encoding="UTF-8"?><svg id="_圖層_2" xmlns="http://www.w3.org/2000/svg" viewBox="0 0 32.4 37.24"><defs><style>.cls-1{fill:#fff;fill-rule:evenodd;}.cls-2{fill:#592d90;}</style></defs><g id="_x30_2發現市場"><polygon class="cls-2" points="0 9.31 16.2 0 32.4 9.31 32.4 27.93 16.2 37.24 0 27.93 0 9.31"/><path class="cls-1" d="M5.85,11.63c.09-.19.23-.25.44-.25,1.21,0,2.42,0,3.62,0,.27,0,.43.13.43.35,0,.21-.17.34-.44.34-1.19,0-2.39,0-3.58,0-.21,0-.37-.06-.47-.24v-.2Z"/><path class="cls-1" d="M26.58,25.65c-.09.18-.23.25-.44.25-1.2,0-2.4,0-3.6,0-.03,0-.07,0-.1,0-.2-.01-.34-.14-.35-.33,0-.19.13-.34.34-.36.13,0,.26,0,.38,0,1.09,0,2.19,0,3.28,0,.22,0,.38.05.49.24v.2Z"/><path class="cls-1" d="M16.22,24.17c-3.04,0-5.51-2.46-5.53-5.52-.02-3.04,2.47-5.54,5.53-5.54,3.05,0,5.51,2.46,5.53,5.52.02,3.04-2.47,5.54-5.53,5.54ZM18.12,19.42c.06.12.1.19.13.26.25.51.5,1.01.76,1.52.1.2.3.26.48.17.17-.09.22-.27.14-.47-.02-.05-.05-.1-.07-.15-.32-.64-.63-1.28-.96-1.91-.07-.14-.07-.25,0-.39.34-.66.67-1.32.99-1.99.12-.25.08-.44-.12-.54-.2-.1-.37-.02-.5.23-.26.51-.51,1.02-.77,1.54-.02.05-.06.1-.1.17-.29-.59-.57-1.15-.86-1.71-.05-.1-.16-.22-.27-.24-.1-.02-.25.04-.34.11-.12.11-.1.27-.02.41.34.69.68,1.38,1.03,2.06.06.12.06.2,0,.32-.24.46-.47.93-.7,1.39-.11.23-.23.46-.34.69-.1.21-.04.4.14.48.18.09.36.02.47-.18.05-.09.09-.18.14-.27.24-.49.49-.97.75-1.5ZM13.46,16.57h.24c.59,0,1.17,0,1.76,0,.19,0,.34-.06.39-.25.07-.24-.1-.44-.38-.44-.74,0-1.47,0-2.21,0-.41,0-.5.09-.5.49,0,1.51,0,3.02,0,4.54,0,.07,0,.14,0,.2.03.17.13.27.29.29.18.02.3-.06.36-.23.02-.07.03-.16.03-.24,0-.57,0-1.15,0-1.72v-.22h.46c.52,0,1.04,0,1.56,0,.31,0,.48-.25.36-.5-.08-.16-.23-.2-.39-.19-.59,0-1.17,0-1.76,0-.07,0-.14,0-.22-.01v-1.71Z"/><path class="cls-1" d="M8.28,12.76c.58,0,1.15,0,1.71,0,.57,0,1.02-.45,1.04-1,.02-.57-.42-1.05-1-1.06-.51-.01-1.01,0-1.52,0h-.24c0-.14-.01-.27,0-.39.02-.17.12-.27.29-.29.08,0,.16,0,.24,0,4.56,0,9.13,0,13.69,0h.28c0-.35-.01-.69,0-1.02,0-.11.05-.26.13-.33.13-.1.25.02.34.12.93.9,1.87,1.8,2.8,2.7.23.22.23.31,0,.53-.93.89-1.85,1.77-2.78,2.66-.01.01-.03.03-.04.04-.11.04-.23.13-.31.1-.08-.03-.14-.19-.14-.29-.02-.34,0-.69,0-1.05h-.23c-.9,0-1.81,0-2.71,0-.11,0-.24-.04-.34-.09-2.19-1.27-4.38-1.27-6.57,0-.1.06-.22.1-.34.1-1.26,0-2.52,0-3.79,0-.46,0-.55-.08-.54-.54,0-.04,0-.08,0-.15Z"/><path class="cls-1" d="M9.65,27.28c0,.38,0,.72,0,1.06,0,.1-.06.26-.13.28-.09.03-.24-.02-.31-.09-.96-.91-1.92-1.82-2.87-2.74-.18-.18-.18-.28,0-.46.95-.92,1.9-1.84,2.86-2.75.07-.07.23-.14.31-.11.08.03.14.19.15.29.02.34,0,.69,0,1.06h.23c.9,0,1.81,0,2.71,0,.11,0,.24.04.34.09,2.19,1.27,4.38,1.27,6.57,0,.1-.06.22-.1.34-.1,1.26,0,2.52,0,3.79,0,.47,0,.55.08.54.56,0,.03,0,.07,0,.13h-.19c-.49,0-.99,0-1.48,0-.62,0-1.08.45-1.08,1.04,0,.58.46,1.02,1.07,1.03.55,0,1.1,0,1.68,0,0,.15.01.28,0,.41-.02.16-.13.25-.28.27-.08.01-.16,0-.24,0h-13.98Z"/></g></svg>