<?xml version="1.0" encoding="UTF-8"?><svg id="_圖層_2" xmlns="http://www.w3.org/2000/svg" viewBox="0 0 32.4 37.24"><defs><style>.cls-1{fill:#fff;fill-rule:evenodd;}.cls-2{fill:#592d90;}</style></defs><g id="_x30_2發現市場"><polygon class="cls-2" points="0 9.31 16.2 0 32.4 9.31 32.4 27.93 16.2 37.24 0 27.93 0 9.31"/><path class="cls-1" d="M10.93,29.28c-.4-.12-.81-.22-1.19-.37-2.32-.89-3.78-2.54-4.35-4.9-.57-2.35-.17-4.56,1.25-6.55,1.18-1.65,2.84-2.56,4.88-2.79,1.52-.17,2.99-.02,4.38.64,1.72.82,2.87,2.16,3.53,3.89.76,2.01.76,4.03-.1,6.02-.93,2.12-2.59,3.41-4.86,3.97-.09.02-.17.05-.26.08h-.21c-.05-.1-.15-.2-.15-.3-.01-1.86-.02-3.73-.02-5.59,0-.21.08-.29.3-.29.26,0,.51.02.77,0,.12-.01.29-.08.35-.18.05-.09.02-.26-.04-.36-.66-1.05-1.32-2.09-2-3.13-.12-.18-.25-.36-.4-.51-.17-.17-.33-.17-.5,0-.14.15-.26.31-.37.48-.68,1.05-1.35,2.1-2.02,3.16-.06.1-.09.27-.04.36.05.09.21.16.33.17.22.03.44,0,.66,0,.25,0,.32.07.32.31,0,1.84,0,3.67.02,5.51,0,.16-.04.28-.19.36h-.09Z"/><path class="cls-1" d="M20.65,7.91c.37.12.75.21,1.11.36,2.9,1.21,4.61,3.33,5.03,6.39.49,3.6-1.73,7.11-5.22,8.35-.06.02-.12.04-.21.06,0-.14.02-.26.02-.38.14-1.81-.26-3.51-1.2-5.08-.07-.12-.06-.2.01-.31.49-.75.98-1.5,1.47-2.25.09-.13.18-.26.09-.42-.09-.17-.26-.17-.43-.17-.2,0-.4,0-.6,0-.31,0-.42-.1-.42-.42,0-.31,0-.63,0-.94,0-1.58,0-3.16-.01-4.73,0-.23.06-.39.3-.46h.04Z"/><path class="cls-1" d="M17.28,7.91c.17.09.22.23.22.41,0,1.9,0,3.8.01,5.69,0,.4-.31.57-.67.38-1.56-.84-3.23-1.18-5-1.05-.21.01-.42.04-.65.07.2-.71.5-1.36.89-1.97,1.15-1.78,2.77-2.94,4.86-3.48.05-.01.09-.03.14-.05h.21Z"/></g></svg>