<?xml version="1.0" encoding="UTF-8"?><svg id="_圖層_2" xmlns="http://www.w3.org/2000/svg" viewBox="0 0 32.4 37.24"><defs><style>.cls-1{fill:#fff;fill-rule:evenodd;}.cls-2{fill:#592d90;}</style></defs><g id="_x30_2發現市場"><polygon class="cls-2" points="0 9.31 16.2 0 32.4 9.31 32.4 27.93 16.2 37.24 0 27.93 0 9.31"/><path class="cls-1" d="M15.34,7.38h1.3c.16.02.31.04.47.05,2.55.29,4.79,1.26,6.6,3.09,3.19,3.24,4.21,7.11,2.79,11.43-1.36,4.15-4.35,6.61-8.64,7.47-.4.08-.81.11-1.22.17h-1.3c-.06-.01-.13-.03-.19-.04-1.38-.1-2.7-.43-3.93-1.04-3.38-1.69-5.45-4.39-6.16-8.11-.08-.42-.12-.84-.17-1.26v-1.3c.01-.06.03-.12.04-.19.11-1.55.52-3.02,1.27-4.37,1.73-3.13,4.35-5.04,7.86-5.72.42-.08.86-.12,1.28-.18ZM6.72,18.49c.01,5.11,4.16,9.25,9.26,9.25,5.11,0,9.25-4.15,9.25-9.26,0-5.1-4.17-9.26-9.26-9.25-5.11.01-9.26,4.17-9.25,9.26Z"/><path class="cls-1" d="M15.89,22.86h-.81v1.95h-1.21v-1.96h-2.33v-1.28h.74c.49,0,.63-.14.63-.63,0-1.73,0-3.47,0-5.2,0-.39-.12-.52-.52-.54-.32-.01-.64,0-.97,0v-1.26h2.41v-1.91h1.2v1.9h.81v-1.89h1.21v1.02c0,.24,0,.48,0,.72,0,.15.04.21.2.23.66.07,1.3.25,1.88.6,1.15.69,1.11,2.23.29,3.03-.12.11-.25.21-.38.32.22.11.46.2.65.34.83.59,1.06,1.43.88,2.39-.23,1.25-1.03,1.96-2.37,2.12-.36.04-.73.06-1.12.08v1.94h-1.18v-1.94ZM15.04,21.44c.47,0,.92,0,1.37,0,.12,0,.23,0,.35-.01.46-.06.89-.17,1.22-.53.45-.5.41-1.33-.09-1.68-.13-.09-.28-.16-.43-.2-.79-.25-1.6-.1-2.41-.15v2.58ZM15.04,17.62c.54,0,1.06.02,1.58-.01.2-.01.42-.12.59-.24.4-.29.53-.71.46-1.19-.07-.45-.39-.66-.79-.79-.6-.19-1.21-.11-1.83-.13v2.36Z"/></g></svg>