<?xml version="1.0" encoding="UTF-8"?><svg id="_圖層_2" xmlns="http://www.w3.org/2000/svg" xmlns:xlink="http://www.w3.org/1999/xlink" viewBox="0 0 32.4 37.24"><defs><style>.cls-1{fill:url(#linear-gradient);}.cls-2{fill:#fff;}</style><linearGradient id="linear-gradient" x1="-3994.87" y1="-8494.32" x2="-4020.38" y2="-8519.83" gradientTransform="translate(-8490.88 4026.24) rotate(90)" gradientUnits="userSpaceOnUse"><stop offset="0" stop-color="#592d90"/><stop offset="1" stop-color="#b827fe"/></linearGradient></defs><g id="_x30_2發現市場"><polygon class="cls-1" points="0 9.31 16.2 0 32.4 9.31 32.4 27.93 16.2 37.24 0 27.93 0 9.31"/><path class="cls-2" d="M20.63,10.79c-2.24,0-3.68,1.47-4.43,2.78-.75-1.32-2.19-2.78-4.43-2.78-2.84,0-5.02,2.18-5.02,5.06,0,3.13,2.73,5.26,6.81,8.49,2,1.58,2.13,1.7,2.64,2.12.42-.34.66-.54,2.64-2.12,4.08-3.23,6.81-5.36,6.81-8.49,0-2.89-2.18-5.06-5.02-5.06Z"/></g></svg>