<?xml version="1.0" encoding="UTF-8"?><svg id="_圖層_2" xmlns="http://www.w3.org/2000/svg" viewBox="0 0 32.4 37.24"><defs><style>.cls-1{fill:#fff;}.cls-2{fill:#592d90;}</style></defs><g id="_x30_2發現市場"><polygon class="cls-2" points="0 9.31 16.2 0 32.4 9.31 32.4 27.93 16.2 37.24 0 27.93 0 9.31"/><path class="cls-1" d="M4.71,20.88l2.33-.23c.14.78.42,1.36.85,1.72.43.37,1.01.55,1.74.55.77,0,1.35-.16,1.74-.49.39-.33.59-.71.59-1.14,0-.28-.08-.52-.25-.72-.16-.2-.45-.37-.86-.51-.28-.1-.92-.27-1.92-.52-1.28-.32-2.19-.71-2.7-1.17-.73-.65-1.09-1.45-1.09-2.39,0-.6.17-1.17.51-1.7.34-.53.84-.93,1.48-1.2s1.42-.41,2.33-.41c1.49,0,2.61.33,3.36.98.75.65,1.15,1.52,1.19,2.61l-2.4.11c-.1-.61-.32-1.05-.66-1.32-.34-.27-.84-.4-1.52-.4s-1.24.14-1.63.43c-.25.18-.38.43-.38.74,0,.28.12.52.36.72.3.25,1.04.52,2.2.79,1.17.27,2.03.56,2.59.85.56.29,1,.7,1.31,1.21.32.51.47,1.14.47,1.89,0,.68-.19,1.32-.57,1.91-.38.59-.91,1.04-1.6,1.32-.69.29-1.55.43-2.58.43-1.5,0-2.65-.35-3.46-1.04-.8-.69-1.28-1.7-1.44-3.03Z"/><path class="cls-1" d="M19.83,24.08l-.63.8c-.31-.15-.6-.36-.88-.62-.22.2-.45.34-.7.43-.25.09-.54.14-.88.14-.67,0-1.18-.19-1.52-.57-.26-.29-.39-.63-.39-1.01,0-.35.1-.66.31-.93.21-.28.51-.52.92-.72-.18-.22-.32-.43-.42-.62-.09-.2-.14-.38-.14-.56,0-.33.13-.6.39-.83.26-.23.63-.34,1.12-.34s.83.12,1.09.36.39.53.39.87c0,.22-.07.43-.2.62-.13.2-.39.42-.79.67l.75.99c.09-.16.16-.36.23-.62l.94.21c-.09.33-.17.57-.24.73-.07.15-.14.28-.22.38.12.11.26.23.45.36.18.13.32.21.4.26ZM16.6,22.27c-.24.12-.42.27-.53.44-.12.17-.18.34-.18.52,0,.22.07.41.22.55s.34.21.59.21c.16,0,.32-.03.47-.1.15-.06.31-.17.49-.32l-1.05-1.3ZM17.01,21.15l.28-.21c.21-.16.31-.32.31-.48,0-.13-.05-.25-.15-.34-.1-.09-.23-.14-.4-.14s-.29.04-.39.12c-.09.08-.14.18-.14.29,0,.13.08.28.24.46l.25.29Z"/><path class="cls-1" d="M20.25,24.74v-11.86h3.84c1.46,0,2.41.06,2.85.18.68.18,1.25.57,1.71,1.16.46.6.69,1.37.69,2.31,0,.73-.13,1.34-.4,1.84s-.6.89-1.01,1.17c-.41.28-.82.47-1.24.56-.57.11-1.4.17-2.48.17h-1.56v4.48h-2.4ZM22.65,14.89v3.37h1.31c.94,0,1.58-.06,1.89-.19.32-.12.57-.32.75-.58s.27-.57.27-.92c0-.43-.13-.79-.38-1.07-.25-.28-.57-.46-.96-.53-.29-.05-.86-.08-1.72-.08h-1.16Z"/></g></svg>