<?xml version="1.0" encoding="UTF-8"?><svg id="_圖層_2" xmlns="http://www.w3.org/2000/svg" viewBox="0 0 30.17 30.17"><defs><style>.cls-1{fill:#f14336;}.cls-2{fill:#fbbb00;}.cls-3{fill:#518ef8;}.cls-4{fill:#28b446;}</style></defs><g id="_x31_5使用者註冊"><path class="cls-2" d="M6.69,18.23l-1.05,3.92-3.84.08c-1.15-2.13-1.8-4.56-1.8-7.15s.61-4.86,1.69-6.94h0l3.42.63,1.5,3.4c-.31.91-.48,1.89-.48,2.91,0,1.11.2,2.17.57,3.15Z"/><path class="cls-3" d="M29.91,12.27c.17.91.26,1.86.26,2.82,0,1.08-.11,2.13-.33,3.15-.73,3.46-2.65,6.48-5.31,8.62h0s-4.3-.22-4.3-.22l-.61-3.8c1.76-1.03,3.14-2.65,3.87-4.59h-8.07v-5.97h14.49Z"/><path class="cls-4" d="M24.53,26.85h0c-2.59,2.08-5.87,3.32-9.45,3.32-5.75,0-10.74-3.21-13.29-7.94l4.89-4c1.27,3.4,4.55,5.82,8.4,5.82,1.65,0,3.2-.45,4.53-1.23l4.91,4.02Z"/><path class="cls-1" d="M24.72,3.47l-4.89,4c-1.38-.86-3-1.36-4.74-1.36-3.93,0-7.27,2.53-8.48,6.05L1.69,8.15h0C4.2,3.31,9.26,0,15.09,0c3.66,0,7.02,1.3,9.63,3.47Z"/></g></svg>