<?xml version="1.0" encoding="UTF-8"?><svg id="_圖層_2" xmlns="http://www.w3.org/2000/svg" xmlns:xlink="http://www.w3.org/1999/xlink" viewBox="0 0 103 102.45"><defs><style>.cls-1{fill:none;}.cls-2{fill:#9684bb;}.cls-3{clip-path:url(#clippath);}</style><clipPath id="clippath"><rect class="cls-1" width="103" height="98"/></clipPath></defs><g id="_x31_0團隊交易"><g class="cls-3"><path class="cls-2" d="M30,17.07c4.71,0,8.54-3.83,8.54-8.54S34.71,0,30,0s-8.54,3.83-8.54,8.54,3.83,8.54,8.54,8.54ZM30,4.27c2.35,0,4.27,1.92,4.27,4.27s-1.92,4.27-4.27,4.27-4.27-1.92-4.27-4.27,1.92-4.27,4.27-4.27ZM51.35,29.88c4.71,0,8.54-3.83,8.54-8.54s-3.83-8.54-8.54-8.54-8.54,3.83-8.54,8.54,3.83,8.54,8.54,8.54ZM51.35,17.07c2.35,0,4.27,1.92,4.27,4.27s-1.92,4.27-4.27,4.27-4.27-1.92-4.27-4.27,1.92-4.27,4.27-4.27ZM72.69,17.07c4.71,0,8.54-3.83,8.54-8.54s-3.83-8.54-8.54-8.54-8.54,3.83-8.54,8.54,3.83,8.54,8.54,8.54ZM72.69,4.27c2.35,0,4.27,1.92,4.27,4.27s-1.92,4.27-4.27,4.27-4.27-1.92-4.27-4.27,1.92-4.27,4.27-4.27ZM102.57,27.75v43.12c0,8.55-3.33,16.59-9.38,22.64l-8.32,8.32c-.42.42-.96.62-1.51.62s-1.09-.21-1.51-.62c-.83-.83-.83-2.19,0-3.02l8.32-8.32c5.24-5.24,8.13-12.21,8.13-19.62V27.75c0-3.53-2.87-6.4-6.4-6.4s-6.4,2.87-6.4,6.4c0,0-.04,34.31-.05,34.39-.06,2.35-.85,4.69-2.45,6.59l-11.26,11.72c-.42.44-.98.65-1.54.65s-1.07-.2-1.48-.6c-.85-.82-.88-2.17-.06-3.02l11.17-11.62c.96-1.15,1.43-2.63,1.4-4.11v-.02c-.04-1.48-.58-2.96-1.63-4.14-2.35-2.62-6.39-2.84-9.02-.5l-11.65,10.72c-2.22,2.05-3.95,4.5-5.24,7.22,1.24,3.18,1.93,6.58,1.93,10.06v15.19c0,1.18-.96,2.13-2.13,2.13s-2.13-.96-2.13-2.13v-15.19c0-6.55-2.76-12.84-7.58-17.28l-11.67-10.74c-2.6-2.33-6.65-2.11-9,.51-2.11,2.35-2.16,5.95-.14,8.37l11.07,11.5c.82.85.79,2.2-.06,3.02-.85.82-2.2.79-3.02-.06l-11.17-11.62c-1.62-1.93-2.5-4.26-2.59-6.59-.02-.12,0-34.5,0-34.5,0-3.53-2.87-6.4-6.4-6.4s-6.4,2.87-6.4,6.4v43.12c0,7.41,2.89,14.38,8.13,19.62l8.32,8.32c.83.83.83,2.19,0,3.02-.42.42-.96.62-1.51.62s-1.09-.21-1.51-.62l-8.32-8.32C3.44,87.44.11,79.41.11,70.86V27.75c0-5.88,4.79-10.67,10.67-10.67,4.9,0,9,3.34,10.24,7.86,2.36-2.22,5.52-3.59,8.96-3.59,1.76,0,3.47.34,5.09,1.02,1.09.45,1.6,1.7,1.15,2.79-.45,1.09-1.7,1.61-2.79,1.15-1.09-.45-2.25-.69-3.45-.69-4.1,0-7.66,2.81-8.54,6.69v21.05c3.98-2.98,9.65-2.86,13.5.58l11.69,10.76c1.84,1.69,3.39,3.62,4.69,5.7,1.31-2.09,2.86-4.01,4.7-5.7l11.67-10.74c3.86-3.46,9.54-3.59,13.52-.61v-21.05c-.88-3.88-4.44-6.69-8.54-6.69-1.2,0-2.36.23-3.45.69-1.08.46-2.33-.06-2.79-1.15-.45-1.09.06-2.34,1.15-2.79,1.62-.67,3.33-1.02,5.09-1.02,3.44,0,6.6,1.37,8.96,3.59,1.25-4.51,5.34-7.86,10.24-7.86,5.88,0,10.67,4.79,10.67,10.67h.02ZM35.92,43.89c2.93-6.01,8.92-9.74,15.64-9.74s12.71,3.73,15.64,9.74c.52,1.06-.09,3.24-1.92,3.07-.79,0-1.55-.44-1.92-1.2-2.21-4.53-6.73-7.34-11.8-7.34s-9.6,2.81-11.8,7.34c-.52,1.06-1.79,1.51-2.85.98-1.06-.52-1.5-1.79-.98-2.85h0Z"/></g></g></svg>