<?xml version="1.0" encoding="UTF-8"?><svg id="_圖層_2" xmlns="http://www.w3.org/2000/svg" viewBox="0 0 12.18 10.95"><defs><style>.cls-1{fill:none;fill-rule:evenodd;stroke:#7c8eb4;stroke-miterlimit:10;}</style></defs><g id="_x30_1精選文章"><path class="cls-1" d="M6.09,1.83c-.09-.11-.18-.22-.27-.33-.53-.58-1.18-.95-1.98-1-1.09-.06-1.99.34-2.65,1.21-.64.85-.81,1.82-.62,2.86.12.63.41,1.18.79,1.69.44.6.97,1.13,1.53,1.62.9.79,1.81,1.57,2.72,2.36.31.27.64.27.95,0,.2-.17.39-.34.59-.51.76-.67,1.53-1.32,2.29-2,.59-.53,1.15-1.1,1.58-1.78.3-.46.52-.95.6-1.5.15-.96-.01-1.85-.57-2.65-.52-.75-1.24-1.19-2.15-1.29-.93-.11-1.72.19-2.39.83-.15.15-.29.31-.44.48Z"/><path class="cls-1" d="M6.09,1.83c.15-.16.28-.33.44-.48.67-.65,1.46-.94,2.39-.83.91.11,1.63.54,2.15,1.29.55.8.72,1.7.57,2.65-.09.54-.31,1.04-.6,1.5-.43.67-.99,1.25-1.58,1.78-.76.68-1.53,1.33-2.29,2-.2.17-.39.34-.59.51-.31.27-.64.27-.95,0-.91-.78-1.82-1.56-2.72-2.36-.56-.49-1.09-1.02-1.53-1.62-.38-.51-.67-1.06-.79-1.69-.19-1.04-.02-2.01.62-2.86C1.85.85,2.75.45,3.84.51c.8.05,1.44.42,1.98,1,.1.1.18.22.27.33Z"/></g></svg>