<?xml version="1.0" encoding="UTF-8"?><svg id="_圖層_2" xmlns="http://www.w3.org/2000/svg" viewBox="0 0 11.88 10.57"><defs><style>.cls-1{fill:#7c8eb4;}.cls-1,.cls-2{fill-rule:evenodd;}.cls-2{fill:#542b87;}</style></defs><g id="_x30_1精選文章"><path class="cls-1" d="M5.94,1.41c-.1-.12-.19-.23-.29-.35C5.08.45,4.39.06,3.55,0,2.39-.06,1.43.37.73,1.29.06,2.2-.13,3.23.08,4.33c.13.67.44,1.26.84,1.8.47.64,1.03,1.2,1.63,1.72.96.84,1.92,1.67,2.89,2.5.33.29.68.28,1.01,0,.21-.18.42-.36.62-.54.81-.71,1.63-1.41,2.43-2.12.63-.56,1.22-1.17,1.68-1.89.31-.49.55-1.01.64-1.59.16-1.02-.01-1.97-.6-2.82-.55-.8-1.32-1.26-2.29-1.37-.98-.12-1.83.2-2.54.88-.16.16-.3.33-.46.51Z"/><path class="cls-2" d="M5.94,1.41c.16-.18.3-.35.46-.51C7.11.22,7.95-.09,8.94.02c.97.11,1.74.57,2.29,1.37.59.85.76,1.8.6,2.82-.09.58-.32,1.1-.64,1.59-.46.71-1.05,1.32-1.68,1.89-.8.72-1.62,1.42-2.43,2.12-.21.18-.42.36-.62.54-.33.29-.68.29-1.01,0-.96-.83-1.93-1.66-2.89-2.5-.6-.52-1.16-1.08-1.63-1.72-.4-.54-.72-1.13-.84-1.8-.21-1.1-.02-2.13.65-3.04C1.43.37,2.39-.06,3.55,0c.85.05,1.53.44,2.1,1.06.1.11.2.23.29.35Z"/></g></svg>