<?xml version="1.0" encoding="UTF-8"?><svg id="_圖層_2" xmlns="http://www.w3.org/2000/svg" viewBox="0 0 130 101"><defs><style>.cls-1{fill:none;}.cls-2{fill:#fff;}.cls-2,.cls-3{fill-rule:evenodd;}.cls-3{fill:#9b9b9b;}</style></defs><g id="_x30_3熱門交易者"><path class="cls-3" d="M92,96.24c0-2.63-2.14-4.76-4.77-4.76h-44.48c-2.63,0-4.76,2.14-4.76,4.76v4.76h54v-4.76ZM87.74,17.52c-1.28,7.52-3.18,15.27-6.44,22.55,9.24-5.93,14.52-12.99,16.1-21.49.05-.28,0-.51-.19-.73s-.4-.32-.69-.32h-8.79ZM48.7,40.07c-3.26-7.29-5.16-15.04-6.44-22.55h-8.79c-.29,0-.5.1-.69.32s-.24.45-.19.73c1.58,8.51,6.86,15.56,16.11,21.5ZM65,56.06c-1.66,0-3.09-.61-4.23-1.82-11.43-12.12-15.13-28.5-17.1-43.16h42.66c-1.98,14.66-5.67,31.04-17.1,43.16-1.14,1.21-2.56,1.82-4.23,1.82ZM55.37,70.65h19.26c-.1-.14-.2-.27-.29-.4-2.71-3.73-5.1-7.03-4.94-13.1-1.29.84-2.78,1.27-4.4,1.27s-3.11-.44-4.4-1.27c.16,6.08-2.22,9.37-4.94,13.1-.1.13-.2.27-.29.4h0ZM78.45,76.65v8.83c0,.65-.53,1.18-1.18,1.18h-24.55c-.65,0-1.18-.53-1.18-1.18v-8.83c0-.65.53-1.18,1.18-1.18h24.55c.65,0,1.18.53,1.18,1.18ZM84.05,73h-38.09v16.12h38.09v-16.12h0ZM53.91,84.3h22.19v-6.48h-22.19v6.48Z"/><path class="cls-2" d="M58.7,37.98l5.41-3.58c.27-.18.58-.26.89-.26s.62.09.89.26l5.41,3.58-1.73-6.25c-.17-.62.04-1.28.55-1.68l5.08-4.04-6.48-.29c-.64-.03-1.21-.44-1.43-1.04l-2.28-6.08-2.28,6.08c-.23.6-.79,1.01-1.43,1.04l-6.48.29,5.07,4.04c.5.4.72,1.06.55,1.68l-1.73,6.25Z"/><rect class="cls-1" width="130" height="101"/></g></svg>