<?xml version="1.0" encoding="UTF-8"?><svg id="_圖層_2" xmlns="http://www.w3.org/2000/svg" viewBox="0 0 130 101"><defs><style>.cls-1{fill:none;}.cls-2{fill:#fcbb02;fill-rule:evenodd;}</style></defs><g id="_x30_3熱門交易者"><path class="cls-2" d="M87.32,101v-3.28c0-1.8-1.47-3.27-3.27-3.27h-38.1c-1.81,0-3.27,1.47-3.27,3.27v3.28h44.65ZM98.52,79.59c-4.64,4.04-10.47,7.4-17.42,9.94v1.65h2.95c.44,0,.88.05,1.3.13,3.77-1.58,7.21-3.42,10.32-5.5.05.11.11.22.19.32,2.6,3.4,5.49,5.2,8.84,5.52.34.03.68.05,1.03.05,4.68,0,10.1-2.9,16.94-9.03.39-.35.59-.86.52-1.38-.05-.52-.37-.97-.83-1.22-6.27-3.38-11.7-4.6-16.26-3.69,1.22-1.53,2.32-3.12,3.29-4.78.31-.53.6-1.07.88-1.61.21.43.61.76,1.08.87,1.36.31,2.66.47,3.89.47,6.71,0,11.41-4.65,13.99-13.89.13-.5.02-1.04-.3-1.45-.34-.4-.84-.62-1.36-.58-6.34.47-10.76,1.66-13.61,3.7.35-1.94.55-3.92.62-5.95.15.05.31.08.48.08.1,0,.21-.01.3-.03,7.68-1.5,10.86-7.16,9.44-16.83-.08-.52-.4-.96-.86-1.2-.47-.23-1.02-.23-1.48.02-4.3,2.31-7.2,4.53-8.86,6.85-.24-1.18-.52-2.37-.84-3.56,2.59-7.01-.48-12.59-9.15-16.58-.47-.22-1.02-.19-1.47.07s-.75.73-.79,1.25c-.57,6.64.37,11.22,2.89,13.98,1.42,1.56,3.3,2.48,5.59,2.73.85,3.28,1.35,6.48,1.5,9.57-1.97-2.44-5.19-4.83-9.79-7.29-.46-.25-1.01-.25-1.47-.02-.47.23-.79.68-.86,1.2-1.62,11.04,1.93,17.56,10.55,19.37-.88,2.84-2.11,5.53-3.68,8.06-.51-3.84-3.26-8.1-8.54-13.28-.37-.37-.9-.53-1.41-.43-.51.1-.95.43-1.16.91-4.56,9.94-3.36,17.19,3.56,21.6h0ZM48.89,89.53c-6.96-2.54-12.79-5.9-17.42-9.94,6.92-4.4,8.12-11.66,3.57-21.6-.22-.47-.65-.81-1.16-.91-.51-.1-1.04.06-1.41.43-5.28,5.18-8.03,9.45-8.54,13.29-1.57-2.54-2.8-5.23-3.69-8.07,8.62-1.81,12.18-8.33,10.55-19.37-.07-.51-.4-.96-.86-1.2-.47-.23-1.02-.23-1.48.02-4.6,2.47-7.82,4.85-9.8,7.3.16-3.09.66-6.28,1.51-9.57,2.42-.24,4.38-1.16,5.81-2.74,3.13-3.44,3.07-9.27,2.67-13.97-.05-.52-.34-.98-.79-1.25-.45-.26-1-.29-1.47-.07-8.67,4-11.74,9.58-9.15,16.58-.32,1.19-.6,2.38-.84,3.56-1.66-2.31-4.55-4.54-8.86-6.85-.46-.25-1.01-.25-1.48-.02-.46.23-.79.68-.86,1.2-1.42,9.67,1.76,15.34,9.44,16.83.1.02.2.03.3.03.17,0,.33-.03.48-.07.07,2.02.27,4.01.62,5.95-2.85-2.03-7.27-3.22-13.6-3.7-.52-.04-1.03.18-1.36.58s-.44.94-.3,1.45c2.57,9.23,7.27,13.89,13.98,13.89,1.23,0,2.53-.15,3.89-.47.48-.11.88-.43,1.09-.87.29.57.6,1.13.93,1.69.95,1.63,2.04,3.2,3.24,4.7-4.56-.91-9.99.32-16.26,3.69-.46.25-.77.7-.83,1.22s.13,1.03.52,1.38c6.84,6.13,12.27,9.03,16.94,9.03.35,0,.69-.02,1.03-.05,3.34-.31,6.24-2.12,8.84-5.52.07-.1.13-.21.18-.32,3.1,2.08,6.55,3.91,10.32,5.49.42-.08.85-.13,1.29-.13h2.95v-1.65ZM39.93,6.32h50.13c1.74,0,3.16-1.42,3.16-3.16s-1.42-3.16-3.16-3.16h-50.13c-1.74,0-3.16,1.42-3.16,3.16s1.42,3.16,3.16,3.16h0ZM40.07,35.29c-4.81-4.58-7.24-11.74-6.59-19.72h5.01c.05,6.82.59,13.51,1.58,19.72ZM91.5,15.57h5.01c.65,7.98-1.78,15.15-6.59,19.72.99-6.21,1.52-12.9,1.58-19.72ZM58.72,41.76l5.4-3.57c.27-.18.58-.26.88-.26s.62.09.88.26l5.4,3.57-1.72-6.24c-.17-.62.04-1.28.54-1.68l5.06-4.03-6.47-.29c-.64-.03-1.2-.44-1.43-1.04l-2.27-6.06-2.27,6.06c-.23.6-.79,1.01-1.43,1.04l-6.46.29,5.06,4.03c.5.4.72,1.06.55,1.68l-1.73,6.24ZM59.56,81.14v-11.65c0-.51-.24-.99-.65-1.29-13.83-10.14-17.86-37.58-17.14-58.67h46.45c.73,21.1-3.3,48.54-17.14,58.67-.41.3-.65.78-.65,1.29v11.65h-10.87ZM65,41.44l-8.08,5.34c-.56.37-1.28.35-1.82-.04-.54-.39-.78-1.08-.6-1.72l2.58-9.33-7.57-6.03c-.52-.42-.73-1.11-.53-1.74.21-.63.78-1.07,1.45-1.1l9.67-.43,3.4-9.07c.23-.62.83-1.04,1.5-1.04s1.26.41,1.5,1.04l3.4,9.07,9.67.43c.67.03,1.25.47,1.45,1.1s0,1.33-.53,1.74l-7.57,6.03,2.58,9.33c.18.64-.06,1.33-.6,1.72-.28.2-.61.31-.94.31-.31,0-.61-.09-.88-.26l-8.08-5.34ZM52.17,91.25h25.65v-3.46c0-1.91-1.55-3.46-3.46-3.46h-18.73c-1.91,0-3.46,1.55-3.46,3.46v3.46Z"/><rect class="cls-1" width="130" height="101"/></g></svg>