<?xml version="1.0" encoding="UTF-8"?><svg id="_圖層_2" xmlns="http://www.w3.org/2000/svg" viewBox="0 0 113.57 117.82"><defs><style>.cls-1{fill:#bfbde0;}.cls-2{fill:#bab2e8;}.cls-3{fill:#4d23b5;}.cls-4{fill:#6941bf;}.cls-5{fill:#fcbb02;}.cls-5,.cls-6{fill-rule:evenodd;}.cls-7{fill:#fff;}.cls-8{fill:#a35cca;}.cls-9{fill:#fefefe;}.cls-6{fill:#eba446;}.cls-10{fill:#e5cfff;}</style></defs><g id="_x30_3熱門交易者"><path class="cls-6" d="M57.61.55l1.1,2.68c.13.33.41.53.76.56l2.88.21c.37.03.68.26.79.61.12.35.01.72-.27.96l-2.21,1.87c-.27.23-.37.56-.3.89l.69,2.81c.09.36-.04.71-.34.93-.3.22-.68.23-1,.04l-2.46-1.53c-.3-.18-.64-.18-.94,0l-2.47,1.53c-.32.19-.7.18-1-.04-.3-.22-.43-.57-.34-.93l.69-2.81c.08-.33-.03-.67-.29-.89l-2.21-1.87c-.28-.24-.39-.61-.28-.96s.42-.59.79-.61l2.89-.21c.35-.03.63-.23.76-.56l1.09-2.68c.14-.34.46-.55.83-.55s.69.21.82.55h0Z"/><path class="cls-5" d="M112,67.99c-.16,2.14-1.47,4.12-3.57,5.05-1.97.87-4.15.6-5.8-.52-.77,1.85-1.65,3.65-2.64,5.4.61-.39,1.29-.68,2.04-.85,2.32-.52,4.62.33,6.07,2.02-.6,2.13-2.32,3.88-4.65,4.39-2.2.49-4.38-.25-5.84-1.77-.63.91-1.3,1.81-2,2.69-.54.68-1.1,1.34-1.68,1.99.71-.3,1.49-.47,2.31-.49,2.45-.06,4.62,1.26,5.75,3.26-1.04,2.05-3.14,3.48-5.59,3.53-2.37.06-4.46-1.18-5.62-3.06-1.44,1.36-2.96,2.62-4.55,3.79.81-.13,1.66-.12,2.51.07,2.47.55,4.32,2.41,4.96,4.69-1.54,1.8-4,2.71-6.47,2.16-2.35-.52-4.13-2.22-4.85-4.34-4.28,2.59-8.94,4.53-13.82,5.71-.04.01-.09.02-.13.02-.26,0-.49-.17-.55-.43-.07-.3.11-.61.42-.68,4.88-1.19,9.43-3.08,13.55-5.56-1.72-1.54-2.57-3.94-2.04-6.35.55-2.48,2.41-4.32,4.69-4.96,1.8,1.55,2.71,4,2.16,6.48-.19.84-.53,1.61-.99,2.29,1.51-1.12,2.96-2.33,4.32-3.61-1.9-1.08-3.2-3.1-3.26-5.44-.06-2.45,1.26-4.62,3.26-5.75,2.05,1.04,3.48,3.14,3.53,5.59.02.83-.12,1.63-.4,2.37,1.28-1.45,2.48-2.98,3.58-4.57-2.02-.66-3.66-2.34-4.16-4.57-.52-2.32.34-4.62,2.02-6.07,2.14.6,3.88,2.32,4.4,4.64.17.76.18,1.52.08,2.24.96-1.7,1.81-3.47,2.56-5.28-2.05-.23-3.93-1.52-4.82-3.54-.93-2.1-.55-4.44.77-6.13,2.14.16,4.12,1.47,5.05,3.57.28.64.44,1.31.49,1.97.58-1.86,1.04-3.77,1.39-5.72-1.98.18-4-.67-5.24-2.41-1.28-1.8-1.38-4.09-.47-5.95,2.05-.26,4.19.59,5.47,2.4.37.52.64,1.09.82,1.67.13-1.44.2-2.9.2-4.38,0-.5-.01-.99-.03-1.49-1.76.56-3.76.24-5.28-1.04-1.64-1.37-2.3-3.48-1.89-5.43,1.85-.74,4.04-.47,5.68.9.48.4.87.86,1.18,1.37-.24-2.02-.61-4.01-1.09-5.96-1.55.87-3.5.95-5.18.05-1.81-.97-2.84-2.83-2.83-4.75,1.6-1.06,3.72-1.23,5.52-.26.5.27.94.61,1.32,1-.67-1.95-1.46-3.84-2.36-5.68-1.3,1.12-3.12,1.57-4.88,1.03-1.89-.57-3.21-2.13-3.57-3.94,1.31-1.31,3.27-1.87,5.16-1.29.49.15.94.36,1.35.63-1.07-1.78-2.25-3.49-3.53-5.12-1.01,1.3-2.65,2.07-4.41,1.9-1.89-.19-3.42-1.4-4.09-3.04.99-1.47,2.73-2.37,4.62-2.18.46.05.9.15,1.32.32-1.42-1.53-2.94-2.97-4.55-4.31-.66,1.39-1.98,2.44-3.62,2.68-1.8.26-3.5-.52-4.51-1.89.58-1.59,2-2.83,3.79-3.08.46-.07.91-.07,1.35,0-1.77-1.25-3.63-2.39-5.57-3.4-.34,1.44-1.39,2.69-2.89,3.22-1.64.58-3.38.17-4.58-.91.24-1.61,1.34-3.03,2.97-3.61.4-.14.81-.22,1.21-.25-1.92-.82-3.9-1.53-5.95-2.1-.3-.08-.48-.4-.39-.7.08-.3.4-.48.7-.39,2.11.59,4.17,1.33,6.18,2.19-.25-.34-.46-.73-.61-1.15-.58-1.64-.17-3.38.92-4.58,1.6.24,3.02,1.34,3.61,2.97.54,1.51.22,3.12-.69,4.3,2.02,1.05,3.96,2.24,5.82,3.55-.2-.42-.34-.88-.41-1.36-.26-1.8.52-3.5,1.88-4.51,1.6.58,2.83,2,3.09,3.79.24,1.68-.43,3.29-1.64,4.32,1.74,1.44,3.39,2.99,4.92,4.65-.11-.5-.15-1.03-.1-1.57.19-1.89,1.4-3.42,3.04-4.09,1.47.99,2.36,2.73,2.18,4.61-.17,1.74-1.22,3.18-2.66,3.92.13.17.26.33.39.5,1.22,1.58,2.32,3.21,3.33,4.9-.01-.53.06-1.08.22-1.61.57-1.89,2.13-3.21,3.94-3.57,1.3,1.31,1.87,3.27,1.29,5.16-.53,1.76-1.92,3.02-3.57,3.48.95,1.93,1.77,3.91,2.46,5.94.1-.55.28-1.1.56-1.62.97-1.81,2.83-2.84,4.75-2.83,1.06,1.6,1.23,3.72.26,5.52-.92,1.71-2.63,2.72-4.43,2.82.51,2.05.88,4.15,1.13,6.27.22-.57.53-1.11.94-1.6,1.37-1.64,3.48-2.3,5.43-1.89.75,1.85.48,4.04-.89,5.68-1.31,1.57-3.3,2.24-5.17,1.94.02.54.03,1.08.03,1.62,0,1.59-.08,3.16-.22,4.72.38-.55.85-1.04,1.42-1.45,1.8-1.28,4.09-1.39,5.94-.47.26,2.05-.59,4.18-2.39,5.47-1.68,1.19-3.77,1.37-5.55.65-.36,2.02-.85,4-1.46,5.94.49-.47,1.07-.87,1.73-1.16,2.1-.93,4.44-.56,6.14.76h0ZM45.29,100.63c-4.88-1.19-9.43-3.08-13.55-5.56,1.71-1.54,2.57-3.94,2.04-6.35-.55-2.48-2.41-4.32-4.69-4.96-1.8,1.55-2.71,4-2.16,6.48.19.84.53,1.61.99,2.29-1.51-1.12-2.96-2.33-4.32-3.61,1.9-1.08,3.2-3.1,3.26-5.44.06-2.45-1.27-4.62-3.26-5.75-2.05,1.04-3.47,3.14-3.53,5.59-.02.83.12,1.63.4,2.37-1.28-1.45-2.48-2.98-3.58-4.57,2.03-.66,3.66-2.34,4.16-4.57.52-2.32-.34-4.62-2.02-6.07-2.14.6-3.88,2.32-4.4,4.64-.17.76-.19,1.51-.08,2.24-.96-1.7-1.81-3.46-2.56-5.28,2.05-.23,3.92-1.52,4.82-3.54.93-2.1.56-4.44-.76-6.13-2.14.16-4.12,1.47-5.05,3.57-.28.64-.44,1.31-.5,1.97-.58-1.86-1.04-3.77-1.39-5.72,1.98.17,4-.68,5.23-2.41,1.29-1.8,1.39-4.09.47-5.95-2.05-.26-4.18.59-5.46,2.4-.37.52-.64,1.08-.82,1.67-.13-1.44-.2-2.9-.2-4.38,0-.5.01-.99.03-1.49,1.76.56,3.76.24,5.28-1.04,1.64-1.37,2.29-3.48,1.89-5.43-1.85-.74-4.04-.47-5.68.9-.48.4-.87.86-1.17,1.36.24-2.02.61-4.01,1.09-5.96,1.55.87,3.5.95,5.18.05,1.81-.97,2.83-2.83,2.83-4.75-1.6-1.06-3.72-1.23-5.53-.26-.5.27-.93.6-1.31.99.67-1.94,1.45-3.83,2.35-5.66,1.3,1.12,3.12,1.56,4.88,1.03,1.89-.57,3.21-2.13,3.57-3.94-1.31-1.31-3.27-1.87-5.16-1.29-.49.15-.94.36-1.34.63,1.07-1.78,2.24-3.49,3.53-5.12,1.02,1.3,2.65,2.07,4.41,1.89,1.89-.19,3.42-1.4,4.1-3.04-.99-1.47-2.73-2.37-4.62-2.18-.46.05-.9.15-1.32.32,1.42-1.53,2.94-2.97,4.55-4.31.66,1.39,1.98,2.44,3.62,2.68,1.8.26,3.5-.52,4.51-1.89-.58-1.59-1.99-2.83-3.79-3.08-.46-.07-.92-.07-1.35,0,1.77-1.25,3.63-2.39,5.57-3.4.35,1.44,1.39,2.69,2.9,3.22,1.64.58,3.38.17,4.58-.91-.24-1.61-1.34-3.03-2.97-3.61-.4-.14-.81-.22-1.22-.25,1.92-.82,3.9-1.53,5.95-2.1.3-.08.48-.4.39-.7s-.4-.48-.7-.39c-2.11.59-4.17,1.33-6.18,2.2.25-.35.46-.73.61-1.15.58-1.64.17-3.38-.92-4.58-1.6.24-3.03,1.34-3.61,2.97-.54,1.51-.23,3.12.68,4.3-2.02,1.05-3.96,2.24-5.82,3.55.2-.42.34-.88.42-1.36.26-1.8-.52-3.5-1.89-4.51-1.59.58-2.83,2-3.08,3.79-.25,1.69.42,3.29,1.63,4.32-1.74,1.43-3.38,2.99-4.92,4.64.11-.5.15-1.03.1-1.56-.19-1.89-1.4-3.42-3.05-4.09-1.47.99-2.36,2.73-2.18,4.61.17,1.74,1.22,3.18,2.67,3.92-.13.17-.26.33-.39.5-1.21,1.58-2.32,3.21-3.33,4.9.01-.53-.06-1.07-.22-1.61-.58-1.89-2.13-3.21-3.94-3.57-1.31,1.31-1.87,3.27-1.29,5.16.53,1.76,1.92,3.02,3.57,3.48-.95,1.93-1.77,3.92-2.46,5.95-.1-.55-.28-1.1-.56-1.62-.97-1.81-2.83-2.84-4.75-2.83-1.06,1.6-1.23,3.72-.26,5.52.92,1.71,2.63,2.72,4.43,2.82-.51,2.05-.88,4.15-1.13,6.27-.22-.57-.53-1.11-.94-1.61-1.37-1.64-3.48-2.3-5.43-1.89-.74,1.85-.47,4.04.9,5.68,1.31,1.57,3.29,2.24,5.17,1.94-.02.54-.03,1.08-.03,1.62,0,1.59.08,3.16.22,4.72-.38-.55-.85-1.04-1.43-1.45-1.8-1.28-4.09-1.39-5.94-.47-.26,2.05.59,4.18,2.39,5.47,1.68,1.19,3.77,1.37,5.55.65.36,2.02.85,4,1.46,5.95-.49-.48-1.08-.87-1.74-1.17-2.1-.93-4.44-.56-6.13.76.16,2.14,1.46,4.12,3.56,5.05,1.97.87,4.15.6,5.81-.52.77,1.85,1.65,3.65,2.64,5.4-.61-.39-1.29-.69-2.04-.85-2.32-.52-4.62.33-6.07,2.02.6,2.13,2.32,3.88,4.64,4.39,2.2.49,4.39-.25,5.84-1.77.63.91,1.3,1.81,2,2.69.54.68,1.1,1.34,1.68,1.99-.71-.3-1.49-.47-2.31-.49-2.45-.06-4.62,1.26-5.75,3.26,1.03,2.05,3.14,3.48,5.59,3.53,2.37.06,4.46-1.18,5.62-3.06,1.44,1.36,2.97,2.62,4.55,3.8-.81-.14-1.66-.12-2.51.06-2.48.55-4.32,2.41-4.96,4.69,1.55,1.8,4,2.71,6.48,2.16,2.35-.52,4.13-2.22,4.85-4.34,4.28,2.59,8.94,4.53,13.82,5.71.04.01.09.02.13.02.26,0,.49-.17.55-.43.07-.3-.11-.61-.42-.68Z"/><path class="cls-7" d="M71.63,105.15v-8.48c0-2.68-1.43-5.15-3.75-6.49l-7.35-4.24c-2.32-1.34-5.18-1.34-7.5,0l-7.35,4.24c-2.32,1.34-3.75,3.81-3.75,6.49v8.48c0,2.68,1.43,5.15,3.75,6.49l7.35,4.24c2.32,1.34,5.18,1.34,7.5,0l7.35-4.24c2.32-1.34,3.75-3.81,3.75-6.49Z"/><path class="cls-1" d="M56.78,117.82c-1.2,0-2.39-.31-3.46-.92l-8.66-5c-2.13-1.23-3.46-3.52-3.46-5.99v-10c0-2.46,1.32-4.76,3.46-5.99l8.66-5c2.13-1.23,4.78-1.23,6.91,0l8.66,5c2.13,1.23,3.46,3.52,3.46,5.99v10c0,2.46-1.32,4.76-3.46,5.99l-8.66,5c-1.07.62-2.26.92-3.46.92ZM56.78,85.46c-.94,0-1.89.24-2.73.73l-8.66,5c-1.68.97-2.73,2.78-2.73,4.72v10c0,1.94,1.04,3.75,2.73,4.72l8.66,5c1.68.97,3.77.97,5.45,0l8.66-5c1.68-.97,2.73-2.78,2.73-4.72v-10c0-1.94-1.04-3.75-2.73-4.72l-8.66-5c-.84-.49-1.78-.73-2.73-.73Z"/><path class="cls-3" d="M67.5,94.73l-10.71-6.19-10.71,6.19v12.36l10.71,6.19,10.71-6.19v-12.36Z"/><path class="cls-4" d="M56.78,113.28l5.35-3.1-10.69-18.55-5.36,3.1v12.36l10.71,6.19Z"/><path class="cls-10" d="M60.36,107.09l7.14-12.36h-14.29l7.15,12.36Z"/><path class="cls-2" d="M56.78,100.91l-3.58-6.18-3.56,6.18h7.14Z"/><path class="cls-8" d="M60.36,107.09h-7.15l3.58,6.19,3.58-6.19Z"/><path class="cls-8" d="M53.21,107.09l-3.56-6.18-3.58,6.18h7.14Z"/><path class="cls-2" d="M63.92,100.91l-3.56,6.18h7.14l-3.58-6.18Z"/><path class="cls-8" d="M60.36,94.73l-3.58-6.19-3.58,6.19h7.15Z"/><path class="cls-8" d="M53.21,94.73h-7.14l3.58,6.18,3.56-6.18Z"/><path class="cls-9" d="M60.36,94.73l-.89,1.53-2.68,4.65h7.14l-3.56-6.18Z"/><path class="cls-2" d="M56.78,100.91l-3.58,6.18h7.15l-3.58-6.18Z"/></g></svg>