<?xml version="1.0" encoding="UTF-8"?><svg id="_圖層_2" xmlns="http://www.w3.org/2000/svg" viewBox="0 0 130 101"><defs><style>.cls-1{fill:none;}.cls-2{fill:#b29284;}</style></defs><g id="_x30_3熱門交易者"><path class="cls-2" d="M45.45,95.16h39.23v5.84h-39.23v-5.84Z"/><path class="cls-2" d="M79.73,88.31v4.19h-29.32v-4.19c6.73-3.94,9.27-8.25,10.16-10.03h9.01c.76,1.9,3.3,6.09,10.16,10.03Z"/><path class="cls-2" d="M84.17,19.76c-.13,3.68-.38,7.74-1.02,11.93-2.29,17.14-8.12,36.94-13.46,43.92h-9.52c-6.09-8.12-12.82-33.13-14.22-51.29v-.25c0-1.52-.13-2.92-.13-4.32h38.34Z"/><path class="cls-2" d="M51.42,63.04c-11.81-6.86-20.44-22.22-20.95-37.45h13.08c.13,1.65.25,3.3.51,5.08h-6.35c-.38,0-.76.13-1.02.51-.25.25-.38.76-.25,1.14,1.78,8.63,6.35,16.88,12.44,22.47.76,2.79,1.65,5.71,2.54,8.25Z"/><path class="cls-2" d="M99.53,25.59c-.51,15.23-9.14,30.59-20.95,37.45.89-2.67,1.78-5.46,2.54-8.38,6.09-5.59,10.66-13.71,12.44-22.47.13-.38,0-.76-.25-1.14-.25-.25-.63-.51-1.02-.51h-6.35c.25-1.78.38-3.43.51-5.08h13.08v.13Z"/><rect class="cls-1" width="130" height="101"/></g></svg>