<?xml version="1.0" encoding="UTF-8"?><svg id="_圖層_2" xmlns="http://www.w3.org/2000/svg" viewBox="0 0 22 22"><defs><style>.cls-1{fill:none;}.cls-2{fill:#9684bb;}</style></defs><g id="_x30_1精選文章"><path class="cls-2" d="M21.05,13.95c-.21-2.03-2.02-3.5-4.05-3.3-1.62.17-2.94,1.37-3.25,2.97l-.83-.12h-.01s-.4-.06-.4-.06l-.85-.51v-.69c.85-.49,1.53-1.25,1.91-2.15h0c.98,0,1.77-.79,1.78-1.77,0-.43-.16-.84-.44-1.16v-.85c0-2.98-2.42-5.4-5.4-5.4h-.36c-2.98,0-5.4,2.42-5.4,5.4v.86c-.28.32-.43.73-.43,1.16,0,.98.8,1.77,1.78,1.77h0c.39.91,1.06,1.66,1.91,2.15v.69l-.86.52-1.28.17c-2.29.32-3.96,2.09-3.96,4.22v2.88c0,.21.17.38.38.38h16.08c.21,0,.38-.17.38-.38v-2.72c2.03-.21,3.51-2.02,3.3-4.05M11.92,13.97l-.81,1.99-.11-.08-.68-.47-.41-.29,1.23-1.29s.02-.02.03-.02l.18-.19.57.34ZM10.22,16.27c-.12.1-.26.18-.41.24h0s0,0,0,0c-.3.11-.62.11-.92,0,0,0,0,0-.01,0h0c-.15-.06-.29-.14-.41-.24l.31-.22.58-.4.88.62ZM8.3,13.55l-.53-.56v-.39c1.01.36,2.12.36,3.14,0v.39l-1.34,1.4-.23.25-1.04-1.09ZM14.61,8.32c0,.47-.31.87-.76.98.08-.34.12-.69.12-1.05v-.88c.39.15.64.53.64.94M4.08,8.32h0c0-.42.25-.79.64-.94v.88c0,.35.04.71.12,1.05-.45-.12-.77-.52-.77-.99M4.88,6.05h0c-.1.07-.16.19-.16.31v.23c-.07.01-.14.03-.21.06v-.34c0-2.56,2.08-4.64,4.65-4.65h.36c2.57,0,4.65,2.08,4.65,4.65v.34c-.07-.02-.14-.04-.21-.06v-1c0-.21-.17-.38-.38-.38-.05,0-.1.01-.15.03-.75.32-1.53.57-2.32.76-2.26.54-4.46.54-5.89,0-.12-.04-.25-.03-.35.04M5.7,9.56c-.15-.42-.23-.86-.23-1.31v-1.38c1.55.42,3.67.37,5.82-.14.65-.15,1.29-.35,1.92-.59v2.11c0,2.14-1.73,3.87-3.87,3.87-.62,0-1.23-.14-1.78-.43-.87-.45-1.54-1.21-1.87-2.13M7.33,13.63l.03.03,1.41,1.48-1.09.76h0s-.11.08-.11.08l-.81-2,.57-.34ZM1.68,20.34v-2.5c0-1.74,1.39-3.2,3.3-3.47l1.06-.14,1,2.46c.04.1.13.19.24.22h0s.06.01.1.01h0s.01,0,.02,0c.03,0,.05,0,.08-.01.01,0,.02,0,.03,0,.03-.01.06-.03.09-.05l.22-.15c.15.15.31.28.5.38l-.87,3.25H1.68ZM8.23,20.34l.81-3.02c.1.02.2.02.3.02s.2,0,.3-.02l.81,3.02h-2.22ZM17,20.34h-5.77l-.88-3.26c.19-.1.35-.23.5-.38l.21.15h0s.06.03.09.04c0,0,.02,0,.03.01.02,0,.05,0,.07.01,0,0,.01,0,.02,0h0c.15,0,.29-.09.34-.23l1-2.46.19.03h.01s.86.12.86.12c.03,1.87,1.45,3.43,3.31,3.62v2.35ZM17.15,17.25c-1.53-.12-2.7-1.39-2.7-2.92,0-.08,0-.16,0-.24.13-1.62,1.55-2.82,3.16-2.69,1.62.13,2.82,1.55,2.69,3.16-.13,1.62-1.55,2.82-3.16,2.69"/><path class="cls-2" d="M17.54,13.95h-.32c-.12,0-.22-.1-.22-.22s.1-.22.22-.22h.76c.21,0,.37-.17.37-.38s-.17-.38-.37-.38h-.22v-.13c0-.21-.17-.38-.38-.38s-.38.17-.38.38v.15c-.53.12-.86.64-.73,1.17.1.44.5.76.95.76h.32c.12,0,.22.09.23.22,0,.12-.09.22-.21.23h-.77c-.21,0-.38.17-.38.38s.17.38.38.38h.22v.13c0,.21.17.38.38.38s.38-.17.38-.38v-.15c.53-.12.86-.64.73-1.17-.1-.44-.5-.76-.95-.76"/><rect class="cls-1" width="22" height="22"/></g></svg>