<?xml version="1.0" encoding="UTF-8"?><svg id="_圖層_2" xmlns="http://www.w3.org/2000/svg" viewBox="0 0 98.35 97.52"><defs><style>.cls-1{fill:#ffe98f;}.cls-2{fill:#fff;}.cls-3{fill:#f93;}.cls-4{fill:#ffc34d;}.cls-5{fill:#ffe666;}.cls-6{fill:#ff6;}.cls-7{fill:#b29284;fill-rule:evenodd;}</style></defs><g id="_x30_3熱門交易者"><path class="cls-7" d="M96.99,56.94c-.14,1.85-1.27,3.57-3.09,4.37-1.7.75-3.59.52-5.02-.45-.66,1.6-1.43,3.16-2.29,4.67.52-.34,1.12-.59,1.76-.73,2.01-.45,4,.29,5.25,1.75-.52,1.85-2.01,3.36-4.03,3.8-1.91.42-3.79-.22-5.05-1.54-.55.79-1.13,1.57-1.73,2.33-.47.59-.95,1.16-1.45,1.72.62-.26,1.29-.41,2-.42,2.12-.05,4,1.09,4.98,2.82-.9,1.77-2.72,3.01-4.84,3.06-2.05.05-3.87-1.02-4.87-2.65-1.25,1.17-2.57,2.27-3.94,3.29.7-.12,1.44-.11,2.18.06,2.14.47,3.74,2.09,4.29,4.06-1.33,1.56-3.46,2.35-5.6,1.87-2.04-.45-3.57-1.92-4.2-3.76-3.71,2.24-7.75,3.92-11.97,4.95-.04,0-.08.01-.12.01-.22,0-.42-.15-.48-.37-.06-.26.1-.53.36-.59,4.22-1.03,8.16-2.67,11.73-4.81-1.49-1.34-2.23-3.41-1.76-5.5.47-2.15,2.09-3.74,4.06-4.3,1.56,1.34,2.35,3.46,1.87,5.61-.16.73-.46,1.4-.85,1.98,1.31-.97,2.56-2.01,3.74-3.12-1.65-.94-2.77-2.68-2.82-4.71-.05-2.12,1.09-4,2.82-4.98,1.77.9,3.01,2.72,3.06,4.84.02.72-.11,1.41-.34,2.05,1.11-1.26,2.14-2.58,3.1-3.96-1.75-.57-3.17-2.03-3.6-3.96-.45-2.01.3-4,1.75-5.25,1.85.52,3.36,2.01,3.81,4.02.14.66.16,1.31.07,1.94.83-1.47,1.57-3,2.22-4.57-1.78-.2-3.4-1.31-4.18-3.07-.8-1.82-.48-3.85.66-5.31,1.85.14,3.57,1.27,4.37,3.09.25.56.39,1.13.43,1.7.5-1.61.9-3.27,1.2-4.95-1.72.15-3.46-.58-4.54-2.09-1.11-1.56-1.2-3.55-.41-5.15,1.78-.22,3.62.51,4.73,2.07.32.45.56.94.71,1.44.11-1.25.17-2.51.17-3.79,0-.43,0-.86-.02-1.29-1.53.48-3.26.21-4.57-.9-1.42-1.19-1.99-3.01-1.64-4.71,1.61-.64,3.5-.41,4.92.78.41.35.75.75,1.02,1.18-.21-1.75-.53-3.48-.95-5.16-1.35.75-3.03.82-4.49.04-1.57-.84-2.46-2.45-2.45-4.11,1.38-.92,3.22-1.07,4.78-.22.43.23.81.53,1.14.86-.58-1.69-1.26-3.33-2.04-4.91-1.12.97-2.7,1.36-4.22.9-1.64-.5-2.78-1.85-3.09-3.41,1.13-1.13,2.83-1.62,4.47-1.12.43.13.82.32,1.17.55-.92-1.54-1.95-3.02-3.06-4.44-.88,1.13-2.29,1.79-3.82,1.64-1.63-.16-2.96-1.22-3.55-2.63.85-1.28,2.36-2.05,4-1.89.4.04.78.13,1.14.27-1.23-1.33-2.55-2.57-3.94-3.73-.57,1.21-1.71,2.11-3.13,2.32-1.56.22-3.03-.45-3.91-1.63.5-1.38,1.73-2.45,3.28-2.67.4-.06.79-.06,1.17,0-1.53-1.08-3.14-2.07-4.82-2.95-.3,1.25-1.2,2.33-2.5,2.79-1.42.5-2.93.15-3.97-.79.21-1.39,1.16-2.62,2.58-3.13.35-.12.7-.19,1.05-.22-1.66-.71-3.38-1.32-5.15-1.82-.26-.07-.41-.34-.34-.6.07-.26.34-.41.6-.34,1.83.51,3.61,1.15,5.35,1.9-.22-.3-.4-.63-.53-1-.5-1.42-.15-2.93.8-3.97,1.39.21,2.62,1.16,3.12,2.58.46,1.31.19,2.7-.6,3.72,1.75.91,3.43,1.94,5.04,3.08-.17-.36-.3-.76-.36-1.18-.23-1.56.45-3.03,1.63-3.91,1.38.5,2.45,1.73,2.68,3.28.21,1.46-.37,2.85-1.42,3.74,1.51,1.24,2.93,2.59,4.26,4.03-.1-.43-.13-.89-.08-1.36.16-1.63,1.22-2.96,2.63-3.55,1.28.85,2.05,2.36,1.88,3.99-.15,1.51-1.06,2.75-2.31,3.4.11.14.23.29.34.43,1.05,1.37,2.01,2.78,2.88,4.24,0-.46.05-.93.19-1.4.5-1.63,1.85-2.78,3.41-3.09,1.13,1.13,1.62,2.83,1.12,4.47-.46,1.52-1.66,2.62-3.09,3.02.82,1.67,1.54,3.39,2.13,5.15.08-.48.24-.95.48-1.4.84-1.57,2.45-2.46,4.11-2.45.92,1.38,1.07,3.22.22,4.78-.79,1.48-2.27,2.36-3.84,2.44.44,1.78.77,3.59.98,5.43.19-.49.46-.96.81-1.39,1.19-1.42,3.01-1.99,4.7-1.64.65,1.61.41,3.5-.77,4.92-1.14,1.36-2.85,1.94-4.48,1.68.01.47.02.94.02,1.41,0,1.37-.07,2.74-.19,4.09.32-.47.74-.9,1.23-1.25,1.56-1.11,3.54-1.2,5.15-.41.23,1.78-.51,3.62-2.07,4.73-1.46,1.03-3.27,1.18-4.81.56-.31,1.75-.74,3.46-1.26,5.15.43-.41.93-.75,1.5-1.01,1.82-.8,3.85-.48,5.31.66h0ZM39.22,85.2c-4.22-1.03-8.16-2.67-11.73-4.82,1.48-1.34,2.23-3.41,1.76-5.5-.47-2.15-2.09-3.74-4.06-4.3-1.56,1.34-2.35,3.46-1.87,5.61.16.73.46,1.4.85,1.98-1.31-.97-2.56-2.01-3.74-3.12,1.65-.94,2.77-2.68,2.82-4.71.05-2.12-1.1-4-2.83-4.98-1.77.9-3.01,2.72-3.06,4.84-.02.72.11,1.41.34,2.05-1.11-1.26-2.15-2.58-3.1-3.96,1.76-.57,3.17-2.03,3.6-3.96.45-2.01-.3-4-1.75-5.25-1.85.52-3.36,2.01-3.81,4.02-.15.66-.16,1.31-.07,1.94-.83-1.47-1.57-3-2.21-4.57,1.78-.2,3.4-1.32,4.17-3.07.8-1.82.49-3.85-.66-5.31-1.85.14-3.57,1.27-4.37,3.09-.25.56-.39,1.13-.43,1.7-.5-1.61-.9-3.27-1.2-4.95,1.72.15,3.46-.59,4.53-2.09,1.12-1.56,1.2-3.55.41-5.15-1.78-.22-3.62.51-4.73,2.07-.32.45-.56.94-.71,1.44-.11-1.25-.17-2.51-.17-3.79,0-.43,0-.86.02-1.29,1.53.48,3.26.21,4.57-.9,1.42-1.19,1.98-3.01,1.63-4.71-1.6-.64-3.5-.41-4.92.78-.41.35-.75.75-1.02,1.18.21-1.75.53-3.47.95-5.16,1.35.75,3.03.82,4.49.04,1.57-.84,2.45-2.45,2.45-4.11-1.39-.92-3.22-1.07-4.79-.22-.43.23-.81.52-1.13.86.58-1.68,1.26-3.32,2.04-4.9,1.12.97,2.7,1.35,4.22.89,1.63-.5,2.78-1.85,3.09-3.41-1.13-1.13-2.83-1.62-4.47-1.12-.42.13-.81.31-1.16.55.92-1.54,1.94-3.02,3.05-4.43.88,1.12,2.29,1.79,3.82,1.64,1.63-.16,2.96-1.22,3.55-2.63-.85-1.28-2.36-2.05-4-1.89-.4.04-.78.13-1.14.27,1.23-1.33,2.55-2.57,3.94-3.73.57,1.21,1.71,2.11,3.13,2.32,1.56.22,3.03-.45,3.9-1.63-.5-1.38-1.72-2.45-3.28-2.67-.4-.06-.79-.06-1.17,0,1.53-1.08,3.14-2.07,4.82-2.95.3,1.25,1.21,2.33,2.51,2.79,1.42.5,2.93.15,3.97-.79-.21-1.39-1.16-2.62-2.58-3.13-.35-.12-.7-.19-1.05-.22,1.66-.71,3.38-1.32,5.16-1.82.26-.07.41-.34.34-.6s-.34-.41-.6-.34c-1.83.51-3.62,1.15-5.35,1.9.22-.3.4-.63.53-1,.5-1.42.14-2.93-.8-3.97-1.39.21-2.62,1.16-3.12,2.58-.47,1.31-.2,2.7.59,3.72-1.75.91-3.43,1.94-5.04,3.08.17-.36.3-.76.36-1.18.22-1.56-.45-3.03-1.63-3.91-1.38.5-2.45,1.73-2.67,3.28-.21,1.46.37,2.85,1.41,3.74-1.51,1.24-2.93,2.59-4.26,4.02.1-.43.13-.89.08-1.35-.16-1.63-1.22-2.96-2.64-3.55-1.27.85-2.05,2.36-1.88,3.99.15,1.51,1.06,2.75,2.31,3.4-.11.14-.23.29-.34.44-1.05,1.37-2.01,2.78-2.88,4.24.01-.46-.05-.93-.19-1.4-.5-1.63-1.85-2.78-3.41-3.09-1.13,1.13-1.62,2.83-1.12,4.47.46,1.52,1.66,2.62,3.09,3.02-.82,1.67-1.54,3.39-2.13,5.15-.08-.48-.24-.95-.49-1.4-.84-1.57-2.45-2.46-4.11-2.45-.92,1.38-1.06,3.22-.22,4.78.8,1.48,2.28,2.36,3.84,2.44-.44,1.78-.77,3.59-.98,5.43-.19-.49-.46-.97-.81-1.39-1.19-1.42-3.01-1.99-4.71-1.64-.64,1.61-.41,3.5.78,4.92,1.13,1.36,2.85,1.94,4.48,1.68-.01.47-.02.94-.02,1.41,0,1.38.07,2.74.19,4.09-.33-.48-.74-.9-1.23-1.26-1.56-1.11-3.54-1.2-5.15-.41-.23,1.78.51,3.62,2.07,4.73,1.45,1.03,3.26,1.18,4.81.56.31,1.75.74,3.47,1.26,5.15-.43-.41-.93-.76-1.51-1.01-1.82-.8-3.85-.49-5.31.66.14,1.85,1.27,3.57,3.08,4.37,1.7.75,3.59.52,5.03-.45.66,1.6,1.43,3.16,2.29,4.68-.52-.34-1.12-.59-1.76-.74-2.01-.45-4,.29-5.25,1.75.52,1.85,2.01,3.36,4.02,3.8,1.91.42,3.8-.22,5.06-1.54.55.79,1.13,1.57,1.73,2.33.47.59.95,1.16,1.45,1.72-.62-.26-1.29-.41-2-.42-2.12-.05-4,1.09-4.98,2.82.89,1.77,2.72,3.01,4.84,3.06,2.05.05,3.86-1.02,4.87-2.65,1.25,1.17,2.57,2.27,3.94,3.29-.7-.12-1.44-.11-2.18.06-2.15.47-3.74,2.09-4.3,4.06,1.34,1.56,3.47,2.35,5.61,1.87,2.03-.45,3.57-1.92,4.2-3.76,3.71,2.24,7.75,3.92,11.97,4.95.04,0,.08.01.12.01.22,0,.42-.15.48-.37.06-.26-.1-.53-.36-.59Z"/><path class="cls-2" d="M58.94,75.69l-6.69-3.87c-1.6-.92-3.56-.92-5.16,0l-6.69,3.87c-1.6.92-2.58,2.62-2.58,4.46v7.73c0,1.84.98,3.54,2.58,4.46l6.69,3.87c1.6.92,3.56.92,5.16,0l6.69-3.87c1.6-.92,2.58-2.62,2.58-4.46v-7.73c0-1.84-.98-3.54-2.58-4.46Z"/><path class="cls-1" d="M49.67,97.52c-.95,0-1.91-.25-2.76-.74l-6.91-3.99c-1.7-.98-2.76-2.81-2.76-4.78v-7.98c0-1.97,1.06-3.8,2.76-4.78l6.91-3.99c1.7-.98,3.82-.98,5.52,0l6.91,3.99c1.7.98,2.76,2.81,2.76,4.78v7.98c0,1.97-1.06,3.8-2.76,4.78l-6.91,3.99c-.85.49-1.81.74-2.76.74ZM49.67,71.68c-.75,0-1.51.19-2.18.58l-6.91,3.99c-1.34.78-2.18,2.22-2.18,3.77v7.98c0,1.55.83,2.99,2.18,3.77l6.91,3.99c1.34.77,3.01.77,4.35,0l6.91-3.99c1.34-.78,2.18-2.22,2.18-3.77v-7.98c0-1.55-.83-3-2.18-3.77l-6.91-3.99c-.67-.39-1.42-.58-2.18-.58Z"/><path class="cls-6" d="M49.67,81.22l1.48,2.64-1.48,4.97-2.23-1.24-.04-2.7-2.27-1.63.15-2.05,2.54-1.15,1.86,1.15Z"/><path class="cls-5" d="M54.07,81.22v2.05l-2.12,1.63.11,2.22-2.39,1.72v-7.62l2.28-1.39,2.12,1.39Z"/><path class="cls-5" d="M49.67,77.52l1.48,1.74-1.48,1.96h-4.4l-1.47.09-1.65-1.89c.04-.07.11-.14.19-.18,2.27-1.13,4.8-1.72,7.33-1.72h0Z"/><path class="cls-5" d="M49.67,88.83l1.12,1.4-1.12,2.2c-.09,0-.17-.02-.25-.07-2.04-1.35-3.77-3.16-5.02-5.24l.86-2.59,2.12.37,2.28,3.94Z"/><path class="cls-4" d="M54.93,87.11c-1.25,2.09-2.98,3.89-5.02,5.24-.07.05-.16.07-.25.07v-3.6l2.28-3.94,2.12-.15.86,2.37Z"/><path class="cls-4" d="M47.39,84.89l-2.99,2.22c-1.35-2.25-2.15-4.83-2.31-7.45,0-.09.02-.18.06-.25l3.12,1.8,2.12,3.68Z"/><path class="cls-4" d="M57.18,79.42l-1.45,2.04-1.67-.24h-4.4v-3.7c2.53,0,5.06.6,7.33,1.72.08.04.14.1.19.18Z"/><path class="cls-3" d="M57.24,79.67c-.16,2.62-.96,5.2-2.31,7.45l-2.99-2.22,2.12-3.68,3.12-1.8c.04.07.06.16.06.25h0Z"/></g></svg>