<?xml version="1.0" encoding="UTF-8"?><svg id="_圖層_2" xmlns="http://www.w3.org/2000/svg" viewBox="0 0 20 20"><defs><style>.cls-1{fill:none;}.cls-2{fill:#542b87;fill-rule:evenodd;}</style></defs><g id="_x30_1精選文章"><path class="cls-2" d="M.66,10.01c.02-1.19.03-2.38.06-3.56.02-.83.1-1.65.4-2.44.63-1.67,1.83-2.69,3.55-3.11.63-.15,1.27-.21,1.91-.21,1.88-.02,3.77-.04,5.65-.03.77,0,1.54.04,2.3.11,1.4.13,2.62.66,3.56,1.76.6.71.93,1.53,1.1,2.43.12.64.15,1.29.15,1.95,0,2.07,0,4.15,0,6.22,0,.69-.04,1.37-.18,2.05-.37,1.74-1.35,3-3.01,3.68-.64.26-1.32.4-2.01.42-1.62.04-3.25.07-4.88.07-1.13,0-2.26-.02-3.39-.07-.95-.04-1.86-.26-2.69-.75-1.15-.68-1.87-1.69-2.22-2.97-.22-.79-.26-1.6-.27-2.42-.01-1.04,0-2.07,0-3.11h-.04ZM10.03,17.68v-.02c.77,0,1.55.01,2.32,0,.85-.02,1.7,0,2.53-.17,1.32-.28,2.19-1.06,2.56-2.37.16-.57.2-1.15.2-1.74,0-2.2.02-4.4,0-6.6,0-.53-.05-1.06-.14-1.58-.27-1.44-1.14-2.34-2.58-2.66-.65-.14-1.3-.16-1.96-.17-1.73-.01-3.47-.02-5.2,0-.84,0-1.68,0-2.5.15-1.36.26-2.27,1.03-2.65,2.38-.18.64-.21,1.31-.21,1.97-.01,1.86-.02,3.72-.01,5.58,0,.79,0,1.58.16,2.36.26,1.34,1.02,2.23,2.35,2.61.57.16,1.16.2,1.75.21,1.13.02,2.26.04,3.39.05Z"/><path class="cls-2" d="M10.03,14.81c-2.65,0-4.8-2.15-4.81-4.8,0-2.65,2.15-4.8,4.8-4.8,2.65,0,4.8,2.14,4.8,4.8,0,2.65-2.15,4.8-4.8,4.81ZM10.02,13.11c1.72,0,3.11-1.38,3.12-3.1,0-1.72-1.37-3.12-3.1-3.12-1.73,0-3.12,1.37-3.13,3.11,0,1.72,1.38,3.11,3.1,3.12Z"/><path class="cls-2" d="M16.14,5.01c0,.62-.5,1.12-1.13,1.12-.62,0-1.11-.51-1.11-1.13,0-.62.5-1.11,1.12-1.11.63,0,1.12.5,1.12,1.12Z"/><rect class="cls-1" width="20" height="20"/></g></svg>