<?xml version="1.0" encoding="UTF-8"?><svg id="_圖層_2" xmlns="http://www.w3.org/2000/svg" viewBox="0 0 67.7 55.99"><defs><style>.cls-1{fill:#fff;}</style></defs><g id="_x30_6管理資金_xFF3F_提取"><path class="cls-1" d="M27.99,55.99C12.55,55.99,0,43.42,0,27.99,0,12.55,12.57,0,28.01,0c9.09,0,17.65,4.45,22.89,11.9.63.89.42,2.13-.48,2.76-.89.63-2.14.42-2.77-.48-4.5-6.39-11.84-10.2-19.64-10.21-13.25,0-24.02,10.77-24.03,24.01,0,13.24,10.77,24.02,24.01,24.02,8.34,0,15.97-4.22,20.39-11.31.58-.94,1.82-1.21,2.74-.63.93.58,1.22,1.81.63,2.74-5.15,8.26-14.04,13.19-23.76,13.19Z"/><path class="cls-1" d="M47.17,29.75h-24.48c-.85-.01-1.53-.92-1.53-1.76s.69-1.75,1.53-1.75h24.48c.85,0,1.53.92,1.53,1.76s-.69,1.75-1.53,1.75Z"/><polygon class="cls-1" points="41.64 36.88 67.7 28.01 41.64 19.11 41.64 36.88"/></g></svg>