<?xml version="1.0" encoding="UTF-8"?><svg id="_圖層_2" xmlns="http://www.w3.org/2000/svg" viewBox="0 0 22 22"><defs><style>.cls-1{fill:none;}.cls-2{fill:#9684bb;}</style></defs><g id="_x30_1精選文章"><path class="cls-2" d="M3.3,11.9h-.9c-.82,0-1.48.66-1.48,1.48v6.24c0,.81.66,1.48,1.48,1.48h.9c.82,0,1.48-.66,1.48-1.48v-6.24c0-.82-.66-1.48-1.48-1.48M4.02,19.62c0,.4-.32.72-.72.72h-.9c-.4,0-.72-.32-.72-.72v-6.24c0-.4.32-.72.72-.73h.9c.4,0,.72.33.72.73v6.24Z"/><path class="cls-2" d="M8.73,13.48h-.9c-.82,0-1.48.66-1.48,1.48v4.66c0,.81.66,1.48,1.48,1.48h.9c.81,0,1.48-.66,1.48-1.48v-4.66c0-.82-.67-1.48-1.48-1.48M9.46,19.62c0,.4-.32.72-.72.72h-.9c-.4,0-.72-.32-.72-.72v-4.66c0-.4.32-.72.72-.73h.9c.4,0,.72.33.72.73v4.66Z"/><path class="cls-2" d="M14.17,10.56h-.9c-.82,0-1.48.66-1.48,1.48v7.58c0,.81.66,1.48,1.48,1.48h.9c.81,0,1.48-.66,1.48-1.48v-7.58c0-.81-.66-1.48-1.48-1.48M14.89,19.62c0,.4-.32.72-.72.72h-.9c-.4,0-.72-.32-.72-.72v-7.58c0-.4.32-.72.72-.72h.9c.4,0,.72.32.72.72v7.58Z"/><path class="cls-2" d="M19.6,6.62h-.9c-.82,0-1.48.66-1.48,1.48v11.53c0,.81.66,1.48,1.48,1.48h.9c.82,0,1.48-.66,1.48-1.48v-11.53c0-.82-.66-1.48-1.48-1.48M20.32,19.62c0,.4-.32.72-.72.72h-.9c-.4,0-.72-.32-.73-.72v-11.53c0-.4.33-.72.73-.72h.9c.4,0,.72.33.72.72v11.53Z"/><path class="cls-2" d="M2.85,9.11h0c.5,0,.96-.26,1.23-.68l2.77.82s0,.02,0,.03c0,.8.64,1.45,1.43,1.45.8,0,1.45-.64,1.46-1.43,0-.13-.02-.27-.05-.39l3.02-1.75c.56.56,1.48.56,2.04,0,.39-.39.53-.98.34-1.5l3.14-2.17c.61.52,1.53.45,2.06-.16.52-.62.45-1.54-.16-2.06-.61-.52-1.54-.45-2.06.17-.34.4-.44.95-.26,1.44l-3.14,2.18c-.61-.52-1.52-.44-2.03.17-.3.36-.41.84-.29,1.3l-3.02,1.75c-.56-.56-1.47-.56-2.03,0-.08.08-.15.17-.21.27l-2.77-.82s0-.02,0-.03c0-.8-.65-1.44-1.44-1.44s-1.44.65-1.44,1.44.65,1.44,1.44,1.44M19.15,1.69c.38,0,.69.31.69.69s-.31.69-.69.69c-.23,0-.44-.11-.57-.3-.08-.11-.12-.25-.12-.39,0-.38.31-.69.69-.69M13.72,5.44c.23,0,.44.11.57.3.08.11.12.25.12.39,0,.38-.31.69-.69.69-.25,0-.48-.13-.6-.35-.06-.1-.09-.22-.09-.34,0-.38.31-.69.69-.69M7.62,9.08c.09-.29.36-.49.66-.49.25,0,.47.13.6.34.06.11.09.22.09.34-.02.38-.35.67-.73.65-.35-.02-.63-.3-.65-.65,0-.07,0-.13.03-.19M2.85,6.98c.38,0,.69.31.69.69s-.31.69-.69.69-.69-.31-.69-.69.31-.69.69-.69"/><rect class="cls-1" width="22" height="22"/></g></svg>