<?xml version="1.0" encoding="UTF-8"?><svg id="_圖層_2" xmlns="http://www.w3.org/2000/svg" viewBox="0 0 12.21 12.21"><defs><style>.cls-1{fill:#7c8eb4;fill-rule:evenodd;}</style></defs><g id="_x30_1精選文章"><path class="cls-1" d="M6.07,12.21c-1.03-.01-2-.25-2.9-.75-.08-.04-.15-.05-.23-.02-.75.25-1.51.49-2.27.73-.26.08-.47.02-.6-.18-.1-.15-.09-.3-.04-.47.24-.75.48-1.51.73-2.26.03-.08.02-.15-.02-.22C.23,8.08-.03,7.05,0,5.96c.05-1.77.75-3.26,2.07-4.44C3.05.66,4.2.16,5.5.03c2.88-.29,5.56,1.48,6.44,4.25.99,3.15-.73,6.54-3.86,7.6-.65.22-1.32.33-2,.33ZM1.22,10.99c.06-.02.09-.02.12-.03.48-.15.96-.29,1.44-.47.28-.1.52-.1.76.08.02.01.03.02.05.03,1.12.62,2.32.81,3.57.54,1.29-.27,2.33-.95,3.1-2.02.89-1.23,1.18-2.59.88-4.08-.26-1.28-.94-2.31-1.99-3.09-1.22-.9-2.59-1.2-4.07-.9-1.64.34-2.84,1.3-3.6,2.79-.49.97-.63,2-.46,3.07.1.66.33,1.28.68,1.85.1.17.12.34.06.53-.13.38-.25.75-.37,1.13-.06.17-.11.35-.17.54Z"/><path class="cls-1" d="M3.72,5.51c.33,0,.6.28.59.61,0,.32-.28.59-.6.58-.33,0-.6-.28-.59-.61,0-.32.28-.59.6-.59Z"/><path class="cls-1" d="M6.7,6.11c0,.33-.27.6-.6.6-.32,0-.59-.27-.59-.6,0-.33.27-.6.6-.6.32,0,.59.27.59.6Z"/><path class="cls-1" d="M9.08,6.1c0,.33-.27.6-.6.6-.32,0-.59-.27-.59-.59,0-.33.27-.6.6-.6.32,0,.59.27.59.59Z"/></g></svg>