<?xml version="1.0" encoding="UTF-8"?><svg id="_圖層_2" xmlns="http://www.w3.org/2000/svg" viewBox="0 0 25 25"><defs><style>.cls-1{fill:none;}.cls-2{fill:#fff;}</style></defs><g id="_x30_1精選文章"><rect class="cls-1" width="25" height="25"/><path class="cls-2" d="M13.55,5.63c.96-.9,2.33-2.34,2.87-3.72.25-.64-.25-1.33-.94-1.33h-5.96c-.69,0-1.19.69-.94,1.33.55,1.38,1.91,2.82,2.87,3.72C6.11,6.42,1.58,13.11,1.58,18.46c0,3.29,2.67,5.96,5.96,5.96h9.93c3.29,0,5.96-2.67,5.96-5.96,0-5.34-4.54-12.04-9.88-12.83M11.15,14.25l3.02.5c1.33.22,2.3,1.36,2.3,2.71,0,1.64-1.34,2.98-2.98,2.98v.99c0,.55-.44.99-.99.99s-.99-.45-.99-.99v-.99h-.27c-1.06,0-2.05-.57-2.58-1.49-.27-.47-.11-1.08.36-1.36s1.08-.11,1.36.36c.18.31.51.5.86.5h2.25c.55,0,.99-.45.99-.99,0-.38-.27-.69-.64-.75l-3.02-.5c-1.33-.22-2.3-1.36-2.3-2.71,0-1.64,1.34-2.98,2.98-2.98v-.99c0-.55.44-.99.99-.99s.99.45.99.99v.99h.27c1.06,0,2.05.57,2.58,1.49.27.48.11,1.08-.36,1.36-.47.27-1.08.11-1.36-.36-.18-.31-.51-.5-.86-.5h-2.25c-.55,0-.99.45-.99.99,0,.38.27.69.64.75h0Z"/></g></svg>