<?xml version="1.0" encoding="UTF-8"?><svg id="_圖層_2" xmlns="http://www.w3.org/2000/svg" viewBox="0 0 23.57 19.69"><defs><style>.cls-1{fill:#9684bb;}</style></defs><g id="_x30_1精選文章"><path class="cls-1" d="M23.54,9.79c-.86-2.95-2.27-5.22-4.19-6.78l2.09-2.1c.21-.21.21-.55,0-.76-.21-.21-.55-.21-.76,0l-2.21,2.21c-1.85-1.2-4.09-1.83-6.69-1.85h0C5.71.56,1.76,3.67.02,9.73c-.03.1-.03.2,0,.29.84,2.95,2.22,5.2,4.13,6.73l-2.02,2.03c-.21.21-.21.55,0,.76.1.1.42.29.76,0l2.15-2.15c1.84,1.17,4.1,1.77,6.77,1.79,6.09-.05,10.04-3.1,11.75-9.09.03-.1.03-.2,0-.3h0ZM1.09,9.88C2.7,4.42,6.3,1.63,11.79,1.59c2.31.02,4.29.54,5.92,1.55l-2.72,2.73c-.8-.61-1.88-.93-3.21-.94-3.15.02-4.91,1.81-4.91,4.93,0,1.35.34,2.42.93,3.22l-2.91,2.91c-1.75-1.37-3.01-3.4-3.8-6.12M15.62,9.84c-.05,2.62-1.27,3.85-3.84,3.86-1.04,0-1.86-.21-2.47-.62l5.65-5.67c.41.61.63,1.42.65,2.43h0ZM7.94,9.85c.05-2.58,1.31-3.84,3.84-3.85,1.01,0,1.83.22,2.44.65l-5.65,5.67c-.4-.61-.61-1.43-.62-2.46h0ZM11.79,18.1c-2.37-.02-4.36-.51-6-1.5l2.76-2.77c.8.61,1.88.92,3.23.93,3.15-.02,4.85-1.72,4.91-4.93-.02-1.33-.35-2.4-.95-3.21l2.86-2.86c1.76,1.4,3.05,3.46,3.87,6.18-1.61,5.45-5.11,8.12-10.68,8.16h0Z"/></g></svg>