<?xml version="1.0" encoding="UTF-8"?><svg id="_圖層_2" xmlns="http://www.w3.org/2000/svg" xmlns:xlink="http://www.w3.org/1999/xlink" viewBox="0 0 93.15 36.11"><defs><style>.cls-1,.cls-2{fill:none;}.cls-3{fill:#b6c1dd;}.cls-3,.cls-4,.cls-5,.cls-6,.cls-7,.cls-8,.cls-9,.cls-10,.cls-11,.cls-12,.cls-13,.cls-14,.cls-15{fill-rule:evenodd;}.cls-4{fill:#efefef;}.cls-5{fill:#a3b1d7;}.cls-6{fill:#c5cde1;}.cls-7{fill:#d70027;}.cls-2{stroke:#898989;stroke-miterlimit:10;}.cls-16{fill:#fff;}.cls-8{fill:#0053b4;}.cls-9{fill:#93a4d1;}.cls-10{fill:#95a6d2;}.cls-11{fill:#edeeee;}.cls-12{fill:#edeeef;}.cls-13{fill:#2e52b1;}.cls-14{fill:#f6f5f5;}.cls-15{fill:#eeeeef;}.cls-17{clip-path:url(#clippath);}</style><clipPath id="clippath"><rect class="cls-1" width="93.15" height="36.11" rx="8" ry="8"/></clipPath></defs><g id="_x30_4趨勢資產"><g class="cls-17"><path class="cls-7" d="M103.09,23v4.74c-.14.13-.31.15-.49.16-.16,0-.32,0-.48,0-18.08,0-36.16,0-54.24,0-.31,0-.65.07-.94-.13-.08-.15-.04-.31-.04-.47,0-1.29,0-2.59,0-3.88,0-.14-.03-.29.03-.43.13-.12.29-.13.45-.14.18-.01.35,0,.53,0,18.07,0,36.14,0,54.21,0,.33,0,.68-.08.97.16Z"/><path class="cls-4" d="M46.96,27.7c18.51,0,37.01,0,55.52,0,.2,0,.41.02.61.03v4.65c-.14.13-.31.15-.49.16-.17,0-.35,0-.53,0-18.05,0-36.1,0-54.16,0-.33,0-.68.08-.98-.14-.09-.39-.04-.78-.04-1.17,0-1.04,0-2.07,0-3.11,0-.14-.05-.29.06-.42Z"/><path class="cls-7" d="M46.95,32.4c.13,0,.26-.01.39-.01,18.58,0,37.17,0,55.75,0v4.65c-.14.13-.31.15-.49.16-.16,0-.32,0-.48,0-18.06,0-36.12,0-54.17,0-.25,0-.5.01-.74-.03-.2-.04-.31-.13-.3-.35,0-1.45,0-2.9,0-4.34,0-.03.03-.05.04-.08Z"/><path class="cls-4" d="M103.09,23c-.2,0-.41.03-.61.03-18.29,0-36.58,0-54.86,0-.22,0-.44,0-.66,0-.12-.23-.06-.48-.05-.72,0-.85-.04-1.71.02-2.56.18-.17.41-.15.62-.15.64,0,1.29,0,1.93,0h24.15c.15,0,.29,0,.44,0,.86,0,.78-.04.79-.76,0-.18.01-.35.13-.5.26-.19.56-.14.85-.14,5.2,0,10.4,0,15.6,0,3.62,0,7.24,0,10.86,0,.27,0,.56-.05.79.16v4.65Z"/><path class="cls-4" d="M103.09-.34v4.65c-.23.21-.52.16-.79.16-3.71,0-7.42,0-11.14,0-5.1,0-10.2,0-15.3,0-.29,0-.59.05-.85-.13-.17-.2-.15-.44-.15-.67,0-.96,0-1.93,0-2.89,0-1.04.09-.95-.98-.96-1.14,0-2.28,0-3.42,0-7.54,0-15.08,0-22.62,0-.3,0-.62.07-.89-.14,0-.24.2-.22.34-.24.19-.04.38-.02.57-.02,8.8,0,17.59-.08,26.39.02,9.35.11,18.7.01,28.05.07.27,0,.56-.05.79.16Z"/><path class="cls-4" d="M103.09,8.96v4.74c-.23.21-.52.16-.79.16-3.71,0-7.42,0-11.14,0-5.1,0-10.2,0-15.3,0-.29,0-.59.05-.85-.13-.12-.13-.14-.29-.14-.45-.01-1.3-.01-2.59,0-3.89,0-.16.02-.32.13-.45.26-.19.56-.14.85-.14,5.14,0,10.28,0,15.42,0,3.68,0,7.36,0,11.04,0,.27,0,.56-.05.79.16Z"/><path class="cls-7" d="M103.09,8.96c-.19.01-.38.03-.57.03-9.16,0-18.33,0-27.49,0-.19-.14-.17-.36-.18-.56,0-1.19,0-2.38,0-3.57,0-.2-.01-.41.18-.56,9.35,0,18.7,0,28.06,0v4.65Z"/><path class="cls-7" d="M75.03,13.66c9.16,0,18.33,0,27.49,0,.19,0,.38.02.57.03v4.65h-28.06c-.19-.15-.17-.36-.18-.56,0-1.19,0-2.38,0-3.57,0-.2-.01-.41.18-.56Z"/><path class="cls-14" d="M103.09-.34c-9.18,0-18.36.08-27.54-.02-9.35-.11-18.71,0-28.06-.06-.18,0-.38-.08-.54.09.17.18.16.4.16.62,0,6.28,0,12.57,0,18.85,0,.22,0,.44-.16.62,0,1.09.01,2.19.02,3.28,0,1.56,0,3.11,0,4.67,0,1.56,0,3.13-.01,4.7,0,1.43,0,2.87,0,4.3,0,.27.06.42.36.37.09-.01.17,0,.26,0,18.32,0,36.64,0,54.96,0,.19,0,.38-.02.57-.03.1.45-.08.54-.53.54-18.44-.01-36.88-.01-55.31,0-.33,0-.4-.07-.4-.4,0-12.55,0-25.09,0-37.64,0-.33.07-.4.4-.4,18.44,0,36.88.01,55.31,0,.45,0,.63.09.53.54Z"/><path class="cls-13" d="M46.94,19.75c0-6.7,0-13.39,0-20.09.17,0,.35-.03.52-.03,8.99,0,17.98,0,26.97,0,.58,0,.58,0,.58.6,0,1.36.01,2.72.02,4.08v14.04c0,.36-.03.73-.01,1.09.01.28-.1.37-.35.34-.07,0-.15,0-.22,0-9.01,0-18.02,0-27.03,0-.16,0-.32-.02-.48-.02Z"/><path class="cls-11" d="M69.17,6.44c-.02-.33.09-.58.19-.81.18-.4.07-.64-.29-.85-.2-.11-.4-.23-.55-.46.3-.13.61-.07.9-.06.28,0,.43-.08.5-.36.07-.3.19-.58.3-.91.18.18.2.41.27.6.26.72.04.65.93.66.18,0,.38-.05.59.06-.21.26-.49.42-.74.59-.22.14-.29.29-.19.54.12.29.2.6.22.96-.24-.17-.49-.34-.72-.53-.23-.19-.41-.21-.65-.01-.23.2-.49.36-.77.56Z"/><path class="cls-11" d="M62.29,4.34c.22-.14.4-.09.57-.09.93-.02.7.11,1.01-.74.06-.16.05-.35.24-.49.09.26.21.49.26.74.07.42.3.55.7.5.24-.03.48,0,.8,0-.24.35-.54.48-.79.67-.19.14-.27.26-.17.51.12.29.19.6.3.97-.37-.13-.59-.36-.83-.54-.21-.16-.37-.17-.58,0-.23.19-.49.36-.78.57-.05-.37.11-.64.21-.91.12-.31.05-.48-.22-.65-.24-.14-.45-.32-.71-.51Z"/><path class="cls-12" d="M57.88,2.91c.14.4.27.68.33.97.07.31.24.4.53.38.29-.02.57,0,.94,0-.25.33-.53.49-.79.66-.22.15-.27.3-.18.55.11.28.18.58.29.92-.26-.05-.38-.2-.53-.3-.72-.49-.45-.52-1.21.01-.14.1-.28.2-.47.33-.01-.41.16-.72.26-1.03.07-.21.02-.32-.14-.44-.26-.19-.56-.35-.84-.69.38,0,.68-.02.98,0,.29.02.42-.1.49-.37.08-.29.19-.57.32-.98Z"/><path class="cls-15" d="M65.08,16.42c-.25-.18-.5-.34-.73-.54-.21-.17-.37-.16-.57,0-.23.19-.49.36-.76.55-.06-.29.04-.49.13-.67.2-.44.15-.76-.32-.99-.2-.1-.37-.27-.66-.48.47,0,.81-.01,1.16,0,.21,0,.32-.08.38-.27.1-.33.22-.65.36-1.08.13.37.25.62.29.88.07.4.28.52.67.47.26-.03.52,0,.93,0-.31.24-.51.43-.74.55-.37.2-.43.45-.27.82.1.22.16.46.23.69-.03.02-.07.04-.1.07Z"/><path class="cls-12" d="M51.68,3.09c.22.26.29.58.39.89.06.21.17.28.38.27.33,0,.66,0,1.03.1-.23.17-.44.35-.68.49-.29.17-.36.37-.24.68.11.26.18.54.19.87-.24-.17-.5-.33-.73-.53-.23-.2-.42-.19-.65,0-.18.16-.4.29-.6.43-.12.09-.18.06-.15-.09.04-.18.11-.34.16-.52.23-.42.14-.72-.29-.95-.2-.1-.36-.26-.54-.4.01-.04.02-.07.03-.11.27,0,.54-.02.81,0,.32.03.54-.05.61-.39.12-.25.14-.53.28-.77Z"/><path class="cls-15" d="M57.88,12.94c.14.4.27.67.32.95.07.35.26.44.59.41.29-.03.57,0,.99,0-.37.28-.63.48-.9.66-.21.14-.26.28-.17.52.11.28.19.58.3.94-.33-.1-.53-.27-.71-.43-.28-.25-.53-.3-.82-.01-.18.18-.42.3-.68.49,0-.4.15-.69.25-.98.09-.26.03-.4-.19-.54-.26-.17-.51-.37-.73-.64.33,0,.66-.01.99,0,.23.01.35-.07.41-.29.09-.32.21-.64.35-1.07Z"/><path class="cls-15" d="M70.2,13.02c.12.25.21.4.27.56.28.71.27.71,1.06.72.15,0,.31-.05.52.08-.28.21-.52.41-.79.57-.23.14-.27.31-.17.55.11.28.19.57.31.93-.39-.13-.64-.38-.91-.58-.17-.13-.3-.12-.46,0-.26.21-.54.4-.86.63,0-.4.16-.71.26-1.03.07-.22.03-.35-.15-.48-.27-.18-.53-.39-.77-.67.3,0,.6-.02.9,0,.3.03.46-.08.52-.38.06-.28.17-.55.28-.9Z"/><path class="cls-15" d="M57.89,7.94c.13.38.26.66.32.95.07.33.25.42.56.39.27-.02.55,0,.89,0-.2.32-.46.44-.69.6-.26.17-.35.35-.22.65.1.25.13.52.21.82-.34-.07-.52-.29-.73-.45-.23-.18-.41-.21-.65,0-.22.2-.49.35-.84.6.13-.45.21-.77.33-1.07.09-.23.02-.35-.16-.47-.25-.17-.49-.35-.76-.55.17-.18.35-.11.51-.12.97-.02.71.12,1.03-.76.06-.16.11-.32.21-.58Z"/><path class="cls-15" d="M50.8,15.01c-.28-.2-.57-.4-.9-.64.36-.14.68-.07.98-.07.27,0,.43-.06.49-.36.06-.29.17-.57.3-.97.12.31.25.52.29.75.09.49.36.64.82.58.21-.03.44,0,.71,0-.22.32-.52.47-.78.65-.22.15-.28.3-.18.55.11.28.18.58.29.93-.38-.13-.62-.36-.87-.56-.18-.14-.32-.15-.5,0-.26.21-.54.39-.88.52.1-.31.21-.62.31-.93.09-.17.1-.33-.09-.44Z"/><path class="cls-15" d="M65.01,11.34c-.33-.18-.59-.61-.94-.58-.32.03-.61.37-.91.57-.05.03-.1.06-.19.11,0-.31.1-.56.21-.78.18-.4.07-.65-.29-.86-.2-.11-.37-.26-.61-.43.24-.12.41-.08.57-.08.94-.01.7.09,1.01-.74.06-.16.06-.35.25-.53.11.32.21.61.29.91.07.26.2.39.49.37.29-.02.58,0,.92,0-.13.32-.39.43-.59.55-.34.2-.43.43-.27.78.07.14.1.3.15.46.05.12.12.24-.09.27Z"/><path class="cls-15" d="M71.99,9.4c-.25.19-.5.39-.76.56-.2.13-.23.27-.16.47.11.31.2.63.33,1.01-.37-.16-.61-.37-.85-.57-.2-.16-.36-.18-.57-.01-.25.19-.48.42-.81.55.02-.35.15-.64.26-.93.09-.25.06-.41-.17-.55-.25-.15-.47-.34-.74-.54.3-.19.6-.1.87-.1.31,0,.49-.08.56-.4.06-.27.16-.52.26-.81.21.24.33.5.38.77.07.36.27.47.62.44.26-.02.52,0,.78,0,.01.04.02.07.04.11Z"/><path class="cls-15" d="M50.79,10.71c.2-.39.17-.71-.28-.92-.2-.1-.37-.26-.55-.39.01-.04.02-.07.04-.11.21,0,.42-.02.63,0,.46.06.75-.07.82-.58.03-.22.15-.44.26-.76.14.4.27.7.34,1.01.07.26.2.35.46.34.29-.02.58,0,.91,0-.08.3-.32.39-.5.49-.4.22-.53.49-.3.92.1.2.13.44.24.79-.34-.24-.59-.39-.81-.58-.22-.19-.41-.23-.64-.01-.18.17-.4.29-.6.44-.1.06-.18.07-.18-.09h0c.07-.17.1-.36.17-.53Z"/><path class="cls-9" d="M50.79,5.7c.09.2-.22.4,0,.61-.02.1-.09.15-.18.13-.09-.03-.06-.12-.04-.18.07-.18.08-.4.23-.55Z"/><path class="cls-6" d="M51.68,3.09c-.05.27-.09.55-.28.77.04-.28.07-.56.28-.77Z"/><path class="cls-10" d="M50.79,10.71c.01.2-.03.38-.17.53-.01-.2.03-.38.17-.53Z"/><path class="cls-5" d="M65.01,11.34c.11-.06.07-.18.09-.27.1.1.18.24.09.36-.05.07-.14,0-.18-.09Z"/><path class="cls-3" d="M50.8,15.01c.29.09.27.25.09.44,0-.15.02-.31-.09-.44Z"/><path class="cls-10" d="M50.62,11.24c.06.03.12.06.18.09-.05.09-.11.19-.22.11-.08-.06-.04-.15.04-.2Z"/><rect class="cls-16" x="-.02" y="-1" width="46.74" height="37.91"/><path class="cls-7" d="M27.25,18.01c0,6.12,0,12.25,0,18.37,0,.43-.09.55-.5.54-2.29-.02-4.57-.02-6.86,0-.37,0-.45-.1-.45-.49,0-12.32,0-24.64,0-36.96,0-.39.08-.49.45-.49,2.3.02,4.61.02,6.91,0,.37,0,.45.1.45.49-.01,6.18,0,12.35,0,18.53Z"/><path class="cls-7" d="M8.81,13.74c2.76,0,5.51,0,8.27,0,.37,0,.45.1.45.49-.02,2.49-.02,4.98,0,7.47,0,.4-.1.48-.46.48-5.55-.01-11.09-.01-16.64,0-.37,0-.45-.1-.45-.49C0,19.2,0,16.71-.01,14.21c0-.4.1-.48.46-.48,2.79.02,5.58,0,8.37,0Z"/><path class="cls-7" d="M37.91,22.17c-2.76,0-5.51,0-8.27,0-.36,0-.45-.1-.45-.49.02-2.49.02-4.98,0-7.47,0-.4.1-.48.46-.48,5.54.01,11.09.01,16.64,0,.36,0,.45.09.45.49-.02,2.49-.02,4.98,0,7.47,0,.4-.1.49-.46.48-2.79-.02-5.58,0-8.37,0Z"/><path class="cls-8" d="M3.09-1h.38c4.52,0,9.04,0,13.57-.01.42,0,.5.12.49.55-.02,3.14,0,6.28,0,9.42v.57C12.66,6.02,7.86,2.55,3.05-.91c0-.03.02-.06.03-.1Z"/><path class="cls-8" d="M43.74-.96c-4.87,3.51-9.67,6.97-14.46,10.43-.13-.12-.08-.25-.08-.36,0-3.21,0-6.42,0-9.63,0-.26-.05-.49.35-.49,4.65.02,9.31.01,13.96.01.04,0,.09.02.23.04Z"/><path class="cls-8" d="M17.52,26.38v2.66c0,2.47,0,4.95,0,7.42,0,.25.04.46-.33.46-4.7-.02-9.4-.01-14.15-.1,4.8-3.46,9.59-6.92,14.48-10.45Z"/><path class="cls-8" d="M43.64,36.92h-7.69c-2.12,0-4.25,0-6.38,0-.23,0-.38,0-.38-.34.01-3.33,0-6.67.01-10,0-.03.02-.06.05-.16,4.82,3.47,9.62,6.94,14.42,10.4-.01.03-.03.06-.04.1Z"/><path class="cls-7" d="M29.31,11.55c5.79-4.17,11.56-8.33,17.41-12.56,0,1.05,0,2.02,0,2.99,0,.2-.13.27-.25.35-4.06,3.04-8.12,6.08-12.18,9.13-.14.1-.27.17-.45.17-1.47,0-2.95,0-4.42,0-.02,0-.05-.03-.11-.08Z"/><path class="cls-7" d="M29.37,24.28c1.5,0,3.01,0,4.51,0,.18,0,.3.09.44.19,4.05,3.03,8.1,6.06,12.14,9.09.13.1.27.17.27.4-.01.96,0,1.91,0,2.96-5.84-4.21-11.61-8.38-17.38-12.54,0-.03.02-.06.03-.09Z"/><path class="cls-7" d="M17.36,11.64c-1.49,0-2.98,0-4.47,0-.19,0-.34-.08-.48-.19C8.37,8.42,4.33,5.4.29,2.38.11,2.24-.02,2.12-.01,1.84,0,.93,0,.02,0-1.01,5.83,3.2,11.61,7.37,17.39,11.54c-.01.03-.02.06-.04.1Z"/><path class="cls-7" d="M17.38,24.38C11.61,28.54,5.85,32.7,0,36.91,0,35.85,0,34.86,0,33.88c0-.19.17-.25.28-.33,4.05-3.03,8.1-6.06,12.14-9.1.11-.08.2-.18.34-.18,1.53,0,3.06,0,4.6,0,0,.03,0,.07.01.1Z"/><path class="cls-8" d="M9.57,11.64h-4.7c-1.51,0-3.01,0-4.52,0-.27,0-.36-.07-.36-.37,0-2.3,0-4.59,0-7,3.24,2.45,6.42,4.86,9.61,7.27,0,.03-.02.07-.03.1Z"/><path class="cls-8" d="M37.12,11.54c3.18-2.4,6.35-4.81,9.61-7.28v.58c0,2.12,0,4.24,0,6.36,0,.22.05.44-.29.44-3.09-.01-6.18,0-9.28,0-.01-.03-.02-.06-.04-.1Z"/><path class="cls-8" d="M0,31.65c0-2.42,0-4.74,0-7.05,0-.25.06-.33.3-.33,3.09,0,6.19,0,9.44,0C6.43,26.77,3.25,29.18,0,31.65Z"/><path class="cls-8" d="M36.99,24.28h.56c2.9,0,5.8,0,8.7,0,.38,0,.48.09.48.51-.02,2.12-.01,4.24-.01,6.36v.51c-3.25-2.46-6.43-4.87-9.73-7.37Z"/><line class="cls-2" x1="46.58" x2="46.58" y2="36.11"/></g></g></svg>