<?xml version="1.0" encoding="UTF-8"?><svg id="_圖層_2" xmlns="http://www.w3.org/2000/svg" xmlns:xlink="http://www.w3.org/1999/xlink" viewBox="0 0 97.27 39.39"><defs><style>.cls-1,.cls-2{fill:none;}.cls-3{fill:#f4f4f4;}.cls-3,.cls-4,.cls-5,.cls-6{fill-rule:evenodd;}.cls-4{fill:#d70027;}.cls-2{stroke:#898989;stroke-miterlimit:10;}.cls-7{fill:#fff;}.cls-5{fill:#0053b4;}.cls-6{fill:#fe4b55;}.cls-8{clip-path:url(#clippath);}</style><clipPath id="clippath"><rect class="cls-1" x=".01" y="1.28" width="93.16" height="36.11" rx="8" ry="8"/></clipPath></defs><g id="_x30_4趨勢資產"><g class="cls-8"><path class="cls-3" d="M97.27.9v37.59c-.18.61-.65.82-1.23.88-.29.03-.58.02-.87.02h-55.21c-.29,0-.58,0-.87-.02-.58-.06-1.05-.27-1.23-.88V.9c.18-.61.65-.82,1.23-.88.29-.03.58-.02.87-.02C58.37,0,76.77,0,95.17,0c.29,0,.58,0,.87.02.58.06,1.05.26,1.23.88Z"/><path class="cls-6" d="M69.59,8.44c6.21.01,11.24,5.06,11.24,11.27,0,6.23-5.08,11.28-11.31,11.25-6.21-.03-11.23-5.09-11.21-11.3.02-6.21,5.07-11.23,11.28-11.22Z"/><rect class="cls-7" y=".28" width="46.74" height="37.91"/><path class="cls-4" d="M27.27,19.29c0,6.12,0,12.25,0,18.37,0,.43-.09.55-.5.54-2.29-.02-4.57-.02-6.86,0-.37,0-.45-.1-.45-.49.01-12.32.01-24.64,0-36.96,0-.39.08-.49.45-.49,2.3.02,4.61.02,6.91,0,.37,0,.45.1.45.49-.01,6.18,0,12.35,0,18.53Z"/><path class="cls-4" d="M8.82,15.03c2.76,0,5.51,0,8.27,0,.37,0,.45.1.45.49-.02,2.49-.02,4.98,0,7.47,0,.4-.1.48-.46.48-5.55-.01-11.09-.01-16.64,0-.37,0-.45-.1-.45-.49.02-2.49.02-4.98,0-7.47,0-.4.1-.48.46-.48,2.79.02,5.58,0,8.37,0Z"/><path class="cls-4" d="M37.92,23.45c-2.76,0-5.51,0-8.27,0-.36,0-.45-.1-.45-.49.02-2.49.02-4.98,0-7.47,0-.4.1-.48.46-.48,5.55.01,11.09.01,16.64,0,.36,0,.45.09.45.49-.02,2.49-.02,4.98,0,7.47,0,.4-.1.49-.45.48-2.79-.02-5.58,0-8.37,0Z"/><path class="cls-5" d="M3.1.28h.38c4.52,0,9.05,0,13.57-.01.42,0,.5.12.5.55-.02,3.14-.01,6.28-.01,9.42v.57C12.67,7.3,7.87,3.84,3.07.38c.01-.03.02-.06.03-.1Z"/><path class="cls-5" d="M43.76.32c-4.87,3.51-9.67,6.97-14.46,10.43-.13-.12-.08-.25-.08-.36,0-3.21,0-6.42,0-9.63,0-.26-.05-.49.35-.49,4.65.02,9.31.01,13.96.01.04,0,.09.02.23.04Z"/><path class="cls-5" d="M17.53,27.67v2.66c0,2.47,0,4.95,0,7.42,0,.25.04.46-.33.46-4.7-.02-9.4-.01-14.15-.1,4.8-3.46,9.59-6.92,14.48-10.45Z"/><path class="cls-5" d="M43.65,38.2h-7.68c-2.12,0-4.25,0-6.38,0-.23,0-.39,0-.38-.34.01-3.33,0-6.67.01-10,0-.03.02-.06.05-.16,4.82,3.47,9.62,6.94,14.42,10.4-.01.03-.02.06-.04.1Z"/><path class="cls-4" d="M29.33,12.84c5.78-4.17,11.56-8.33,17.41-12.56,0,1.05,0,2.02,0,2.99,0,.2-.14.27-.25.35-4.06,3.04-8.12,6.08-12.18,9.13-.14.1-.27.17-.44.17-1.48,0-2.95,0-4.43,0-.02,0-.05-.03-.11-.08Z"/><path class="cls-4" d="M29.38,25.56c1.5,0,3.01,0,4.51,0,.18,0,.3.09.44.19,4.05,3.03,8.1,6.06,12.14,9.09.13.1.27.17.27.4-.01.96,0,1.91,0,2.96-5.84-4.21-11.61-8.38-17.38-12.54,0-.03.02-.06.03-.09Z"/><path class="cls-4" d="M17.37,12.92c-1.49,0-2.98,0-4.47,0-.19,0-.33-.08-.48-.19C8.38,9.7,4.34,6.68.31,3.66.12,3.53,0,3.4,0,3.12c.02-.91,0-1.82,0-2.85,5.84,4.21,11.62,8.38,17.4,12.55-.01.03-.02.06-.04.1Z"/><path class="cls-4" d="M17.39,25.66C11.62,29.82,5.86,33.98.01,38.2c0-1.06,0-2.05,0-3.04,0-.19.17-.25.28-.33,4.05-3.03,8.1-6.06,12.14-9.1.11-.08.2-.18.34-.18,1.53,0,3.06,0,4.6,0,0,.03,0,.07.01.1Z"/><path class="cls-5" d="M9.58,12.92h-4.7c-1.51,0-3.01,0-4.52,0-.27,0-.36-.07-.36-.37.01-2.3,0-4.59,0-7,3.24,2.45,6.42,4.86,9.61,7.27-.01.03-.02.07-.03.1Z"/><path class="cls-5" d="M37.13,12.82c3.18-2.4,6.35-4.81,9.61-7.28v.58c0,2.12,0,4.24,0,6.36,0,.22.05.44-.29.44-3.09-.01-6.18,0-9.28,0-.01-.03-.02-.06-.04-.1Z"/><path class="cls-5" d="M.01,32.93c0-2.42,0-4.74,0-7.05,0-.25.06-.33.3-.33,3.09,0,6.18,0,9.44,0C6.45,28.06,3.27,30.47.01,32.93Z"/><path class="cls-5" d="M37,25.56h.56c2.9,0,5.8,0,8.7,0,.38,0,.48.09.48.51-.02,2.12-.01,4.24-.01,6.36v.51c-3.25-2.46-6.43-4.87-9.73-7.37Z"/><line class="cls-2" x1="46.59" y1="1.28" x2="46.59" y2="37.39"/></g></g></svg>