<?xml version="1.0" encoding="UTF-8"?><svg id="_圖層_2" xmlns="http://www.w3.org/2000/svg" viewBox="0 0 26 25.84"><defs><style>.cls-1{fill:#fff;}.cls-1,.cls-2{fill-rule:evenodd;}.cls-2{fill:#f79320;}</style></defs><g id="_x30_5管理資金_xFF3F_資金"><path class="cls-2" d="M26,17.34c0-4.69-3.8-8.5-8.5-8.5s-8.5,3.81-8.5,8.5,3.8,8.5,8.5,8.5,8.5-3.8,8.5-8.5Z"/><path class="cls-2" d="M8.98,0c.52.06,1.03.11,1.54.2,1.42.24,2.78.67,3.97,1.52.34.24.66.53.94.85,1.07,1.23,1.03,2.72-.07,3.91-.82.88-1.86,1.4-2.99,1.77-2.23.71-4.5.8-6.79.41-1.39-.24-2.71-.66-3.89-1.48-.76-.52-1.37-1.17-1.62-2.1-.02-.08-.05-.17-.07-.25v-.68c.25-1.18,1.01-1.97,1.98-2.59C3.15.82,4.43.42,5.78.2c.49-.08.99-.13,1.49-.2h1.71Z"/><path class="cls-2" d="M0,7.71c1.84,1.63,4.08,2.29,6.46,2.55,1.23.13,2.45.11,3.73-.04-.17.19-.31.34-.44.5-.62.71-1.12,1.49-1.5,2.36-.07.16-.15.22-.32.21-1.9-.05-3.75-.36-5.47-1.24-.74-.38-1.4-.86-1.9-1.54-.29-.39-.44-.83-.56-1.28v-1.51Z"/><path class="cls-2" d="M0,16.5c.74.65,1.55,1.17,2.46,1.55,1.51.64,3.1.95,4.73,1.04.48.02.48.02.61.47.23.8.56,1.56.99,2.27.03.05.06.11.1.19-.21.01-.39.03-.58.03-1.95.01-3.84-.27-5.61-1.11-.83-.39-1.58-.9-2.14-1.65-.29-.38-.44-.82-.56-1.28v-1.51Z"/><path class="cls-2" d="M0,12.11c.77.69,1.63,1.22,2.59,1.61,1.45.59,2.96.88,4.52.98.15,0,.29.02.44.03.03,0,.06.01.12.02-.2.94-.32,1.89-.22,2.9-.43-.04-.84-.07-1.25-.12-1.49-.2-2.91-.58-4.21-1.36-.6-.36-1.15-.78-1.51-1.39-.21-.36-.33-.77-.49-1.15v-1.51Z"/><path class="cls-1" d="M16.32,21.1c-.25-.07-.49-.14-.73-.21-.17.58-.34,1.16-.51,1.75-.37-.11-.72-.21-1.09-.32.17-.58.34-1.16.52-1.76-.71-.21-1.4-.41-2.1-.61.11-.39.22-.75.34-1.15.22.06.44.13.67.2.44.13.6.04.73-.4.46-1.56.91-3.12,1.37-4.68.1-.35.03-.5-.32-.62-.28-.09-.57-.17-.87-.26.11-.38.22-.74.33-1.13.72.21,1.43.42,2.16.63.17-.58.33-1.14.5-1.72.37.11.72.21,1.08.32-.17.57-.33,1.13-.5,1.71.24.07.48.14.73.21.16-.56.33-1.13.5-1.7.37.11.71.21,1.08.32-.09.31-.18.61-.27.91-.06.22-.12.43-.19.64-.05.14-.02.2.12.26.58.24,1.1.57,1.53,1.04.85.92.41,2.3-.54,2.8-.14.07-.28.12-.42.19.17.16.36.3.5.48.59.75.58,1.56.16,2.38-.54,1.07-1.44,1.49-2.69,1.29-.34-.06-.67-.14-1.03-.22-.17.57-.34,1.15-.51,1.74-.36-.1-.7-.21-1.06-.31.17-.57.34-1.15.51-1.75ZM15.94,19.6c.42.12.83.24,1.23.36.1.03.21.06.31.08.43.07.85.08,1.24-.16.54-.33.72-1.09.36-1.54-.09-.11-.21-.21-.33-.3-.64-.43-1.41-.51-2.13-.77-.23.78-.45,1.54-.68,2.32ZM16.94,16.16c.49.14.95.3,1.42.4.19.04.41,0,.59-.06.43-.16.66-.5.72-.95.06-.42-.18-.7-.5-.92-.49-.33-1.06-.42-1.61-.6-.21.72-.41,1.41-.62,2.12Z"/></g></svg>