<?xml version="1.0" encoding="UTF-8"?><svg id="_圖層_2" xmlns="http://www.w3.org/2000/svg" viewBox="0 0 24 18"><defs><style>.cls-1{fill:#7c8199;}</style></defs><g id="_x30_8使用者_x5F_VIP等級"><path class="cls-1" d="M12,18C4.5,18,1.06,11.74.18,9.82c-.24-.52-.24-1.12,0-1.64C1.06,6.26,4.5,0,12,0s10.94,6.26,11.82,8.18c.24.52.24,1.12,0,1.64-.88,1.92-4.33,8.18-11.82,8.18ZM12,2C5.69,2,2.75,7.37,2,9.01c.75,1.62,3.69,6.99,10,6.99s9.25-5.37,10-7.01c-.75-1.62-3.7-6.99-10-6.99ZM12,4c-2.76,0-5,2.24-5,5s2.24,5,5,5,5-2.24,5-5-2.24-5-5-5ZM13,12.5h-2v-2h2v2ZM13,9.5h-2v-4h2v4Z"/></g></svg>