<?xml version="1.0" encoding="UTF-8"?><svg id="_圖層_2" xmlns="http://www.w3.org/2000/svg" viewBox="0 0 13.73 13.73"><defs><style>.cls-1{fill:#542b87;fill-rule:evenodd;}</style></defs><g id="_x30_1精選文章"><path class="cls-1" d="M8.8,13.73c-.54,0-1.03-.35-1.19-.86-.27-.89-.52-1.79-.77-2.69-.24-.82-.47-1.65-.71-2.47-.02-.07-.05-.1-.12-.12-1.7-.48-3.4-.97-5.1-1.46C.4,5.99.01,5.51,0,4.98c-.01-.58.31-1.08.85-1.25.82-.26,1.65-.5,2.47-.75,1.87-.56,3.73-1.12,5.6-1.68,1.41-.43,2.82-.85,4.24-1.28.17-.05.32-.04.45.09.13.13.14.28.09.45-.74,2.45-1.47,4.9-2.21,7.35-.48,1.6-.96,3.2-1.44,4.8-.16.54-.5.89-1.06.99-.06.01-.13.01-.19.02ZM12.47,1.86s-.01,0-.02,0c-.03.02-.05.05-.08.07-1.8,1.8-3.61,3.61-5.41,5.41-.06.06-.07.1-.04.18.3,1.04.6,2.09.9,3.13.18.64.37,1.29.56,1.94.08.27.34.4.6.31.15-.05.24-.17.29-.32.2-.65.39-1.3.59-1.95.82-2.73,1.64-5.46,2.46-8.2.06-.19.11-.38.17-.56ZM11.89,1.26c-.07.02-.11.03-.15.04-2.82.84-5.64,1.69-8.45,2.54-.71.21-1.42.43-2.13.64-.16.05-.27.14-.32.3-.09.28.06.52.38.61,1.66.47,3.32.94,4.97,1.42.1.03.16.02.23-.06,1.79-1.79,3.58-3.59,5.37-5.38.03-.03.06-.06.11-.11Z"/></g></svg>