<?xml version="1.0" encoding="UTF-8"?><svg id="_圖層_2" xmlns="http://www.w3.org/2000/svg" viewBox="0 0 19.08 18.27"><defs><style>.cls-1{fill:#ae86ef;fill-rule:evenodd;}</style></defs><g id="_x30_2發現市場"><path class="cls-1" d="M3.13,16.76c.15-.87.31-1.85.48-2.82.09-.54.16-1.08.28-1.61.1-.42-.03-.7-.33-.99-1-.95-1.97-1.93-2.97-2.88-.47-.45-.74-.94-.52-1.59.21-.63.7-.88,1.33-.96,1.37-.18,2.72-.4,4.09-.58.42-.06.69-.23.88-.62.6-1.28,1.25-2.53,1.87-3.81.27-.56.68-.89,1.3-.89s1.03.34,1.3.89c.62,1.27,1.26,2.53,1.87,3.81.18.38.43.56.84.62,1.41.19,2.82.41,4.24.6.59.08,1.02.37,1.22.94.2.58.02,1.07-.41,1.49-1.03,1-2.06,2.01-3.1,3.01-.27.26-.38.53-.31.92.27,1.43.5,2.86.74,4.29.1.57-.05,1.06-.52,1.42-.48.35-.99.36-1.51.09-1.29-.68-2.59-1.35-3.88-2.05-.33-.18-.61-.18-.94,0-1.3.7-2.6,1.39-3.92,2.06-.97.49-2.04-.17-2.02-1.34Z"/></g></svg>