<?xml version="1.0" encoding="UTF-8"?><svg id="_圖層_2" xmlns="http://www.w3.org/2000/svg" viewBox="0 0 22 22"><defs><style>.cls-1{fill:none;}.cls-2{fill:#9684bb;}</style></defs><g id="_x30_1精選文章"><path class="cls-2" d="M20.79,4.89l-3.68-3.68c-.19-.19-.44-.29-.7-.29s-.51.1-.7.29l-1.82,1.81c-4.41-1.6-9.29.68-10.88,5.09-.33.93-.5,1.9-.5,2.89,0,.91.14,1.8.43,2.66l-1.74,1.74c-.38.39-.38,1.01,0,1.4.19.18.44.29.7.29h1.28v2.71c0,.71.58,1.29,1.29,1.29h2.21c.1,0,.2-.01.29-.03.59-.13,1.01-.66,1.01-1.27v-.85c.26.1.53.19.8.26,4.54,1.22,9.2-1.47,10.41-6,.2-.72.29-1.45.29-2.19,0-1.14-.23-2.27-.68-3.31v-1.12h1.29c.54,0,.99-.44.99-.99,0-.26-.1-.51-.29-.7M4.28,7.16c1.8-3.15,5.55-4.64,9.03-3.55l-1.08,1.08c-.4-.08-.82-.12-1.23-.12-3.54,0-6.42,2.86-6.43,6.41,0,.33.02.65.08.98l-1.1,1.1c-.55-1.98-.29-4.1.73-5.89M15.31,10.57h1.35c.01.14.02.28.02.42,0,2.57-1.72,4.81-4.2,5.48-.77.21-1.57.25-2.36.13.23-.39.17-.89-.15-1.21l-3.68-3.68c-.19-.19-.44-.29-.7-.29h0s-.1.01-.15.02c-.02,0-.04,0-.06.01,0,0-.02,0-.03,0-.01-.15-.02-.3-.02-.45,0-3.13,2.55-5.67,5.68-5.67.26,0,.51.02.76.05,0,.06-.02.12-.02.18,0,.2.05.4.16.57.18.29.49.46.83.45h1.29v2.71c0,.72.58,1.29,1.29,1.29M7.61,16.33c-.21,0-.37.17-.37.38v3.09c0,.25-.18.47-.43.53-.04.01-.08.01-.12.01h-2.21c-.3,0-.54-.24-.54-.54v-3.09c0-.21-.17-.38-.38-.38h-1.66c-.08,0-.15-.04-.2-.1-.04-.07-.05-.15-.02-.23.01-.03.03-.05.05-.07l1.9-1.9s0,0,0,0l1.79-1.79s.1-.07.16-.07c.06,0,.12.03.16.07l3.69,3.68c.09.09.09.24,0,.33-.04.04-.1.07-.17.07h-1.66ZM17.72,14.83c-1.94,3.4-6.12,4.81-9.73,3.3v-1.05h.93c.13.05.27.09.41.13,2.82.76,5.81-.48,7.26-3.02.62-1.09.92-2.35.83-3.61.5.03,1.01-.23,1.25-.67.25,1.7-.09,3.43-.94,4.92M20.26,5.75s-.1.07-.17.07h-1.66c-.21,0-.38.17-.38.38v3.08c0,.25-.18.48-.43.53-.04.01-.07.01-.12.01h-2.21c-.3,0-.54-.24-.54-.54v-3.08c0-.21-.17-.38-.38-.38h-1.67c-.08,0-.15-.04-.19-.1-.04-.07-.05-.15-.02-.23.01-.02.03-.05.04-.07l.05-.05,3.64-3.64s.1-.06.16-.06c.06,0,.12.03.17.07l3.68,3.68c.09.09.09.24,0,.33"/><path class="cls-2" d="M11.26,10.62h-.53c-.35,0-.62-.28-.62-.62s.28-.62.62-.62h1.26c.21,0,.37-.16.37-.38s-.16-.38-.37-.38h-.62v-.46c0-.21-.17-.38-.38-.38s-.37.17-.37.38v.47c-.75.06-1.32.72-1.26,1.48.06.71.65,1.26,1.37,1.26h.53c.35,0,.62.29.61.63,0,.33-.28.6-.61.61h-1.26c-.21,0-.38.17-.38.38s.17.38.38.38h.62v.46c0,.21.16.38.37.38s.38-.17.38-.38v-.47c.76-.06,1.32-.72,1.26-1.48-.06-.71-.65-1.26-1.37-1.26"/><rect class="cls-1" width="22" height="22"/></g></svg>