<?xml version="1.0" encoding="UTF-8"?><svg id="_圖層_2" xmlns="http://www.w3.org/2000/svg" viewBox="0 0 25 25"><defs><style>.cls-1{fill:none;}.cls-2{fill:#fff;}</style></defs><g id="_x30_1精選文章"><rect class="cls-1" width="25" height="25"/><path class="cls-2" d="M10.48,4.04c.4-.37.79-.87.79-1.41h-3.29c0,.54.39,1.04.79,1.41-1.36.53-2.85,2.13-2.85,3.59,0,1.32,1.02,2.4,2.26,2.4h2.88c1.25,0,2.26-1.08,2.26-2.4,0-1.46-1.49-3.06-2.85-3.59M21.67,9.77c-.42-.39-.98-.59-1.54-.56-.57.03-1.1.28-1.48.69l-2.91,3.07c.03.17.05.35.05.52,0,1.71-1.28,3.19-2.98,3.43l-3.49.5-.23-1.63,3.49-.5c.89-.13,1.56-.9,1.56-1.8,0-1-.82-1.82-1.82-1.82h-7.23c-1.36,0-2.47,1.11-2.47,2.47v5.76c0,1.36,1.11,2.47,2.47,2.47h7.95l8.78-9.59c.78-.87.71-2.23-.16-3.02h0ZM15.18,6.54l-1.16-1.16,2.26-2.26c.64-.64,1.69-.64,2.33,0l2.26,2.26-1.16,1.16-1.44-1.44v3.01c-.3.18-.57.4-.8.66l-.84.89v-4.56l-1.44,1.44Z"/></g></svg>