<?xml version="1.0" encoding="UTF-8"?><svg id="_圖層_2" xmlns="http://www.w3.org/2000/svg" viewBox="0 0 25 25"><defs><style>.cls-1{fill:none;}.cls-2{fill:#fff;}</style></defs><g id="_x30_1精選文章"><rect class="cls-1" width="25" height="25"/><path class="cls-2" d="M12.5,12.5c3.07,0,5.56-2.49,5.56-5.56S15.57,1.38,12.5,1.38s-5.56,2.49-5.56,5.56,2.49,5.56,5.56,5.56M9.46,5.15c.14-1,1.03-1.73,2.04-1.73h.26v-.37c0-.41.33-.74.74-.74s.74.33.74.74v.37h.38c.66,0,1.25.3,1.64.77.39.47.06,1.17-.55,1.17-.21,0-.47-.1-.61-.25-.12-.13-.29-.21-.48-.21h-2.14c-.26,0-.49.17-.54.42-.06.3.14.57.42.63l2.59.52c1.03.21,1.75,1.19,1.6,2.26-.14,1-1.03,1.73-2.04,1.73h-.26v.37c0,.41-.33.74-.74.74s-.74-.33-.74-.74v-.37h-.4c-.66,0-1.25-.3-1.64-.77-.39-.47-.06-1.17.55-1.17.21,0,.47.1.62.25.12.13.29.21.48.21h2.16c.26,0,.49-.17.54-.43.06-.29-.13-.57-.42-.63l-2.59-.52c-1.03-.21-1.75-1.19-1.6-2.26h0ZM13.43,16.44l4.43,3.96-3.13,2.45c-.64.5-1.42.77-2.23.77s-1.59-.27-2.23-.77l-2.76-2.16c-.65-.51-1.46-.78-2.28-.78h-2.92c-.51,0-.93-.42-.93-.93v-6.48c0-.51.41-.93.93-.93h3.26c.36,0,.72-.04,1.07-.11.57.73,1.26,1.35,2.05,1.82-.95.99-1.1,2.53-.33,3.6.48.67,1.08,1.17,2.16,1.17.73,0,1.54-.29,2.04-.79l.87-.83h0ZM12.5,14.35c.18,0,.35-.01.52-.03l-1.73,1.61c-.19.19-.46.29-.73.27-.27-.02-.52-.16-.68-.39-.25-.35-.18-.9.17-1.25l.49-.48c.63.17,1.29.27,1.97.27h0ZM23.62,12.5v6.48c0,.51-.41.93-.93.93h-2.61l-6.33-5.67c1.88-.32,3.51-1.34,4.63-2.79.37.08.75.13,1.14.13h3.18c.51,0,.93.41.93.93h0Z"/></g></svg>