<?xml version="1.0" encoding="UTF-8"?><svg id="_圖層_2" xmlns="http://www.w3.org/2000/svg" viewBox="0 0 18 18.02"><defs><style>.cls-1{fill:#9684bb;}</style></defs><g id="_x30_1精選文章"><path class="cls-1" d="M18,8.62c0,.21-.15.38-.36.39h-.02c-.2,0-.37-.16-.38-.36-.19-4.43-3.81-7.9-8.25-7.9-2.79,0-5.38,1.43-6.9,3.75h2.4c.21,0,.38.17.38.38s-.17.38-.38.38H1.87c-.62,0-1.13-.51-1.13-1.13V1.13c0-.21.17-.38.38-.38s.38.17.38.38v2.94C3.15,1.55,5.97,0,9,0c4.84,0,8.79,3.79,9,8.62M16.14,12.76h-2.63c-.21,0-.38.17-.38.37s.17.38.38.38h2.4c-1.52,2.32-4.12,3.75-6.9,3.75-4.44,0-8.06-3.47-8.25-7.9,0-.21-.18-.37-.39-.36-.21,0-.37.18-.36.39.21,4.83,4.16,8.62,9,8.62,3.03,0,5.85-1.55,7.51-4.06v2.94c0,.21.17.37.38.37s.38-.17.38-.37v-3c0-.62-.51-1.13-1.13-1.13h0Z"/></g></svg>