<?xml version="1.0" encoding="UTF-8"?><svg id="_圖層_2" xmlns="http://www.w3.org/2000/svg" viewBox="0 0 24.96 29.95"><defs><style>.cls-1{fill:#9080b2;fill-rule:evenodd;}</style></defs><g id="_x30_1精選文章"><path class="cls-1" d="M4.62,29.95c-.34-.07-.69-.12-1.02-.22C1.46,29.13.11,27.48.02,25.24c-.1-2.31.16-4.59,1.04-6.76.57-1.4,1.39-2.61,2.77-3.35.85-.46,1.77-.67,2.72-.65.3,0,.62.16.9.31.44.24.85.54,1.29.81,2.51,1.55,5.01,1.55,7.51,0,.35-.21.7-.42,1.03-.67.6-.45,1.26-.5,1.97-.4,1.94.29,3.31,1.35,4.24,3.05.83,1.52,1.2,3.16,1.36,4.86.09.87.13,1.75.11,2.63-.03,2.61-1.82,4.55-4.42,4.84-.06,0-.13.03-.19.05H4.62Z"/><path class="cls-1" d="M12.98,0c.39.08.78.14,1.17.24,2.65.62,4.92,3.15,5.27,5.86.24,1.78-.02,3.47-1.03,4.97-1.34,2-3.19,3.17-5.63,3.33-3.21.22-5.86-1.67-7.06-4.24-1.13-2.41-.67-5.62,1.1-7.62C7.88,1.32,9.19.48,10.8.15c.27-.06.55-.1.83-.15h1.34Z"/></g></svg>