<?xml version="1.0" encoding="UTF-8"?><svg id="_圖層_2" xmlns="http://www.w3.org/2000/svg" viewBox="0 0 43.35 43.35"><defs><style>.cls-1{fill:#9684bb;}.cls-2{fill:#fff;}</style></defs><g id="_x30_1精選文章"><path class="cls-2" d="M43.35,21.68c0,11.97-9.71,21.68-21.68,21.68S0,33.65,0,21.68,9.7,0,21.68,0s21.68,9.71,21.68,21.68"/><path class="cls-1" d="M27.4,32.52c2.16,0,3.91-1.76,3.91-3.91,0-3.82-3.11-6.92-6.92-6.92h-5.42c-3.82,0-6.92,3.11-6.92,6.92,0,2.16,1.76,3.91,3.91,3.91h11.44Z"/><path class="cls-1" d="M16.86,15.66c0,2.66,2.15,4.82,4.82,4.82s4.82-2.15,4.82-4.82-2.15-4.82-4.82-4.82-4.82,2.15-4.82,4.82"/></g></svg>