<?xml version="1.0" encoding="UTF-8"?><svg id="_圖層_2" xmlns="http://www.w3.org/2000/svg" viewBox="0 0 20 20"><defs><style>.cls-1{fill:none;}.cls-2{fill:#542b87;fill-rule:evenodd;}</style></defs><g id="_x30_1精選文章"><path class="cls-2" d="M2.73,2.56h.14c1.36,0,2.72,0,4.08,0,.08,0,.13.02.18.09,1.2,1.75,2.41,3.51,3.61,5.26.02.03.05.07.08.11.04-.04.07-.07.1-.11,1.51-1.76,3.03-3.52,4.54-5.28.05-.06.1-.08.18-.08.35,0,.7,0,1.05,0,.03,0,.07,0,.12,0-.07.08-.12.15-.18.21-1.7,1.98-3.41,3.96-5.11,5.94-.02.02-.04.05-.06.07-.06.05-.05.1,0,.16.58.85,1.17,1.7,1.75,2.55,1.34,1.95,2.68,3.89,4.01,5.84.02.03.04.06.06.1-.05,0-.08,0-.11,0-1.37,0-2.74,0-4.1,0-.08,0-.13-.03-.18-.1-1.27-1.86-2.55-3.71-3.82-5.57-.02-.03-.05-.07-.08-.11-.17.19-.33.38-.48.56-1.47,1.71-2.94,3.41-4.4,5.12-.05.06-.11.09-.2.09-.38,0-.76,0-1.16,0,.03-.04.05-.07.08-.1,1.77-2.06,3.54-4.11,5.31-6.17.07-.09.14-.17.22-.25.06-.06.06-.11.01-.18-.83-1.2-1.66-2.41-2.48-3.61-1.02-1.48-2.03-2.96-3.05-4.43-.03-.04-.05-.08-.09-.14ZM4.49,3.53c.04.06.06.1.08.13,2.97,4.25,5.95,8.51,8.92,12.76.04.06.09.09.17.09.58,0,1.15,0,1.73,0,.03,0,.07,0,.12,0-.04-.05-.06-.1-.09-.14-.37-.53-.74-1.06-1.11-1.59-2.6-3.72-5.2-7.44-7.8-11.16-.05-.07-.1-.1-.18-.09-.57,0-1.14,0-1.71,0-.04,0-.07,0-.13,0Z"/><rect class="cls-1" width="20" height="20"/></g></svg>