<?xml version="1.0" encoding="UTF-8"?><svg id="_圖層_2" xmlns="http://www.w3.org/2000/svg" viewBox="0 0 20 20"><defs><style>.cls-1{fill:none;}.cls-2{fill:#fff;}.cls-2,.cls-3{fill-rule:evenodd;}.cls-3{fill:#542b87;}</style></defs><g id="_x30_1精選文章"><path class="cls-3" d="M9.95,3.44c1.76.06,3.53.11,5.29.19.63.03,1.27.09,1.89.21,1.02.2,1.65.85,1.88,1.86.22.97.27,1.95.31,2.94.06,1.36.04,2.71-.09,4.06-.06.64-.13,1.29-.3,1.9-.25.92-.92,1.46-1.86,1.63-1.16.2-2.34.23-3.52.27-2.68.1-5.36.09-8.03-.04-.82-.04-1.64-.12-2.45-.22-1.13-.15-1.88-.88-2.09-2-.27-1.43-.31-2.88-.31-4.33,0-1.14.05-2.29.2-3.42.06-.43.13-.87.29-1.27.36-.87,1.05-1.33,1.98-1.45,1.83-.23,3.68-.25,5.52-.28.43,0,.86,0,1.29,0,0-.02,0-.03,0-.05ZM8.14,12.81c1.63-.94,3.23-1.86,4.86-2.8-1.63-.94-3.23-1.86-4.86-2.8v5.59Z"/><path class="cls-2" d="M8.14,12.81v-5.59c1.62.93,3.22,1.86,4.86,2.8-1.63.94-3.23,1.86-4.86,2.8Z"/><rect class="cls-1" width="20" height="20"/></g></svg>